<svg xmlns="http://www.w3.org/2000/svg" viewBox="0 0 551 560.11"><defs><style>.cls-1{fill:#fff;}.cls-2{fill:none;stroke:#fff;stroke-miterlimit:10;stroke-width:4px;}</style></defs><title>mailbtnlabel</title><g id="Layer_2" data-name="Layer 2"><g id="Layer_1-2" data-name="Layer 1"><path class="cls-1" d="M16.84,377.78a1.63,1.63,0,0,1,1.05,0,1.08,1.08,0,0,1,.77.58,1.32,1.32,0,0,1-.19.94l-.67,1.46a5.24,5.24,0,0,0-.37,2.19,8.39,8.39,0,0,0,.64,3A6.28,6.28,0,0,0,21,389.51a5.29,5.29,0,0,0,4.39-.05A6,6,0,0,0,28,387.65a5.33,5.33,0,0,0,1.11-2.48,14.13,14.13,0,0,0,.25-2.85v-3.09a13.28,13.28,0,0,1,.3-2.89A5.89,5.89,0,0,1,31,373.79a7.19,7.19,0,0,1,2.88-1.93,7.67,7.67,0,0,1,3.63-.59,5.49,5.49,0,0,1,2.89,1.12,10.5,10.5,0,0,1,2,2.11,12,12,0,0,1,1.38,2.58,14.56,14.56,0,0,1,1,4.51c.08,1.5-.19,2.38-.84,2.63a1.72,1.72,0,0,1-1,0,1,1,0,0,1-.76-.58,2.4,2.4,0,0,1,0-1,10.67,10.67,0,0,0,0-2,9.71,9.71,0,0,0-.67-2.72A7.52,7.52,0,0,0,39,374.45a4,4,0,0,0-3.91-.22,4.32,4.32,0,0,0-2.33,2,5.56,5.56,0,0,0-.66,2.9c0,1,0,2.19,0,3.43a35,35,0,0,1-.26,3.54,6.42,6.42,0,0,1-1.52,3.24,8.93,8.93,0,0,1-3.72,2.52c-2.55,1-4.73,1-6.56.13a8.9,8.9,0,0,1-4.16-5,10.68,10.68,0,0,1-.75-6C15.45,379.17,16,378.1,16.84,377.78Z"/><path class="cls-1" d="M27.78,396l4-2a7,7,0,0,1,5.64-.26,7.72,7.72,0,0,1,4.75,9.55,6.8,6.8,0,0,1-3.71,4.27,5,5,0,0,1-1.72.55,1.65,1.65,0,0,1-1.23-.33,4,4,0,0,1-.79-.8,8.68,8.68,0,0,1-.65-1.15l-4-8.13-1.33.65a4.66,4.66,0,0,0-2.66,3.18,6.59,6.59,0,0,0,.64,4.56,6.48,6.48,0,0,0,1.4,2,6.93,6.93,0,0,0,1.4,1.06,1.64,1.64,0,0,1,.74.59,1,1,0,0,1,0,.89,1.32,1.32,0,0,1-.59.67c-.5.24-1.27,0-2.31-.79A9.25,9.25,0,0,1,24.7,407a9.12,9.12,0,0,1-.82-6.5A7,7,0,0,1,27.78,396Zm4.08.9,3.5,7.19a3.38,3.38,0,0,0,.93,1.33,1.25,1.25,0,0,0,1.16-.12A5,5,0,0,0,40,402.46a4.71,4.71,0,0,0-.21-3.88A4.86,4.86,0,0,0,36.93,396a4.6,4.6,0,0,0-3.71.18Z"/><path class="cls-1" d="M31.23,416.92l14.59-8.58a.8.8,0,0,1,.78,0,1.55,1.55,0,0,1,.69.66,1.33,1.33,0,0,1,.18.87.86.86,0,0,1-.41.66l-1.61.94a5.67,5.67,0,0,1,2.94.69,5.88,5.88,0,0,1,2.43,2.37,6.7,6.7,0,0,1,.64,5.43,7.35,7.35,0,0,1-3.48,4.5l-9.17,5.39a.88.88,0,0,1-.86,0,1.51,1.51,0,0,1-.7-.65,1.41,1.41,0,0,1-.21-.9.9.9,0,0,1,.45-.73l9.15-5.38a5,5,0,0,0,2.28-3.05,4.73,4.73,0,0,0-.44-3.83,4.66,4.66,0,0,0-2.89-2.15,4.87,4.87,0,0,0-3.9.62l-9.15,5.38a.93.93,0,0,1-.82,0,1.42,1.42,0,0,1-.74-.63,1.36,1.36,0,0,1-.19-1A.93.93,0,0,1,31.23,416.92Z"/><path class="cls-1" d="M46.93,430.85l3.56-2.5A7.4,7.4,0,0,1,56,427a6.73,6.73,0,0,1,4.71,2.87,5.78,5.78,0,0,1,1.12,3.15,5.88,5.88,0,0,1-.6,2.94l11-7.72a.83.83,0,0,1,.79-.06,1.65,1.65,0,0,1,.78.62,1.43,1.43,0,0,1,.29.9.86.86,0,0,1-.36.67L50.43,446.77a1,1,0,0,1-.79.12,1.31,1.31,0,0,1-.77-.54,1.26,1.26,0,0,1-.23-.89,1,1,0,0,1,.38-.73l1.46-1a5.78,5.78,0,0,1-3.06-.52A6.2,6.2,0,0,1,44.78,441a6.51,6.51,0,0,1-1-5.38A7.56,7.56,0,0,1,46.93,430.85Zm1.5,2.12a5.09,5.09,0,0,0-2.08,3.27,4.59,4.59,0,0,0,.7,3.76,4.74,4.74,0,0,0,3.12,2,3.92,3.92,0,0,0,2.91-.23l4.55-3.2a4.83,4.83,0,0,0,2.16-3.3,4.75,4.75,0,0,0-.8-3.56,4.69,4.69,0,0,0-3.3-2,4.93,4.93,0,0,0-3.71.8Z"/><path class="cls-1" d="M60.11,459.15,80,441a1.15,1.15,0,0,1,1.84.11c.52.57.54,1.51.07,2.81l-5.17,14,14.45-3.88c1.34-.35,2.26-.24,2.79.33a1.15,1.15,0,0,1-.06,1.84L74,474.39a.87.87,0,0,1-.81.24,1.63,1.63,0,0,1-.84-.51,1.55,1.55,0,0,1-.42-.87.91.91,0,0,1,.29-.81l16.6-15.16L75.1,460.85a1.29,1.29,0,0,1-1.35-.23,1.24,1.24,0,0,1-.08-1.33l4.91-13.43L61.89,461.1a.87.87,0,0,1-.83.22,1.59,1.59,0,0,1-.82-.49,1.49,1.49,0,0,1-.43-.88A.93.93,0,0,1,60.11,459.15Z"/><path class="cls-1" d="M82.71,474l3-3.31a7,7,0,0,1,5.15-2.31,7.73,7.73,0,0,1,7.94,7.11A6.86,6.86,0,0,1,97,480.83a5,5,0,0,1-1.4,1.15,1.69,1.69,0,0,1-1.27.15,4.74,4.74,0,0,1-1-.45,9.61,9.61,0,0,1-1-.83l-6.68-6.1-1,1.09a4.69,4.69,0,0,0-1.29,3.94,6.58,6.58,0,0,0,2.28,4,6.38,6.38,0,0,0,2,1.31,6.83,6.83,0,0,0,1.7.46,1.62,1.62,0,0,1,.9.29,1,1,0,0,1,.29.83,1.33,1.33,0,0,1-.3.84c-.38.41-1.19.45-2.44.12a9.18,9.18,0,0,1-3.77-2.22,9,9,0,0,1-3.16-5.73A7,7,0,0,1,82.71,474Zm4.13-.67,5.91,5.4a3.19,3.19,0,0,0,1.36.88c.31.06.66-.12,1-.53a5,5,0,0,0,1.31-3.54A4.67,4.67,0,0,0,94.82,472a4.83,4.83,0,0,0-3.58-1.33,4.59,4.59,0,0,0-3.38,1.54Z"/><path class="cls-1" d="M98.87,496.42a.81.81,0,0,1,.2-.21l22.72-17.06a1.4,1.4,0,0,1,1.8.16,1.47,1.47,0,0,1,.74,1.68l-9.24,26.93a.23.23,0,0,0,0,.11.29.29,0,0,1-.06.1.9.9,0,0,1-.87.33,2,2,0,0,1-1.07-.38,1,1,0,0,1-.41-1.13l2.13-6.07-8.94-6.49-5.12,3.9a.93.93,0,0,1-1.25-.07,1.83,1.83,0,0,1-.65-.87A.94.94,0,0,1,98.87,496.42Zm8.85-3.47,7.83,5.69,5.59-15.91Z"/><path class="cls-1" d="M126.86,515.72l12.82-23.67a1.16,1.16,0,0,1,1.77-.5c.68.37,1,1.25,1,2.63l-.28,15,12.38-8.4c1.14-.78,2.06-1,2.74-.61a1.15,1.15,0,0,1,.55,1.75L145,525.55a.9.9,0,0,1-.7.49,1.66,1.66,0,0,1-1.63-.89.83.83,0,0,1,0-.85l10.7-19.77-11.82,7.88a1.26,1.26,0,0,1-1.35.22q-.53-.28-.51-1.23l.23-14.29L129.18,517a.89.89,0,0,1-.71.48,1.56,1.56,0,0,1-.94-.19,1.48,1.48,0,0,1-.7-.7A.91.91,0,0,1,126.86,515.72Z"/><path class="cls-1" d="M153.11,522.35l1.77-4.12a7,7,0,0,1,4.1-3.88,7.71,7.71,0,0,1,9.83,4.11,6.82,6.82,0,0,1,0,5.66,5.31,5.31,0,0,1-.95,1.55,1.71,1.71,0,0,1-1.15.55,4.15,4.15,0,0,1-1.11-.09,9,9,0,0,1-1.25-.45L156,522.13l-.58,1.36a4.66,4.66,0,0,0,.07,4.14,6.59,6.59,0,0,0,3.47,3,6.44,6.44,0,0,0,2.35.57,7.27,7.27,0,0,0,1.75-.12,1.51,1.51,0,0,1,.94,0,1,1,0,0,1,.56.69,1.41,1.41,0,0,1,0,.89c-.22.51-1,.82-2.27.92a10.37,10.37,0,0,1-9.16-5.23A7,7,0,0,1,153.11,522.35Zm3.69-2,7.35,3.15a3.41,3.41,0,0,0,1.57.39c.32,0,.58-.34.8-.85a4.92,4.92,0,0,0,.07-3.77,4.69,4.69,0,0,0-2.7-2.8,4.89,4.89,0,0,0-3.81-.08,4.64,4.64,0,0,0-2.69,2.57Z"/><path class="cls-1" d="M168.69,534a1.33,1.33,0,0,1,.52-.67.79.79,0,0,1,.74-.16,1.86,1.86,0,0,1,.68.72,8.38,8.38,0,0,0,1.31,1.45,6.76,6.76,0,0,0,2.38,1.33,4.9,4.9,0,0,0,3.21.27,2.48,2.48,0,0,0,1.61-1.59,2.82,2.82,0,0,0-.21-2.51,6.71,6.71,0,0,0-1.89-2L174.59,529a5.41,5.41,0,0,1-1.84-2.27,4.17,4.17,0,0,1,0-3.11,5.3,5.3,0,0,1,2.75-3.09,6.29,6.29,0,0,1,5,0,10.43,10.43,0,0,1,3.25,1.78q1.41,1.15,1.17,1.83a1.75,1.75,0,0,1-.59.73.94.94,0,0,1-.88.2,14,14,0,0,1-1.21-1,7,7,0,0,0-2.42-1.43,4.26,4.26,0,0,0-3.15-.1A2.86,2.86,0,0,0,175,524.2a2.21,2.21,0,0,0,.35,2.15,8.92,8.92,0,0,0,2,1.89l2.48,1.78a4.76,4.76,0,0,1,1.77,2.45,5.42,5.42,0,0,1-.16,3.51,4.61,4.61,0,0,1-2.85,3,7.34,7.34,0,0,1-4.93-.25,9.66,9.66,0,0,1-3.9-2.35Q168.36,534.91,168.69,534Z"/><path class="cls-1" d="M184.19,539.23a1.35,1.35,0,0,1,.49-.7.78.78,0,0,1,.72-.21c.18,0,.42.28.72.68a8.06,8.06,0,0,0,1.41,1.36,6.75,6.75,0,0,0,2.45,1.19,5,5,0,0,0,3.22.06,2.49,2.49,0,0,0,1.51-1.7,2.86,2.86,0,0,0-.36-2.49,7,7,0,0,0-2-1.91l-2.56-1.62a5.58,5.58,0,0,1-2-2.15,4.2,4.2,0,0,1-.2-3.11,5.31,5.31,0,0,1,2.55-3.25,6.35,6.35,0,0,1,5-.3,10.62,10.62,0,0,1,3.36,1.58c1,.71,1.41,1.29,1.28,1.75a1.55,1.55,0,0,1-.55.76.91.91,0,0,1-.86.26,11.71,11.71,0,0,1-1.27-.94,7.29,7.29,0,0,0-2.51-1.28,4.24,4.24,0,0,0-3.14.11,2.82,2.82,0,0,0-1.53,1.77,2.18,2.18,0,0,0,.48,2.12,8.8,8.8,0,0,0,2.09,1.76l2.58,1.62a4.81,4.81,0,0,1,1.93,2.34,5.42,5.42,0,0,1,.06,3.51,4.65,4.65,0,0,1-2.65,3.19,7.37,7.37,0,0,1-4.94.06,9.78,9.78,0,0,1-4.05-2.11C184.42,540.66,184,539.87,184.19,539.23Z"/><path class="cls-1" d="M200.4,541.17a4.45,4.45,0,0,1,3.21-3.8,15.36,15.36,0,0,1,7,.2l2,.41.2-.92a6.23,6.23,0,0,0-.38-3.91,4.13,4.13,0,0,0-3.17-2.27,7,7,0,0,0-3,0c-.93.19-1.42.28-1.47.28a.9.9,0,0,1-.66-.58,1.76,1.76,0,0,1-.08-1c.1-.49.76-.83,2-1a10.45,10.45,0,0,1,3.73.12c2.46.51,4.1,1.59,4.95,3.25a8.61,8.61,0,0,1,.58,5.77l-2.1,10.19a.94.94,0,0,1-.5.65,1.43,1.43,0,0,1-1,.11,1.25,1.25,0,0,1-.78-.47,1,1,0,0,1-.18-.79l.35-1.73a7.88,7.88,0,0,1-6.53,1.8,5.73,5.73,0,0,1-3.57-2.11A5,5,0,0,1,200.4,541.17Zm2.59.29a3.11,3.11,0,0,0,.44,2.64,3.69,3.69,0,0,0,2.3,1.31,5.54,5.54,0,0,0,3.79-.64,3.83,3.83,0,0,0,2.23-2.4l.52-2.51-1.65-.34a24.11,24.11,0,0,0-2.67-.43,12.65,12.65,0,0,0-2.22,0,3.21,3.21,0,0,0-1.82.69A2.91,2.91,0,0,0,203,541.46Z"/><path class="cls-1" d="M217.14,553.65q.39-3,3.94-3.88a2.8,2.8,0,0,1-1.83-3,3.23,3.23,0,0,1,2.36-2.58,6.2,6.2,0,0,1-1.52-5.29l.19-1.51a6.3,6.3,0,0,1,2.51-4.47,7.58,7.58,0,0,1,9.6,1.09,6.17,6.17,0,0,1,1.58-1.63,2.28,2.28,0,0,1,1.56-.47,1.2,1.2,0,0,1,.83.43,1,1,0,0,1,.22.76.81.81,0,0,1-.79.78,3.25,3.25,0,0,0-2.44,1.38,6.08,6.08,0,0,1,.62,3.88l-.2,1.51a6.32,6.32,0,0,1-2.56,4.48,6.92,6.92,0,0,1-5.2,1.22,7.25,7.25,0,0,1-3-1.06c-.88.34-1.36.79-1.43,1.37a1.37,1.37,0,0,0,.74,1.39,7.72,7.72,0,0,0,2.19.91l2.93.77a20.92,20.92,0,0,1,2.9,1,4.66,4.66,0,0,1,2.09,1.76,4.12,4.12,0,0,1,.55,2.89,4.79,4.79,0,0,1-2.69,3.88,9.83,9.83,0,0,1-5.82.73,10.74,10.74,0,0,1-5.63-2.19A4.41,4.41,0,0,1,217.14,553.65Zm2.53.09a3.06,3.06,0,0,0,1.14,2.81,7.23,7.23,0,0,0,3.9,1.52,6.7,6.7,0,0,0,4-.48,3.12,3.12,0,0,0,1.76-2.48,2.47,2.47,0,0,0-.21-1.44,3.06,3.06,0,0,0-.81-1,6,6,0,0,0-1.34-.74,8.88,8.88,0,0,0-1.5-.51L225,551l-1.33-.32C221.21,551.1,219.88,552.13,219.67,553.74Zm2.92-14.58a5,5,0,0,0,.73,3.55,4.09,4.09,0,0,0,3,1.74,4,4,0,0,0,3.29-.91,4.92,4.92,0,0,0,1.61-3.2l.2-1.52a4.74,4.74,0,0,0-.74-3.45,4.49,4.49,0,0,0-6.3-.83,4.76,4.76,0,0,0-1.6,3.14Z"/><path class="cls-1" d="M238.11,544.87l.25-4.48a7,7,0,0,1,2.53-5,7.72,7.72,0,0,1,10.65.5,6.82,6.82,0,0,1,1.92,5.32,5,5,0,0,1-.36,1.78,1.66,1.66,0,0,1-.89.91,4.44,4.44,0,0,1-1.08.3,8.16,8.16,0,0,1-1.32,0l-9-.51-.08,1.48a4.7,4.7,0,0,0,1.48,3.87,6.61,6.61,0,0,0,4.3,1.67,6.51,6.51,0,0,0,2.4-.27,7,7,0,0,0,1.6-.71,1.7,1.7,0,0,1,.88-.35,1,1,0,0,1,.75.46,1.37,1.37,0,0,1,.3.84c0,.56-.64,1.11-1.82,1.64a9.16,9.16,0,0,1-4.32.66,9,9,0,0,1-6.07-2.45A6.94,6.94,0,0,1,238.11,544.87Zm2.78-3.13,8,.45a3.32,3.32,0,0,0,1.61-.17c.28-.16.43-.51.46-1.07a4.92,4.92,0,0,0-1.22-3.57,4.7,4.7,0,0,0-3.49-1.71,4.84,4.84,0,0,0-3.61,1.23,4.59,4.59,0,0,0-1.65,3.33Z"/><path class="cls-2" d="M12.84,352A273.79,273.79,0,0,1,2,277.2C1.06,126.16,122.75,3,273.8,2S548.05,122.75,549,273.8,428.25,548.05,277.2,549"/></g></g></svg>