<?xml version="1.0" encoding="utf-8"?>
<!-- Generator: Adobe Illustrator 26.1.0, SVG Export Plug-In . SVG Version: 6.00 Build 0)  -->
<svg version="1.1" id="Layer_1" xmlns="http://www.w3.org/2000/svg" xmlns:xlink="http://www.w3.org/1999/xlink" x="0px" y="0px"
	 viewBox="0 0 977.5 974.5" style="enable-background:new 0 0 977.5 974.5;" xml:space="preserve">
<style type="text/css">
	.st0{fill:#F57F20;}
</style>
<g id="ee93b042-60b6-4b04-9e7c-1c0ecfa9c649">
	<g id="aea4980d-54b9-4bbf-a287-d78c8e41a73d">
		<g>
			<g>
				<path class="st0" d="M372.6,121.9c0,65.2,52.8,118,118,118l0-236C425.4,4,372.6,56.8,372.6,121.9z"/>
				<path class="st0" d="M369.7,121.9c0-65.2-52.8-118-118-118l0,236C316.9,239.9,369.7,187.1,369.7,121.9z"/>
			</g>
			<g>
				<path class="st0" d="M615.5,365.4c0,65.2,52.8,118,118,118l0-236C668.3,247.4,615.5,300.2,615.5,365.4z"/>
				<path class="st0" d="M612.6,365.4c0-65.2-52.8-118-118-118l0,236C559.8,483.3,612.6,430.5,612.6,365.4z"/>
			</g>
			<g>
				<path class="st0" d="M369.7,365.4c-65.2,0-118,52.8-118,118l236,0C487.7,418.2,434.8,365.4,369.7,365.4z"/>
				<path class="st0" d="M369.7,362.5c65.2,0,118-52.8,118-118l-236,0C251.7,309.6,304.5,362.5,369.7,362.5z"/>
			</g>
			<g>
				<path class="st0" d="M857.3,608.5c-65.2,0-118,52.8-118,118l236,0C975.3,661.3,922.4,608.5,857.3,608.5L857.3,608.5z"/>
				<path class="st0" d="M857.3,605.6c65.2,0,118-52.8,118-118l-236,0C739.3,552.8,792.1,605.6,857.3,605.6L857.3,605.6z"/>
			</g>
			<g>
				<path class="st0" d="M371.1,608.5c0,65.2,52.8,118,118,118l0-236C424,490.5,371.1,543.3,371.1,608.5
					C371.1,608.5,371.1,608.5,371.1,608.5z"/>
				<path class="st0" d="M368.2,608.5c0-65.2-52.8-118-118-118l0,236C315.4,726.5,368.2,673.6,368.2,608.5z"/>
			</g>
			<g>
				<path class="st0" d="M614.1,852.6c0,65.2,52.8,118,118,118l0-236C666.9,734.6,614.1,787.4,614.1,852.6L614.1,852.6z"/>
				<path class="st0" d="M611.2,853.6c0-65.2-52.8-118-118-118l0,236C558.4,971.6,611.2,918.8,611.2,853.6
					C611.2,853.6,611.2,853.6,611.2,853.6z"/>
			</g>
			<g>
				<path class="st0" d="M617,608.5c0,65.2,52.8,118,118,118l0-236C669.8,490.5,617,543.3,617,608.5L617,608.5z"/>
				<path class="st0" d="M614.1,608.5c0-65.2-52.8-118-118-118l0,236C561.3,726.5,614.1,673.6,614.1,608.5L614.1,608.5z"/>
			</g>
			<g>
				<path class="st0" d="M122.7,363.9c-67.2,0-121.6,52.8-121.6,118l243.3,0C244.4,416.8,189.9,363.9,122.7,363.9z"/>
				<path class="st0" d="M122.7,361.1c67.2,0,121.6-52.8,121.6-118l-243.3,0C1.1,308.2,55.5,361.1,122.7,361.1z"/>
			</g>
			<g>
				<path class="st0" d="M121.3,851.7c0-67.2-52.8-121.6-118-121.6l0,243.3C68.5,973.4,121.3,918.9,121.3,851.7z"/>
				<path class="st0" d="M124.2,851.7c0,67.2,52.8,121.6,118,121.6l0-243.3C177,730.1,124.2,784.6,124.2,851.7z"/>
			</g>
			<path class="st0" d="M854.8,121.9c0-65.2-52.8-118-118-118l0,236C802,239.9,854.8,187.1,854.8,121.9z"/>
			<path class="st0" d="M857.3,852.1c65.2,0,118-52.8,118-118l-236,0C739.3,799.3,792.1,852.1,857.3,852.1L857.3,852.1z"/>
			<g>
				<path class="st0" d="M614.1,1.1c-65.2,0-118,52.8-118,118l236,0C732.1,53.9,679.2,1.1,614.1,1.1C614.1,1.1,614.1,1.1,614.1,1.1z
					"/>
				<path class="st0" d="M614.1,121.9c-65.2,0-118,52.8-118,118l236,0C732.1,174.8,679.2,121.9,614.1,121.9z"/>
			</g>
			<g>
				<path class="st0" d="M122.7,486.2c-67.2,0-121.6,52.8-121.6,118l243.3,0C244.4,539,189.9,486.2,122.7,486.2z"/>
				<path class="st0" d="M122.7,607.1c-67.2,0-121.6,52.8-121.6,118l243.3,0C244.4,659.9,189.9,607.1,122.7,607.1z"/>
			</g>
			<g>
				<path class="st0" d="M244.4,120.5c0-65.2-52.8-118-118-118l0,236C191.5,238.5,244.4,185.7,244.4,120.5
					C244.4,120.5,244.4,120.5,244.4,120.5z"/>
				<path class="st0" d="M3.1,120.5c0,65.2,52.8,118,118,118l0-236C55.9,2.5,3.1,55.4,3.1,120.5z"/>
			</g>
			<g>
				<path class="st0" d="M487.7,854.6c0-65.2-52.8-118-118-118l0,236C434.8,972.6,487.7,919.8,487.7,854.6z"/>
				<path class="st0" d="M246.4,854.6c0,65.2,52.8,118,118,118l0-236C299.2,736.6,246.4,789.4,246.4,854.6z"/>
			</g>
			<g>
				<path class="st0" d="M976.5,365.4c0-65.2-52.8-118-118-118l0,236C923.7,483.3,976.5,430.5,976.5,365.4z"/>
				<path class="st0" d="M735.2,365.4c0,65.2,52.8,118,118,118l0-236C788,247.4,735.2,300.2,735.2,365.4z"/>
			</g>
		</g>
	</g>
</g>
</svg>
