<?xml version="1.0" encoding="utf-8"?>
<!-- Generator: Adobe Illustrator 26.1.0, SVG Export Plug-In . SVG Version: 6.00 Build 0)  -->
<svg version="1.1" id="Layer_1" xmlns="http://www.w3.org/2000/svg" xmlns:xlink="http://www.w3.org/1999/xlink" x="0px" y="0px"
	 viewBox="0 0 977.5 974.5" style="enable-background:new 0 0 977.5 974.5;" xml:space="preserve">
<style type="text/css">
	.st0{fill:#F57F20;}
</style>
<g id="ee93b042-60b6-4b04-9e7c-1c0ecfa9c649">
	<g id="aea4980d-54b9-4bbf-a287-d78c8e41a73d">
		<g>
			<g>
				<path class="st0" d="M854.1,371c-65.2,0-118,52.8-118,118l236,0C972,423.8,919.2,371,854.1,371z"/>
				<path class="st0" d="M854.1,368.1c65.2,0,118-52.8,118-118l-236,0C736.1,315.3,788.9,368.1,854.1,368.1z"/>
			</g>
			<g>
				<path class="st0" d="M610.6,614c-65.2,0-118,52.8-118,118l236,0C728.6,666.8,675.8,614,610.6,614z"/>
				<path class="st0" d="M610.6,611.1c65.2,0,118-52.8,118-118l-236,0C492.7,558.3,545.5,611.1,610.6,611.1z"/>
			</g>
			<g>
				<path class="st0" d="M610.6,368.1c0-65.2-52.8-118-118-118l0,236C557.8,486.1,610.6,433.3,610.6,368.1z"/>
				<path class="st0" d="M613.5,368.1c0,65.2,52.8,118,118,118l0-236C666.3,250.2,613.5,303,613.5,368.1z"/>
			</g>
			<g>
				<path class="st0" d="M367.5,855.7c0-65.2-52.8-118-118-118l0,236C314.7,973.7,367.5,920.9,367.5,855.7L367.5,855.7z"/>
				<path class="st0" d="M370.4,855.7c0,65.2,52.8,118,118,118l0-236C423.2,737.7,370.4,790.6,370.4,855.7L370.4,855.7z"/>
			</g>
			<g>
				<path class="st0" d="M367.5,369.6c-65.2,0-118,52.8-118,118l236,0C485.5,422.4,432.7,369.6,367.5,369.6
					C367.5,369.6,367.5,369.6,367.5,369.6z"/>
				<path class="st0" d="M367.5,366.7c65.2,0,118-52.8,118-118l-236,0C249.5,313.9,302.4,366.7,367.5,366.7z"/>
			</g>
			<g>
				<path class="st0" d="M121.4,612.5c-65.2,0-118,52.8-118,118l236,0C239.4,665.3,186.6,612.5,121.4,612.5L121.4,612.5z"/>
				<path class="st0" d="M121.4,609.6c65.2,0,118-52.8,118-118l-236,0C3.4,556.8,56.2,609.6,121.4,609.6
					C121.4,609.6,121.4,609.6,121.4,609.6z"/>
			</g>
			<g>
				<path class="st0" d="M367.5,615.4c-65.2,0-118,52.8-118,118l236,0C485.5,668.2,432.7,615.4,367.5,615.4L367.5,615.4z"/>
				<path class="st0" d="M367.5,612.5c65.2,0,118-52.8,118-118l-236,0C249.5,559.7,302.4,612.5,367.5,612.5L367.5,612.5z"/>
			</g>
			<g>
				<path class="st0" d="M612,121.2C612,54,559.2-0.5,494.1-0.5l0,243.3C559.2,242.8,612,188.3,612,121.2z"/>
				<path class="st0" d="M614.9,121.2c0,67.2,52.8,121.6,118,121.6l0-243.3C667.8-0.5,614.9,54,614.9,121.2z"/>
			</g>
			<g>
				<path class="st0" d="M124.3,119.7c67.2,0,121.6-52.8,121.6-118L2.6,1.7C2.6,66.9,57.1,119.7,124.3,119.7z"/>
				<path class="st0" d="M124.3,122.6c-67.2,0-121.6,52.8-121.6,118l243.3,0C245.9,175.4,191.4,122.6,124.3,122.6z"/>
			</g>
			<path class="st0" d="M854.1,853.3c65.2,0,118-52.8,118-118l-236,0C736.1,800.5,788.9,853.3,854.1,853.3z"/>
			<path class="st0" d="M121.4,855.7c65.2,0,118-52.8,118-118l-236,0C3.4,802.9,56.2,855.7,121.4,855.7L121.4,855.7z"/>
			<g>
				<path class="st0" d="M974.9,612.5c0-65.2-52.8-118-118-118l0,236C922.1,730.5,974.9,677.7,974.9,612.5
					C974.9,612.5,974.9,612.5,974.9,612.5z"/>
				<path class="st0" d="M854.1,612.5c0-65.2-52.8-118-118-118l0,236C801.2,730.5,854.1,677.7,854.1,612.5z"/>
			</g>
			<g>
				<path class="st0" d="M489.8,121.2C489.8,54,437-0.5,371.8-0.5l0,243.3C437,242.8,489.8,188.3,489.8,121.2z"/>
				<path class="st0" d="M368.9,121.2c0-67.2-52.8-121.6-118-121.6l0,243.3C316.1,242.8,368.9,188.3,368.9,121.2z"/>
			</g>
			<g>
				<path class="st0" d="M855.5,242.8c65.2,0,118-52.8,118-118l-236,0C737.5,190,790.3,242.8,855.5,242.8
					C855.5,242.8,855.5,242.8,855.5,242.8z"/>
				<path class="st0" d="M855.5,1.5c-65.2,0-118,52.8-118,118l236,0C973.5,54.3,920.6,1.5,855.5,1.5z"/>
			</g>
			<g>
				<path class="st0" d="M121.4,486.1c65.2,0,118-52.8,118-118l-236,0C3.4,433.3,56.2,486.1,121.4,486.1z"/>
				<path class="st0" d="M121.4,244.8c-65.2,0-118,52.8-118,118l236,0C239.4,297.7,186.6,244.8,121.4,244.8z"/>
			</g>
			<g>
				<path class="st0" d="M610.6,974.9c65.2,0,118-52.8,118-118l-236,0C492.7,922.1,545.5,974.9,610.6,974.9z"/>
				<path class="st0" d="M610.6,733.6c-65.2,0-118,52.8-118,118l236,0C728.6,786.5,675.8,733.6,610.6,733.6z"/>
			</g>
		</g>
	</g>
</g>
</svg>
