<svg xmlns="http://www.w3.org/2000/svg" viewBox="0 0 551 554.39"><defs><style>.cls-1{opacity:0.98;}.cls-2{fill:#fff;}.cls-3{fill:none;stroke:#fff;stroke-miterlimit:10;stroke-width:4px;}</style></defs><title>phonebtnlabel</title><g id="Layer_2" data-name="Layer 2"><g id="Layer_1-2" data-name="Layer 1"><g class="cls-1"><path class="cls-2" d="M21.5,380.25a1.56,1.56,0,0,1,1.05,0,1.06,1.06,0,0,1,.77.57,1.27,1.27,0,0,1-.19.94l-.66,1.47a5,5,0,0,0-.35,2.19,8.41,8.41,0,0,0,.65,3A6.35,6.35,0,0,0,25.72,392a5.27,5.27,0,0,0,4.39-.08,5.86,5.86,0,0,0,2.56-1.82,5.22,5.22,0,0,0,1.1-2.48,14.16,14.16,0,0,0,.24-2.85l0-3.09a12.8,12.8,0,0,1,.28-2.9,5.9,5.9,0,0,1,1.35-2.56,7.27,7.27,0,0,1,2.87-1.94,7.81,7.81,0,0,1,3.63-.61A5.43,5.43,0,0,1,45,374.74a10.26,10.26,0,0,1,2,2.1,11.73,11.73,0,0,1,1.4,2.57,14.52,14.52,0,0,1,1,4.51c.1,1.5-.17,2.37-.82,2.63a1.72,1.72,0,0,1-1,.05,1,1,0,0,1-.76-.58,2.55,2.55,0,0,1,0-1,10.81,10.81,0,0,0,0-2,9.76,9.76,0,0,0-.68-2.72,7.5,7.5,0,0,0-2.55-3.46,3.91,3.91,0,0,0-3.91-.2,4.31,4.31,0,0,0-2.32,2,5.6,5.6,0,0,0-.64,2.91c0,1.05.05,2.19,0,3.43a32.84,32.84,0,0,1-.24,3.55A6.44,6.44,0,0,1,35,391.71a8.91,8.91,0,0,1-3.7,2.54q-3.81,1.51-6.56.16a8.91,8.91,0,0,1-4.19-5,10.75,10.75,0,0,1-.78-6C20.12,381.64,20.69,380.57,21.5,380.25Z"/><path class="cls-2" d="M32.56,398.38l3.84-1.88a7.7,7.7,0,0,1,5.77-.63,7.5,7.5,0,0,1,4.41,4.25,8.55,8.55,0,0,1,1,4c0,1.22-.32,2-.85,2.22a1.27,1.27,0,0,1-.93.05,1,1,0,0,1-.73-.53,1.62,1.62,0,0,1,0-.82,7.35,7.35,0,0,0,0-1.59,5.65,5.65,0,0,0-.63-2.14,5.27,5.27,0,0,0-2.92-2.91,5.13,5.13,0,0,0-4,.45l-3.82,1.87a5.19,5.19,0,0,0-2.85,2.88,5.3,5.3,0,0,0,.52,4.13,6.14,6.14,0,0,0,1.34,1.91,6.62,6.62,0,0,0,1.29,1,1.49,1.49,0,0,1,.68.54,1.07,1.07,0,0,1,0,.94,1.35,1.35,0,0,1-.65.7c-.55.27-1.33,0-2.33-.73a9.17,9.17,0,0,1-2.6-3.36,7.64,7.64,0,0,1-.68-6.13A7.72,7.72,0,0,1,32.56,398.38Z"/><path class="cls-2" d="M35.13,417.58l24.59-14.37a.86.86,0,0,1,.77,0,1.47,1.47,0,0,1,.71.65,1.63,1.63,0,0,1,.23,1,.83.83,0,0,1-.4.67l-11.6,6.78a5.81,5.81,0,0,1,2.93.67,5.75,5.75,0,0,1,2.39,2.33,6.65,6.65,0,0,1,.62,5.41,7.4,7.4,0,0,1-3.5,4.48l-9.19,5.37a.89.89,0,0,1-.85.05,1.52,1.52,0,0,1-.71-.67,1.46,1.46,0,0,1-.2-.9.84.84,0,0,1,.45-.72l9.16-5.36a5,5,0,0,0,2.29-3,4.65,4.65,0,0,0-.41-3.79,4.73,4.73,0,0,0-2.9-2.18,4.86,4.86,0,0,0-3.9.59l-9.17,5.36a.93.93,0,0,1-.82,0,1.49,1.49,0,0,1-.74-.64,1.4,1.4,0,0,1-.18-.93A1,1,0,0,1,35.13,417.58Z"/><path class="cls-2" d="M50.79,431.52,54.47,429A7,7,0,0,1,60,427.84,7.48,7.48,0,0,1,64.87,431a7.39,7.39,0,0,1,1.29,5.51,6.82,6.82,0,0,1-3,4.79,4.87,4.87,0,0,1-1.62.81,1.67,1.67,0,0,1-1.27-.14,4.2,4.2,0,0,1-.9-.66,8.78,8.78,0,0,1-.82-1l-5.16-7.42-1.22.84A4.68,4.68,0,0,0,50,437.27a6.62,6.62,0,0,0,1.34,4.41,6.47,6.47,0,0,0,1.68,1.73,7.19,7.19,0,0,0,1.55.82,1.55,1.55,0,0,1,.82.48,1,1,0,0,1,.1.88,1.36,1.36,0,0,1-.48.75c-.46.32-1.26.18-2.41-.42a10.38,10.38,0,0,1-5-9.29A7,7,0,0,1,50.79,431.52Zm4.18.26,4.56,6.57a3.39,3.39,0,0,0,1.13,1.16,1.2,1.2,0,0,0,1.12-.29,5,5,0,0,0,2.07-3.17,4.74,4.74,0,0,0-.81-3.8,4.89,4.89,0,0,0-3.19-2.09,4.62,4.62,0,0,0-3.64.76Z"/><path class="cls-2" d="M61.83,447.13l3.37-2.76a7.41,7.41,0,0,1,5.42-1.72,6.77,6.77,0,0,1,4.91,2.53,5.87,5.87,0,0,1,1,6l10.4-8.5a.81.81,0,0,1,.78-.12,1.6,1.6,0,0,1,.82.56,1.37,1.37,0,0,1,.36.88.87.87,0,0,1-.31.69l-22.05,18a1,1,0,0,1-.79.17,1.25,1.25,0,0,1-.8-.48,1.22,1.22,0,0,1-.3-.87,1,1,0,0,1,.33-.75l1.38-1.13a5.78,5.78,0,0,1-3.09-.29,6.24,6.24,0,0,1-2.79-2,6.53,6.53,0,0,1-1.36-5.3A7.55,7.55,0,0,1,61.83,447.13Zm1.65,2a5.13,5.13,0,0,0-1.83,3.42,4.58,4.58,0,0,0,1,3.7A4.76,4.76,0,0,0,65.88,458a3.88,3.88,0,0,0,2.88-.44L73.07,454A4.87,4.87,0,0,0,75,450.56a4.78,4.78,0,0,0-4.49-5.24,5,5,0,0,0-3.65,1.07Z"/><path class="cls-2" d="M75.06,463.1l7.69-7.4a.89.89,0,0,1,.76-.2,1.44,1.44,0,0,1,1.26,1.31.91.91,0,0,1-.21.76L76.88,465a5.06,5.06,0,0,0-1.54,3.53,4.76,4.76,0,0,0,4.88,5.08,5,5,0,0,0,3.59-1.4l7.71-7.41a.8.8,0,0,1,.76-.18,1.65,1.65,0,0,1,1.27,1.31.85.85,0,0,1-.23.75l-7.73,7.43a7.6,7.6,0,0,1-10.53-11Z"/><path class="cls-2" d="M85.62,482.52,105,461.61a.85.85,0,0,1,.73-.26,1.48,1.48,0,0,1,.86.42,1.54,1.54,0,0,1,.5.85.81.81,0,0,1-.18.75L87.53,484.28a.92.92,0,0,1-.77.27,1.46,1.46,0,0,1-1.35-1.25A.92.92,0,0,1,85.62,482.52Z"/><path class="cls-2" d="M95.49,483l2.9-3.41a7,7,0,0,1,5.06-2.5,7.74,7.74,0,0,1,8.19,6.84,6.86,6.86,0,0,1-1.69,5.4,4.93,4.93,0,0,1-1.36,1.2,1.72,1.72,0,0,1-1.26.19,4,4,0,0,1-1-.42,8.1,8.1,0,0,1-1.06-.79l-6.88-5.86-1,1.13a4.67,4.67,0,0,0-1.15,4,6.62,6.62,0,0,0,2.41,3.92,6.46,6.46,0,0,0,2.07,1.23,6.88,6.88,0,0,0,1.71.41,1.6,1.6,0,0,1,.91.25,1,1,0,0,1,.33.82,1.29,1.29,0,0,1-.28.85q-.54.64-2.43.21a9.14,9.14,0,0,1-3.85-2.09,9,9,0,0,1-3.36-5.61A7,7,0,0,1,95.49,483Zm4.1-.81,6.1,5.18a3.29,3.29,0,0,0,1.38.84,1.21,1.21,0,0,0,1-.57,5,5,0,0,0,1.19-3.59,4.71,4.71,0,0,0-1.75-3.47,4.83,4.83,0,0,0-3.62-1.2,4.64,4.64,0,0,0-3.33,1.66Z"/><path class="cls-2" d="M112.76,504.89a.92.92,0,0,1,.19-.22l21.91-18.09a1.41,1.41,0,0,1,1.8.08,1.48,1.48,0,0,1,.82,1.65l-8,27.33a.3.3,0,0,0-.05.1l0,.11a.94.94,0,0,1-.87.36,2,2,0,0,1-1.08-.32,1,1,0,0,1-.46-1.12l1.85-6.15-9.23-6.08-4.94,4.14a.92.92,0,0,1-1.24,0,1.75,1.75,0,0,1-.7-.84A.93.93,0,0,1,112.76,504.89Zm8.68-3.87,8.08,5.32,4.85-16.15Z"/><path class="cls-2" d="M141.48,522.7l12.13-24.39c.26-.52.74-.65,1.43-.36l6.59,3.28a8.55,8.55,0,0,1,4.46,4.49c.73,1.89.45,4.14-.86,6.77l-.18.36c-1.3,2.62-2.94,4.22-4.9,4.77a8.62,8.62,0,0,1-6.34-.85l-5.16-2.56-4.81,9.67a.88.88,0,0,1-.69.5,1.58,1.58,0,0,1-1-.16,1.52,1.52,0,0,1-.72-.67A.91.91,0,0,1,141.48,522.7Zm8.19-10.54,5.15,2.57a5.59,5.59,0,0,0,4.44.51,6.37,6.37,0,0,0,3.38-3.46l.21-.43q2.7-5.44-2.38-8l-5.16-2.57Z"/><path class="cls-2" d="M161.29,532.22l10.48-26.48a.82.82,0,0,1,.59-.5,1.39,1.39,0,0,1,.95.08,1.49,1.49,0,0,1,.77.6.81.81,0,0,1,.11.77l-4.95,12.5a5.87,5.87,0,0,1,6-.92,6.65,6.65,0,0,1,3.82,3.88,7.32,7.32,0,0,1,0,5.68l-3.91,9.89a.9.9,0,0,1-.64.57,1.6,1.6,0,0,1-1-.08,1.56,1.56,0,0,1-.71-.59.86.86,0,0,1-.09-.85l3.9-9.87a5,5,0,0,0-.08-3.81,4.63,4.63,0,0,0-2.66-2.73,4.69,4.69,0,0,0-3.62.07,4.86,4.86,0,0,0-2.71,2.88l-3.91,9.87a.94.94,0,0,1-.63.52,1.44,1.44,0,0,1-1-.05,1.33,1.33,0,0,1-.72-.62A.94.94,0,0,1,161.29,532.22Z"/><path class="cls-2" d="M182.18,533.52l1.27-4.17a7.22,7.22,0,0,1,3.69-4.37,7.32,7.32,0,0,1,5.73-.56,7.45,7.45,0,0,1,4.48,3.67,7.07,7.07,0,0,1,.64,5.72L196.71,538a7.6,7.6,0,0,1-14.53-4.46Zm2.48.75a5.18,5.18,0,0,0,.34,3.87,4.75,4.75,0,0,0,6.75,2.07,5.12,5.12,0,0,0,2.48-3l1.27-4.15a4.94,4.94,0,0,0-.41-3.79,4.77,4.77,0,0,0-2.93-2.52,4.64,4.64,0,0,0-3.8.46,5,5,0,0,0-2.42,2.92Z"/><path class="cls-2" d="M200.3,545.41,204,528.89a.82.82,0,0,1,.5-.61,1.53,1.53,0,0,1,1,0,1.28,1.28,0,0,1,.75.46.85.85,0,0,1,.21.75l-.41,1.82a5.79,5.79,0,0,1,2.51-1.69,6,6,0,0,1,3.39-.16,6.77,6.77,0,0,1,4.41,3.23,7.34,7.34,0,0,1,.92,5.62l-2.3,10.38a.86.86,0,0,1-.55.66,1.56,1.56,0,0,1-1,.07,1.51,1.51,0,0,1-.8-.46.88.88,0,0,1-.23-.83l2.3-10.36A5,5,0,0,0,214,534a4.75,4.75,0,0,0-3.1-2.28,4.65,4.65,0,0,0-3.55.65,4.88,4.88,0,0,0-2.2,3.27L202.83,546a.91.91,0,0,1-.54.62,1.47,1.47,0,0,1-1,.11,1.35,1.35,0,0,1-.83-.51A.93.93,0,0,1,200.3,545.41Z"/><path class="cls-2" d="M221.16,543.39l.62-4.44a7,7,0,0,1,2.94-4.81,7.72,7.72,0,0,1,10.57,1.39,6.84,6.84,0,0,1,1.47,5.46,4.87,4.87,0,0,1-.51,1.74,1.62,1.62,0,0,1-1,.83,3.77,3.77,0,0,1-1.1.21,9.31,9.31,0,0,1-1.32-.1l-9-1.26-.21,1.46a4.67,4.67,0,0,0,1.16,4,7.36,7.36,0,0,0,6.55,1.95,6.87,6.87,0,0,0,1.66-.57A1.66,1.66,0,0,1,234,549a1,1,0,0,1,.71.53,1.32,1.32,0,0,1,.22.86c-.08.55-.73,1-1.94,1.48a9.21,9.21,0,0,1-4.37.3,9.09,9.09,0,0,1-5.84-3A6.94,6.94,0,0,1,221.16,543.39Zm3-2.88,7.92,1.11a3.38,3.38,0,0,0,1.62,0c.29-.14.47-.48.55-1a5,5,0,0,0-.92-3.66,4.71,4.71,0,0,0-3.33-2,4.89,4.89,0,0,0-3.71.93A4.59,4.59,0,0,0,224.4,539Z"/><path class="cls-2" d="M249.43,545.61l.33-12.4c.08-2.9.92-5,2.52-6.37a8.72,8.72,0,0,1,6.11-1.92,8.88,8.88,0,0,1,6,2.1,6.1,6.1,0,0,1,2.09,4.8,1.91,1.91,0,0,1-.34,1.27,1.35,1.35,0,0,1-1,.3c-.82,0-1.25-.37-1.29-1a8.57,8.57,0,0,0-.13-1.16,5.57,5.57,0,0,0-.44-1.28,4.27,4.27,0,0,0-.91-1.24,4.39,4.39,0,0,0-1.6-.9,7.69,7.69,0,0,0-2.39-.41q-5.74-.15-5.92,5.92l-.33,12.4q-.16,6.12,5.75,6.28a7.31,7.31,0,0,0,2.81-.39,3.32,3.32,0,0,0,1.68-1.29,7.48,7.48,0,0,0,.74-1.48,11,11,0,0,0,.34-1.61c.1-.7.55-1,1.35-1a1.31,1.31,0,0,1,1,.37,2.05,2.05,0,0,1,.26,1.31,6.1,6.1,0,0,1-2.39,4.73,9,9,0,0,1-6.15,1.8,8.63,8.63,0,0,1-5.92-2.24Q249.32,550,249.43,545.61Z"/><path class="cls-2" d="M269.72,549.28a4.48,4.48,0,0,1,2.15-4.49,15.57,15.57,0,0,1,6.87-1.58l2-.1,0-.94a6.15,6.15,0,0,0-1.35-3.69,4.1,4.1,0,0,0-3.64-1.4,7.09,7.09,0,0,0-2.86.71,12.88,12.88,0,0,1-1.35.64.85.85,0,0,1-.78-.39,1.67,1.67,0,0,1-.33-.93c0-.51.52-1,1.64-1.49a10.7,10.7,0,0,1,3.65-.83q3.75-.18,5.6,1.9a8.59,8.59,0,0,1,2,5.44l.53,10.39a.92.92,0,0,1-.32.76,1.35,1.35,0,0,1-.9.34,1.24,1.24,0,0,1-.88-.25,1,1,0,0,1-.37-.72l-.09-1.76a7.88,7.88,0,0,1-5.88,3.38,5.64,5.64,0,0,1-4-1.13A5,5,0,0,1,269.72,549.28Zm2.58-.37a3.1,3.1,0,0,0,1.09,2.44A3.68,3.68,0,0,0,276,552a5.52,5.52,0,0,0,3.5-1.58,3.83,3.83,0,0,0,1.56-2.88l-.13-2.56-1.68.09a23.6,23.6,0,0,0-2.69.26,11.8,11.8,0,0,0-2.16.55,3.14,3.14,0,0,0-1.58,1.12A2.9,2.9,0,0,0,272.3,548.91Z"/><path class="cls-2" d="M289.91,551.92l-3-28.37a.83.83,0,0,1,.29-.71,1.46,1.46,0,0,1,.88-.38,1.71,1.71,0,0,1,1,.18.81.81,0,0,1,.44.64l2.95,28.37a.91.91,0,0,1-.3.75,1.41,1.41,0,0,1-.9.42,1.31,1.31,0,0,1-.93-.23A.88.88,0,0,1,289.91,551.92Z"/><path class="cls-2" d="M298.7,550.9l-3.9-28.25a.84.84,0,0,1,.26-.73,1.5,1.5,0,0,1,.88-.4,1.57,1.57,0,0,1,1,.15.82.82,0,0,1,.46.62l3.91,28.25a1,1,0,0,1-.28.77,1.43,1.43,0,0,1-.89.44,1.31,1.31,0,0,1-.93-.19A1,1,0,0,1,298.7,550.9Z"/></g><path class="cls-3" d="M14.73,358.19A273.61,273.61,0,0,1,2.12,283.67c-4.51-151,114.23-277,265.21-281.55s277,114.23,281.55,265.21C553,404.7,455.06,521.44,323.65,544.77"/></g></g></svg>