<?xml version="1.0" encoding="utf-8"?>
<!-- Generator: Adobe Illustrator 26.1.0, SVG Export Plug-In . SVG Version: 6.00 Build 0)  -->
<svg version="1.1" id="Layer_1" xmlns="http://www.w3.org/2000/svg" xmlns:xlink="http://www.w3.org/1999/xlink" x="0px" y="0px"
	 viewBox="0 0 985 974.5" style="enable-background:new 0 0 985 974.5;" xml:space="preserve">
<style type="text/css">
	.st0{fill:#F57F20;}
</style>
<g id="ee93b042-60b6-4b04-9e7c-1c0ecfa9c649">
	<g id="aea4980d-54b9-4bbf-a287-d78c8e41a73d">
		<g>
			<g>
				<path class="st0" d="M243.9,120.3c0,65.2,52.8,118,118,118l0-236C296.7,2.3,243.9,55.1,243.9,120.3z"/>
				<path class="st0" d="M241,120.3c0-65.2-52.8-118-118-118l0,236C188.2,238.2,241,185.4,241,120.3z"/>
			</g>
			<g>
				<path class="st0" d="M486.8,363.7c0,65.2,52.8,118,118,118l0-236C539.7,245.7,486.8,298.5,486.8,363.7z"/>
				<path class="st0" d="M483.9,363.7c0-65.2-52.8-118-118-118l0,236C431.1,481.7,483.9,428.8,483.9,363.7z"/>
			</g>
			<g>
				<path class="st0" d="M241,363.7c-65.2,0-118,52.8-118,118l236,0C359,416.5,306.2,363.7,241,363.7z"/>
				<path class="st0" d="M241,360.8c65.2,0,118-52.8,118-118l-236,0C123,308,175.9,360.8,241,360.8z"/>
			</g>
			<g>
				<path class="st0" d="M728.6,606.8c-65.2,0-118,52.8-118,118l236,0C846.6,659.6,793.8,606.8,728.6,606.8L728.6,606.8z"/>
				<path class="st0" d="M728.6,603.9c65.2,0,118-52.8,118-118l-236,0C610.6,551.1,663.4,603.9,728.6,603.9L728.6,603.9z"/>
			</g>
			<g>
				<path class="st0" d="M242.5,606.8c0,65.2,52.8,118,118,118l0-236C295.3,488.8,242.5,541.7,242.5,606.8
					C242.5,606.8,242.5,606.8,242.5,606.8z"/>
				<path class="st0" d="M239.6,606.8c0-65.2-52.8-118-118-118l0,236C186.7,724.8,239.6,672,239.6,606.8z"/>
			</g>
			<g>
				<path class="st0" d="M485.4,850.9c0,65.2,52.8,118,118,118l0-236C538.2,732.9,485.4,785.8,485.4,850.9L485.4,850.9z"/>
				<path class="st0" d="M482.5,851.9c0-65.2-52.8-118-118-118l0,236C429.7,969.9,482.5,917.1,482.5,851.9
					C482.5,851.9,482.5,851.9,482.5,851.9z"/>
			</g>
			<g>
				<path class="st0" d="M488.3,606.8c0,65.2,52.8,118,118,118l0-236C541.1,488.8,488.3,541.7,488.3,606.8L488.3,606.8z"/>
				<path class="st0" d="M485.4,606.8c0-65.2-52.8-118-118-118l0,236C432.6,724.8,485.4,672,485.4,606.8L485.4,606.8z"/>
			</g>
			<path class="st0" d="M726.2,120.3c0-65.2-52.8-118-118-118l0,236C673.3,238.2,726.2,185.4,726.2,120.3z"/>
			<path class="st0" d="M728.6,851.4c65.2,0,118-52.8,118-118l-236,0C610.6,798.6,663.4,851.4,728.6,851.4L728.6,851.4z"/>
			<g>
				<path class="st0" d="M485.4-0.6c-65.2,0-118,52.8-118,118l236,0C603.4,52.2,550.6-0.6,485.4-0.6C485.4-0.6,485.4-0.6,485.4-0.6z
					"/>
				<path class="st0" d="M485.4,120.3c-65.2,0-118,52.8-118,118l236,0C603.4,173.1,550.6,120.3,485.4,120.3z"/>
			</g>
			<g>
				<path class="st0" d="M359,852.9c0-65.2-52.8-118-118-118l0,236C306.2,970.9,359,918.1,359,852.9z"/>
				<path class="st0" d="M117.7,852.9c0,65.2,52.8,118,118,118l0-236C170.5,734.9,117.7,787.8,117.7,852.9z"/>
			</g>
			<g>
				<path class="st0" d="M847.8,363.7c0-65.2-52.8-118-118-118l0,236C795,481.7,847.8,428.8,847.8,363.7z"/>
				<path class="st0" d="M606.5,363.7c0,65.2,52.8,118,118,118l0-236C659.3,245.7,606.5,298.5,606.5,363.7z"/>
			</g>
		</g>
	</g>
</g>
<g>
	<g>
		<path class="st0" d="M971.4,851c0-65.1-52.8-117.9-118-117.9l0,235.8C918.6,968.9,971.4,916.1,971.4,851z"/>
	</g>
	<g>
		<path class="st0" d="M855.2,118.8c0,65.2,52.8,118,118,118l0-236C908,0.9,855.2,53.7,855.2,118.8z"/>
	</g>
</g>
<path class="st0" d="M973.2,241.4l-122,0c0,65.2,54.5,118,121.6,118c0.1,0,0.2,0,0.4,0V241.4z"/>
<path class="st0" d="M973.2,362.3c-0.1,0-0.2,0-0.4,0c-67.2,0-121.6,52.8-121.6,118l122,0V362.3z"/>
<path class="st0" d="M973.2,484.5c-0.1,0-0.2,0-0.4,0c-67.2,0-121.6,52.8-121.6,118l122,0V484.5z"/>
<path class="st0" d="M973.2,605.4c-0.1,0-0.2,0-0.4,0c-67.2,0-121.6,52.8-121.6,118l122,0V605.4z"/>
<path class="st0" d="M998,789.6c-11.1,18.2-17.6,39.7-17.6,62.7c0,23,6.4,44.5,17.6,62.7V789.6z"/>
<path class="st0" d="M998,606.8c-6.2-0.9-12.5-1.4-19-1.4v118h19V606.8z"/>
<path class="st0" d="M998,486c-6.2-0.9-12.5-1.4-19-1.4v118h19V486z"/>
<path class="st0" d="M998,363.7c-6.2-0.9-12.5-1.4-19-1.4v118h19V363.7z"/>
<path class="st0" d="M998,241.4h-19v118c6.5,0,12.8-0.5,19-1.4V241.4z"/>
<path class="st0" d="M998,2.4c-6.2-1-12.5-1.5-19-1.5l0,236c6.5,0,12.8-0.5,19-1.5V2.4z"/>
<g>
	<path class="st0" d="M113.5,732.9c-42.5,0-79.7,22.7-100.5,56.8v125.2c20.8,34.1,58,56.8,100.5,56.8L113.5,732.9z"/>
	<path class="st0" d="M8.3,599.7"/>
</g>
<path class="st0" d="M13,1.9v0.5v232.9v0.5c57.9-7.5,102.7-57,102.7-117c0,0,0,0,0,0C115.7,58.9,70.9,9.4,13,1.9z"/>
<path class="st0" d="M13,241.4L13,241.4v116.5c58.2-8.8,102.7-57.6,102.7-116.5L13,241.4z"/>
<path class="st0" d="M13,363.7v116.5l102.7,0C115.7,421.3,71.2,372.5,13,363.7z"/>
<path class="st0" d="M13,486v116.5l102.7,0C115.7,543.6,71.2,494.8,13,486z"/>
<path class="st0" d="M13,723.4l102.6,0c0-58.9-44.5-107.7-102.6-116.5V723.4z"/>
<path class="st0" d="M13.5,789.6C2.4,807.9-4.1,829.3-4.1,852.3c0,23,6.4,44.5,17.6,62.7V789.6z"/>
<path class="st0" d="M13.5,606.8c-6.2-0.9-12.5-1.4-19-1.4v118h19V606.8z"/>
<path class="st0" d="M13.5,486c-6.2-0.9-12.5-1.4-19-1.4v118h19V486z"/>
<path class="st0" d="M13.5,363.7c-6.2-0.9-12.5-1.4-19-1.4v118h19V363.7z"/>
<path class="st0" d="M13.5,241.4h-19v118c6.5,0,12.8-0.5,19-1.4V241.4z"/>
<path class="st0" d="M13.5,2.4C7.3,1.4,1,0.9-5.5,0.9l0,236c6.5,0,12.8-0.5,19-1.5V2.4z"/>
</svg>
