<?xml version="1.0" encoding="utf-8"?>
<!-- Generator: Adobe Illustrator 26.1.0, SVG Export Plug-In . SVG Version: 6.00 Build 0)  -->
<svg version="1.1" id="Layer_1" xmlns="http://www.w3.org/2000/svg" xmlns:xlink="http://www.w3.org/1999/xlink" x="0px" y="0px"
	 viewBox="0 0 973.8 972.5" style="enable-background:new 0 0 973.8 972.5;" xml:space="preserve">
<style type="text/css">
	.st0{fill:#EE4823;}
</style>
<g id="f5ae6dcc-099e-41e8-bf7a-3f2175347425">
	<g id="a9b2d1a4-18b9-4dfc-9184-2050f7924b92">
		<g>
			<g>
				<path class="st0" d="M61,854.3c0.8,30.1,26.7,57.8,56.6,59.3v-7C80.9,902.1,58.1,864.6,72,829c7.5-19.1,24.1-31.6,45.6-34.6
					v-7.3C83.2,791.2,60,817.9,61,854.3z"/>
				<path class="st0" d="M36,822.5c11.9-36.9,43.5-61.9,81.6-64.5v-7.4c-44.9,3-81.1,34.7-90.8,79.2c-12.9,59.4,31,117.4,90.8,120.4
					v-7.3c-0.2,0-0.5,0-0.7,0C58,938.5,17.9,878.9,36,822.5z"/>
				<path class="st0" d="M104.5,959.3c-57.3-10-97.4-64.6-90.2-122.2c6.4-53.2,49.9-94.1,103.3-97.4v-7c-7,0.4-14,1.4-20.9,3
					C36.9,750.2-1.9,808.2,7.6,867.9c8.9,55.8,54.3,96.9,110,100.4v-7.5C113.2,960.6,108.8,960.1,104.5,959.3z"/>
				<path class="st0" d="M80.4,862.5c4.8,17.6,18.9,30.1,37.2,33v-7.7c-8.4-1.4-16-5.7-21.6-12.1c-10.4-11.9-13.1-25.7-6.8-40.2
					c5.7-13.1,15.4-20.6,28.4-22.9v-7.3c-5.8,1-11.4,3-16.5,5.9C82.8,821.9,75,842.6,80.4,862.5z"/>
				<path class="st0" d="M98.8,859.5c3.3,9.1,9.6,14.9,18.8,17.2V869c-5.6-2-10-6.4-11.9-12c-3-8-1.3-15.8,5.2-20.8
					c2.1-1.5,4.3-2.8,6.7-3.7v-8.7c-14.6,3.8-23.3,18.8-19.5,33.4C98.3,858,98.5,858.8,98.8,859.5z"/>
				<path class="st0" d="M114.8,924.4c-42.1-4.1-73-48.4-63.6-89.6c7.3-31.7,33.9-55.3,66.3-58.7v-7.3
					c-24.8,1.7-45.3,13.4-59.8,34.4c-18.7,27-21,56.2-5.6,85.3c14,26.4,36.1,41.5,65.4,43.3v-7.1
					C116.7,924.6,115.7,924.5,114.8,924.4z"/>
			</g>
			<g>
				<path class="st0" d="M612.4,303c30.1-0.8,57.8-26.7,59.3-56.6h-7c-4.4,36.7-41.9,59.5-77.5,45.6c-19.1-7.5-31.6-24.1-34.6-45.6
					h-7.3C549.3,280.7,576,303.9,612.4,303z"/>
				<path class="st0" d="M580.6,327.9c-36.9-11.9-61.9-43.5-64.5-81.6h-7.4c3,44.9,34.7,81.1,79.2,90.8
					c59.4,12.9,117.4-31,120.4-90.8h-7.3c0,0.2,0,0.5,0,0.7C696.6,305.9,637,346,580.6,327.9z"/>
				<path class="st0" d="M717.4,259.4c-10,57.3-64.6,97.4-122.2,90.2c-53.2-6.4-94.1-49.9-97.4-103.3h-7c0.4,7,1.4,14,3,20.9
					c14.5,59.8,72.4,98.6,132.1,89.1c55.8-8.9,96.9-54.3,100.4-110h-7.5C718.6,250.7,718.2,255.1,717.4,259.4z"/>
				<path class="st0" d="M620.6,283.5c17.6-4.8,30.1-18.9,33-37.2H646c-1.4,8.4-5.7,16-12.1,21.6c-11.9,10.4-25.7,13.1-40.2,6.8
					c-13.1-5.7-20.6-15.4-22.9-28.4h-7.3c1,5.8,3,11.4,5.9,16.5C580,281.2,600.7,289,620.6,283.5z"/>
				<path class="st0" d="M617.6,265.1c9.1-3.3,14.9-9.6,17.2-18.8h-7.7c-2,5.6-6.4,10-12,11.9c-8,3-15.8,1.3-20.8-5.2
					c-1.5-2.1-2.8-4.3-3.7-6.7h-8.7c3.8,14.6,18.8,23.3,33.4,19.5C616.1,265.6,616.9,265.4,617.6,265.1z"/>
				<path class="st0" d="M682.5,249.1c-4.1,42.1-48.4,73-89.6,63.6c-31.7-7.3-55.3-33.9-58.7-66.3h-7.3
					c1.7,24.8,13.4,45.3,34.4,59.8c27,18.7,56.2,21,85.3,5.6c26.4-14,41.5-36.1,43.3-65.4h-7.1C682.6,247.2,682.6,248.2,682.5,249.1
					z"/>
			</g>
			<path class="st0" d="M852,355.5c65,0,117.8-49.8,117.8-111.3l-235.5,0C734.2,305.7,786.9,355.5,852,355.5z"/>
			<path class="st0" d="M852,846.2c65,0,117.8-49.8,117.8-111.3l-235.5,0C734.2,796.4,786.9,846.2,852,846.2z"/>
			<path class="st0" d="M608.6,5.4c-65,0-117.8,49.8-117.8,111.3l235.5,0C726.4,55.3,673.7,5.4,608.6,5.4z"/>
			<path class="st0" d="M608.6,124.7c-65,0-117.8,49.8-117.8,111.3l235.5,0C726.4,174.5,673.7,124.7,608.6,124.7z"/>
			<path class="st0" d="M608.6,365.9c-65,0-117.8,49.8-117.8,111.3l235.5,0C726.4,415.7,673.7,365.9,608.6,365.9z"/>
			<g>
				<path class="st0" d="M848.2,420.7c-30.1,0.8-57.8,26.7-59.3,56.6h7c4.4-36.7,41.9-59.5,77.5-45.6c19.1,7.5,31.6,24.1,34.6,45.6
					h7.3C911.4,442.9,884.6,419.8,848.2,420.7z"/>
				<path class="st0" d="M880,395.7c36.9,11.9,61.9,43.5,64.5,81.6h7.4c-3-44.9-34.7-81.1-79.2-90.8c-59.4-12.9-117.4,31-120.4,90.8
					h7.3c0-0.2,0-0.5,0-0.7C764,417.7,823.6,377.6,880,395.7z"/>
				<path class="st0" d="M743.2,464.2c10-57.3,64.6-97.4,122.2-90.2c53.2,6.4,94.1,49.9,97.4,103.3h7c-0.4-7-1.4-14-3-20.9
					c-14.5-59.8-72.4-98.6-132.1-89.1c-55.8,8.9-96.9,54.3-100.4,110h7.5C742,472.9,742.4,468.5,743.2,464.2z"/>
				<path class="st0" d="M840,440.1c-17.6,4.8-30.1,18.9-33,37.2h7.7c1.4-8.4,5.7-16,12.1-21.6c11.9-10.4,25.7-13.1,40.2-6.8
					c13.1,5.7,20.6,15.4,22.9,28.4h7.3c-1-5.8-3-11.4-5.9-16.5C880.7,442.5,859.9,434.7,840,440.1z"/>
				<path class="st0" d="M843,458.5c-9.1,3.3-14.9,9.6-17.2,18.8h7.7c2-5.6,6.4-10,12-11.9c8-3,15.8-1.3,20.8,5.2
					c1.5,2.1,2.8,4.3,3.7,6.7h8.7c-3.8-14.6-18.8-23.3-33.4-19.5C844.5,458,843.7,458.2,843,458.5z"/>
				<path class="st0" d="M778.1,474.5c4.1-42.1,48.4-73,89.6-63.6c31.7,7.3,55.3,33.9,58.7,66.3h7.3c-1.7-24.8-13.4-45.3-34.4-59.8
					c-27-18.7-56.2-21-85.3-5.6c-26.4,14-41.5,36.1-43.3,65.4h7.1C778,476.4,778,475.5,778.1,474.5z"/>
			</g>
			<path class="st0" d="M603.4,602.4c0-65-49.8-117.8-111.3-117.8l0,235.5C553.6,720.2,603.4,667.5,603.4,602.4z"/>
			<path class="st0" d="M608.6,846.2c65,0,117.8-49.8,117.8-111.3l-235.5,0C490.9,796.4,543.6,846.2,608.6,846.2z"/>
			<path class="st0" d="M608.6,966.2c65,0,117.8-49.8,117.8-111.3l-235.5,0C490.9,916.3,543.6,966.2,608.6,966.2z"/>
			<path class="st0" d="M358.8,850.7c0-65-49.8-117.8-111.3-117.8l0,235.5C309,968.5,358.8,915.7,358.8,850.7z"/>
			<g>
				<path class="st0" d="M668.5,606.2c0.8,30.1,26.7,57.8,56.6,59.3v-7c-36.7-4.4-59.5-41.9-45.6-77.5c7.5-19.1,24.1-31.6,45.6-34.6
					V539C690.7,543,667.6,569.8,668.5,606.2z"/>
				<path class="st0" d="M643.6,574.4c11.9-36.9,43.5-61.9,81.6-64.5v-7.4c-44.9,3-81.1,34.7-90.8,79.2
					C621.4,641,665.4,699,725.2,702v-7.3c-0.2,0-0.5,0-0.7,0C665.5,690.4,625.5,630.8,643.6,574.4z"/>
				<path class="st0" d="M712.1,711.2c-57.3-10-97.4-64.6-90.2-122.2c6.4-53.2,49.9-94.1,103.3-97.4v-7c-7,0.4-14,1.4-20.9,3
					c-59.8,14.5-98.6,72.4-89.1,132.1c8.9,55.8,54.3,96.9,110,100.4v-7.5C720.8,712.4,716.4,712,712.1,711.2z"/>
				<path class="st0" d="M688,614.4c4.8,17.6,18.9,30.1,37.2,33v-7.7c-8.4-1.4-16-5.7-21.6-12.1c-10.4-11.9-13.1-25.7-6.8-40.2
					c5.7-13.1,15.4-20.6,28.4-22.9v-7.3c-5.8,1-11.4,3-16.5,5.9C690.3,573.7,682.5,594.5,688,614.4z"/>
				<path class="st0" d="M706.4,611.4c3.3,9.1,9.6,14.9,18.8,17.2v-7.7c-5.6-2-10-6.4-11.9-12c-3-8-1.3-15.8,5.2-20.8
					c2.1-1.5,4.3-2.8,6.7-3.7v-8.7c-14.6,3.8-23.3,18.8-19.5,33.4C705.9,609.9,706.1,610.7,706.4,611.4z"/>
				<path class="st0" d="M722.4,676.3c-42.1-4.1-73-48.4-63.6-89.6c7.3-31.7,33.9-55.3,66.3-58.7v-7.3
					c-24.8,1.7-45.3,13.4-59.8,34.4c-18.7,27-21,56.2-5.6,85.3c14,26.4,36.1,41.5,65.4,43.3v-7.1
					C724.2,676.4,723.3,676.4,722.4,676.3z"/>
			</g>
			<g>
				<path class="st0" d="M790.9,599.4c-0.8-30.1-26.7-57.8-56.6-59.3v7c36.7,4.4,59.5,41.9,45.6,77.5c-7.5,19.1-24.1,31.6-45.6,34.6
					v7.3C768.6,662.5,791.8,635.7,790.9,599.4z"/>
				<path class="st0" d="M815.8,631.2c-11.9,36.9-43.5,61.9-81.6,64.5v7.4c44.9-3,81.1-34.7,90.8-79.2
					c12.9-59.4-31-117.4-90.8-120.4v7.3c0.2,0,0.5,0,0.7,0C793.9,515.2,833.9,574.8,815.8,631.2z"/>
				<path class="st0" d="M747.3,494.3c57.3,10,97.4,64.6,90.2,122.2c-6.4,53.2-49.9,94.1-103.3,97.4v7c7-0.4,14-1.4,20.9-3
					c59.8-14.5,98.6-72.4,89.1-132.1c-8.9-55.8-54.3-96.9-110-100.4v7.5C738.6,493.1,743,493.6,747.3,494.3z"/>
				<path class="st0" d="M771.4,591.1c-4.8-17.6-18.9-30.1-37.2-33v7.7c8.4,1.4,16,5.7,21.6,12.1c10.4,11.9,13.1,25.7,6.8,40.2
					c-5.7,13.1-15.4,20.6-28.4,22.9v7.3c5.8-1,11.4-3,16.5-5.9C769.1,631.8,776.9,611.1,771.4,591.1z"/>
				<path class="st0" d="M753,594.2c-3.3-9.1-9.6-14.9-18.8-17.2v7.7c5.6,2,10,6.4,11.9,12c3,8,1.3,15.8-5.2,20.8
					c-2.1,1.5-4.3,2.8-6.7,3.7v8.7c14.6-3.8,23.3-18.8,19.5-33.4C753.5,595.7,753.3,594.9,753,594.2z"/>
				<path class="st0" d="M737,529.3c42.1,4.1,73,48.4,63.6,89.6c-7.3,31.7-33.9,55.3-66.3,58.7v7.3c24.8-1.7,45.3-13.4,59.8-34.4
					c18.7-27,21-56.2,5.6-85.3c-14-26.4-36.1-41.5-65.4-43.3v7.1C735.2,529.1,736.1,529.2,737,529.3z"/>
			</g>
			<g>
				<path class="st0" d="M793.3,117c-0.8-30.1-26.7-57.8-56.6-59.3v7c36.7,4.4,59.5,41.9,45.6,77.5c-7.5,19.1-24.1,31.6-45.6,34.6
					v7.3C771.1,180.1,794.2,153.4,793.3,117z"/>
				<path class="st0" d="M818.2,148.8c-11.9,36.9-43.5,61.9-81.6,64.5v7.4c44.9-3,81.1-34.7,90.8-79.2
					c12.9-59.4-31-117.4-90.8-120.4v7.3c0.2,0,0.5,0,0.7,0C796.3,32.8,836.3,92.4,818.2,148.8z"/>
				<path class="st0" d="M749.8,11.9c57.3,10,97.4,64.6,90.2,122.2c-6.4,53.2-49.9,94.1-103.3,97.4v7c7-0.4,14-1.4,20.9-3
					c59.8-14.5,98.6-72.4,89.1-132.1C837.8,47.6,792.3,6.5,736.7,3v7.5C741,10.7,745.4,11.2,749.8,11.9z"/>
				<path class="st0" d="M773.8,108.8c-4.8-17.6-18.9-30.1-37.2-33v7.7c8.4,1.4,16,5.7,21.6,12.1c10.4,11.9,13.1,25.7,6.8,40.2
					c-5.7,13.1-15.4,20.6-28.4,22.9v7.3c5.8-1,11.4-3,16.5-5.9C771.5,149.4,779.3,128.7,773.8,108.8z"/>
				<path class="st0" d="M755.5,111.8c-3.3-9.1-9.6-14.9-18.8-17.2v7.7c5.6,2,10,6.4,11.9,12c3,8,1.3,15.8-5.2,20.8
					c-2.1,1.5-4.3,2.8-6.7,3.7v8.7c14.6-3.8,23.3-18.8,19.5-33.4C756,113.3,755.7,112.5,755.5,111.8z"/>
				<path class="st0" d="M739.4,46.9c42.1,4.1,73,48.4,63.6,89.6c-7.3,31.7-33.9,55.3-66.3,58.7v7.3c24.8-1.7,45.3-13.4,59.8-34.4
					c18.7-27,21-56.2,5.6-85.3c-14-26.4-36.1-41.5-65.4-43.3v7.1C737.6,46.7,738.5,46.8,739.4,46.9z"/>
			</g>
			<g>
				<path class="st0" d="M913.1,606.9c0.8,30.1,26.7,57.8,56.6,59.3v-7c-36.7-4.4-59.5-41.9-45.6-77.5c7.5-19.1,24.1-31.6,45.6-34.6
					v-7.3C935.3,543.8,912.2,570.6,913.1,606.9z"/>
				<path class="st0" d="M888.2,575.1c11.9-36.9,43.5-61.9,81.6-64.5v-7.4c-44.9,3-81.1,34.7-90.8,79.2
					c-12.9,59.4,31,117.4,90.8,120.4v-7.3c-0.2,0-0.5,0-0.7,0C910.1,691.1,870.1,631.5,888.2,575.1z"/>
				<path class="st0" d="M956.6,712c-57.3-10-97.4-64.6-90.2-122.2c6.4-53.2,49.9-94.1,103.3-97.4v-7c-7,0.4-14,1.4-20.9,3
					c-59.8,14.5-98.6,72.4-89.1,132.1c8.9,55.8,54.3,96.9,110,100.4v-7.5C965.4,713.2,961,712.7,956.6,712z"/>
				<path class="st0" d="M932.6,615.2c4.8,17.6,18.9,30.1,37.2,33v-7.7c-8.4-1.4-16-5.7-21.6-12.1c-10.4-11.9-13.1-25.7-6.8-40.2
					c5.7-13.1,15.4-20.6,28.4-22.9v-7.3c-5.8,1-11.4,3-16.5,5.9C934.9,574.5,927.1,595.2,932.6,615.2z"/>
				<path class="st0" d="M950.9,612.1c3.3,9.1,9.6,14.9,18.8,17.2v-7.7c-5.6-2-10-6.4-11.9-12c-3-8-1.3-15.8,5.2-20.8
					c2.1-1.5,4.3-2.8,6.7-3.7v-8.7c-14.6,3.8-23.3,18.8-19.5,33.4C950.4,610.6,950.7,611.4,950.9,612.1z"/>
				<path class="st0" d="M967,677c-42.1-4.1-73-48.4-63.6-89.6c7.3-31.7,33.9-55.3,66.3-58.7v-7.3c-24.8,1.7-45.3,13.4-59.8,34.4
					c-18.7,27-21,56.2-5.6,85.3c14,26.4,36.1,41.5,65.4,43.3v-7.1C968.8,677.2,967.9,677.1,967,677z"/>
			</g>
			<g>
				<path class="st0" d="M125.6,303c30.1-0.8,57.8-26.7,59.3-56.6h-7c-4.4,36.7-41.9,59.5-77.5,45.6c-19.1-7.5-31.6-24.1-34.6-45.6
					h-7.3C62.5,280.7,89.3,303.9,125.6,303z"/>
				<path class="st0" d="M93.8,327.9c-36.9-11.9-61.9-43.5-64.5-81.6h-7.4c3,44.9,34.7,81.1,79.2,90.8
					c59.4,12.9,117.4-31,120.4-90.8h-7.3c0,0.2,0,0.5,0,0.7C209.8,305.9,150.2,346,93.8,327.9z"/>
				<path class="st0" d="M230.7,259.4c-10,57.3-64.6,97.4-122.2,90.2c-53.2-6.4-94.1-49.9-97.4-103.3h-7c0.4,7,1.4,14,3,20.9
					c14.5,59.8,72.4,98.6,132.1,89.1c55.8-8.9,96.9-54.3,100.4-110h-7.5C231.9,250.7,231.4,255.1,230.7,259.4z"/>
				<path class="st0" d="M133.9,283.5c17.6-4.8,30.1-18.9,33-37.2h-7.7c-1.4,8.4-5.7,16-12.1,21.6c-11.9,10.4-25.7,13.1-40.2,6.8
					c-13.1-5.7-20.6-15.4-22.9-28.4h-7.3c1,5.8,3,11.4,5.9,16.5C93.2,281.2,113.9,289,133.9,283.5z"/>
				<path class="st0" d="M130.9,265.1c9.1-3.3,14.9-9.6,17.2-18.8h-7.7c-2,5.6-6.4,10-12,11.9c-8,3-15.8,1.3-20.8-5.2
					c-1.5-2.1-2.8-4.3-3.7-6.7h-8.7c3.8,14.6,18.8,23.3,33.4,19.5C129.4,265.6,130.1,265.4,130.9,265.1z"/>
				<path class="st0" d="M195.7,249.1c-4.1,42.1-48.4,73-89.6,63.6c-31.7-7.3-55.3-33.9-58.7-66.3H40c1.7,24.8,13.4,45.3,34.4,59.8
					c27,18.7,56.2,21,85.3,5.6c26.4-14,41.5-36.1,43.3-65.4H196C195.9,247.2,195.8,248.2,195.7,249.1z"/>
			</g>
			<path class="st0" d="M480.6,120.8C480.6,55.7,430.7,3,369.3,3l0,235.5C430.7,238.5,480.6,185.8,480.6,120.8z"/>
			<path class="st0" d="M115.3,605.4c0-65-49.8-117.8-111.3-117.8l0,235.5C65.5,723.2,115.3,670.4,115.3,605.4z"/>
			<path class="st0" d="M365.2,355.5c65,0,117.8-49.8,117.8-111.3l-235.5,0C247.5,305.7,300.2,355.5,365.2,355.5z"/>
			<path class="st0" d="M369.7,850.4c0,65,49.8,117.8,111.3,117.8l0-235.5C419.6,732.6,369.7,785.3,369.7,850.4z"/>
			<path class="st0" d="M121.9,5.4C56.8,5.4,4.1,55.3,4.1,116.7l235.5,0C239.6,55.3,186.9,5.4,121.9,5.4z"/>
			<path class="st0" d="M121.9,124.7c-65,0-117.8,49.8-117.8,111.3l235.5,0C239.6,174.5,186.9,124.7,121.9,124.7z"/>
			<path class="st0" d="M121.9,365.9c-65,0-117.8,49.8-117.8,111.3l235.5,0C239.6,415.7,186.9,365.9,121.9,365.9z"/>
			<g>
				<path class="st0" d="M361.5,420.7c-30.1,0.8-57.8,26.7-59.3,56.6h7c4.4-36.7,41.9-59.5,77.5-45.6c19.1,7.5,31.6,24.1,34.6,45.6
					h7.3C424.6,442.9,397.8,419.8,361.5,420.7z"/>
				<path class="st0" d="M393.3,395.7c36.9,11.9,61.9,43.5,64.5,81.6h7.4c-3-44.9-34.7-81.1-79.2-90.8
					c-59.4-12.9-117.4,31-120.4,90.8h7.3c0-0.2,0-0.5,0-0.7C277.3,417.7,336.9,377.6,393.3,395.7z"/>
				<path class="st0" d="M256.4,464.2c10-57.3,64.6-97.4,122.2-90.2c53.2,6.4,94.1,49.9,97.4,103.3h7c-0.4-7-1.4-14-3-20.9
					c-14.5-59.8-72.4-98.6-132.1-89.1c-55.8,8.9-96.9,54.3-100.4,110h7.5C255.2,472.9,255.7,468.5,256.4,464.2z"/>
				<path class="st0" d="M353.2,440.1c-17.6,4.8-30.1,18.9-33,37.2h7.7c1.4-8.4,5.7-16,12.1-21.6c11.9-10.4,25.7-13.1,40.2-6.8
					c13.1,5.7,20.6,15.4,22.9,28.4h7.3c-1-5.8-3-11.4-5.9-16.5C393.9,442.5,373.2,434.7,353.2,440.1z"/>
				<path class="st0" d="M356.3,458.5c-9.1,3.3-14.9,9.6-17.2,18.8h7.7c2-5.6,6.4-10,12-11.9c8-3,15.8-1.3,20.8,5.2
					c1.5,2.1,2.8,4.3,3.7,6.7h8.7c-3.8-14.6-18.8-23.3-33.4-19.5C357.8,458,357,458.2,356.3,458.5z"/>
				<path class="st0" d="M291.4,474.5c4.1-42.1,48.4-73,89.6-63.6c31.7,7.3,55.3,33.9,58.7,66.3h7.3c-1.7-24.8-13.4-45.3-34.4-59.8
					c-27-18.7-56.2-21-85.3-5.6c-26.4,14-41.5,36.1-43.3,65.4h7.1C291.2,476.4,291.3,475.5,291.4,474.5z"/>
			</g>
			<path class="st0" d="M126.2,850.5c0,65,49.8,117.8,111.3,117.8l0-235.5C176.1,732.8,126.2,785.5,126.2,850.5z"/>
			<g>
				<path class="st0" d="M181.8,606.2c0.8,30.1,26.7,57.8,56.6,59.3v-7c-36.7-4.4-59.5-41.9-45.6-77.5c7.5-19.1,24.1-31.6,45.6-34.6
					V539C204,543,180.9,569.8,181.8,606.2z"/>
				<path class="st0" d="M156.8,574.4c11.9-36.9,43.5-61.9,81.6-64.5v-7.4c-44.9,3-81.1,34.7-90.8,79.2
					C134.7,641,178.7,699,238.4,702v-7.3c-0.2,0-0.5,0-0.7,0C178.8,690.4,138.7,630.8,156.8,574.4z"/>
				<path class="st0" d="M225.3,711.2c-57.3-10-97.4-64.6-90.2-122.2c6.4-53.2,49.9-94.1,103.3-97.4v-7c-7,0.4-14,1.4-20.9,3
					c-59.8,14.5-98.6,72.4-89.1,132.1c8.9,55.8,54.3,96.9,110,100.4v-7.5C234,712.4,229.7,712,225.3,711.2z"/>
				<path class="st0" d="M201.3,614.4c4.8,17.6,18.9,30.1,37.2,33v-7.7c-8.4-1.4-16-5.7-21.6-12.1c-10.4-11.9-13.1-25.7-6.8-40.2
					c5.7-13.1,15.4-20.6,28.4-22.9v-7.3c-5.8,1-11.4,3-16.5,5.9C203.6,573.7,195.8,594.5,201.3,614.4z"/>
				<path class="st0" d="M219.6,611.4c3.3,9.1,9.6,14.9,18.8,17.2v-7.7c-5.6-2-10-6.4-11.9-12c-3-8-1.3-15.8,5.2-20.8
					c2.1-1.5,4.3-2.8,6.7-3.7v-8.7c-14.6,3.8-23.3,18.8-19.5,33.4C219.1,609.9,219.3,610.7,219.6,611.4z"/>
				<path class="st0" d="M235.6,676.3c-42.1-4.1-73-48.4-63.6-89.6c7.3-31.7,33.9-55.3,66.3-58.7v-7.3
					c-24.8,1.7-45.3,13.4-59.8,34.4c-18.7,27-21,56.2-5.6,85.3c14,26.4,36.1,41.5,65.4,43.3v-7.1
					C237.5,676.4,236.6,676.4,235.6,676.3z"/>
			</g>
			<g>
				<path class="st0" d="M369,542c30.1-0.8,57.8-26.7,59.3-56.6h-7c-4.4,36.7-41.9,59.5-77.5,45.6c-19.1-7.5-31.6-24.1-34.6-45.6
					h-7.3C305.9,519.8,332.7,542.9,369,542z"/>
				<path class="st0" d="M337.2,567c-36.9-11.9-61.9-43.5-64.5-81.6h-7.4c3,44.9,34.7,81.1,79.2,90.8c59.4,12.9,117.4-31,120.4-90.8
					h-7.3c0,0.2,0,0.5,0,0.7C453.2,545,393.6,585.1,337.2,567z"/>
				<path class="st0" d="M474.1,498.5c-10,57.3-64.6,97.4-122.2,90.2c-53.2-6.4-94.1-49.9-97.4-103.3h-7c0.4,7,1.4,14,3,20.9
					c14.5,59.8,72.4,98.6,132.1,89.1c55.8-8.9,96.9-54.3,100.4-110h-7.5C475.3,489.8,474.8,494.2,474.1,498.5z"/>
				<path class="st0" d="M377.3,522.6c17.6-4.8,30.1-18.9,33-37.2h-7.7c-1.4,8.4-5.7,16-12.1,21.6c-11.9,10.4-25.7,13.1-40.2,6.8
					c-13.1-5.7-20.6-15.4-22.9-28.4h-7.3c1,5.8,3,11.4,5.9,16.5C336.6,520.2,357.3,528,377.3,522.6z"/>
				<path class="st0" d="M374.2,504.2c9.1-3.3,14.9-9.6,17.2-18.8h-7.7c-2,5.6-6.4,10-12,11.9c-8,3-15.8,1.3-20.8-5.2
					c-1.5-2.1-2.8-4.3-3.7-6.7h-8.7c3.8,14.6,18.8,23.3,33.4,19.5C372.7,504.7,373.5,504.5,374.2,504.2z"/>
				<path class="st0" d="M439.1,488.2c-4.1,42.1-48.4,73-89.6,63.6c-31.7-7.3-55.3-33.9-58.7-66.3h-7.3
					c1.7,24.8,13.4,45.3,34.4,59.8c27,18.7,56.2,21,85.3,5.6c26.4-14,41.5-36.1,43.3-65.4h-7.1C439.3,486.3,439.2,487.2,439.1,488.2
					z"/>
			</g>
			<g>
				<path class="st0" d="M306.6,117c-0.8-30.1-26.7-57.8-56.6-59.3v7c36.7,4.4,59.5,41.9,45.6,77.5c-7.5,19.1-24.1,31.6-45.6,34.6
					v7.3C284.3,180.1,307.5,153.4,306.6,117z"/>
				<path class="st0" d="M331.5,148.8c-11.9,36.9-43.5,61.9-81.6,64.5v7.4c44.9-3,81.1-34.7,90.8-79.2
					c12.9-59.4-31-117.4-90.8-120.4v7.3c0.2,0,0.5,0,0.7,0C309.5,32.8,349.6,92.4,331.5,148.8z"/>
				<path class="st0" d="M263,11.9c57.3,10,97.4,64.6,90.2,122.2c-6.4,53.2-49.9,94.1-103.3,97.4v7c7-0.4,14-1.4,20.9-3
					c59.8-14.5,98.6-72.4,89.1-132.1C351.1,47.6,305.6,6.5,249.9,3v7.5C254.3,10.7,258.7,11.2,263,11.9z"/>
				<path class="st0" d="M287.1,108.7c-4.8-17.6-18.9-30.1-37.2-33v7.7c8.4,1.4,16,5.7,21.6,12.1c10.4,11.9,13.1,25.7,6.8,40.2
					c-5.7,13.1-15.4,20.6-28.4,22.9v7.3c5.8-1,11.4-3,16.5-5.9C284.8,149.4,292.6,128.7,287.1,108.7z"/>
				<path class="st0" d="M268.7,111.8c-3.3-9.1-9.6-14.9-18.8-17.2v7.7c5.6,2,10,6.4,11.9,12c3,8,1.3,15.8-5.2,20.8
					c-2.1,1.5-4.3,2.8-6.7,3.7v8.7c14.6-3.8,23.3-18.8,19.5-33.4C269.2,113.3,269,112.5,268.7,111.8z"/>
				<path class="st0" d="M252.7,46.9c42.1,4.1,73,48.4,63.6,89.6c-7.3,31.7-33.9,55.3-66.3,58.7v7.3c24.8-1.7,45.3-13.4,59.8-34.4
					c18.7-27,21-56.2,5.6-85.3c-14-26.4-36.1-41.5-65.4-43.3v7.1C250.8,46.7,251.8,46.8,252.7,46.9z"/>
			</g>
			<g>
				<path class="st0" d="M361.5,664.3c-30.1,0.8-57.8,26.7-59.3,56.6h7c4.4-36.7,41.9-59.5,77.5-45.6c19.1,7.5,31.6,24.1,34.6,45.6
					h7.3C424.6,686.5,397.8,663.4,361.5,664.3z"/>
				<path class="st0" d="M393.3,639.3c36.9,11.9,61.9,43.5,64.5,81.6h7.4c-3-44.9-34.7-81.1-79.2-90.8
					c-59.4-12.9-117.4,31-120.4,90.8h7.3c0-0.2,0-0.5,0-0.7C277.3,661.3,336.9,621.2,393.3,639.3z"/>
				<path class="st0" d="M256.4,707.8c10-57.3,64.6-97.4,122.2-90.2c53.2,6.4,94.1,49.9,97.4,103.3h7c-0.4-7-1.4-14-3-20.9
					c-14.5-59.8-72.4-98.6-132.1-89.1c-55.8,8.9-96.9,54.3-100.4,110h7.5C255.2,716.5,255.7,712.1,256.4,707.8z"/>
				<path class="st0" d="M353.2,683.8c-17.6,4.8-30.1,18.9-33,37.2h7.7c1.4-8.4,5.7-16,12.1-21.6c11.9-10.4,25.7-13.1,40.2-6.8
					c13.1,5.7,20.6,15.4,22.9,28.4h7.3c-1-5.8-3-11.4-5.9-16.5C393.9,686.1,373.2,678.3,353.2,683.8z"/>
				<path class="st0" d="M356.3,702.1c-9.1,3.3-14.9,9.6-17.2,18.8h7.7c2-5.6,6.4-10,12-11.9c8-3,15.8-1.3,20.8,5.2
					c1.5,2.1,2.8,4.3,3.7,6.7h8.7c-3.8-14.6-18.8-23.3-33.4-19.5C357.8,701.6,357,701.8,356.3,702.1z"/>
				<path class="st0" d="M291.4,718.1c4.1-42.1,48.4-73,89.6-63.6c31.7,7.3,55.3,33.9,58.7,66.3h7.3c-1.7-24.8-13.4-45.3-34.4-59.8
					c-27-18.7-56.2-21-85.3-5.6c-26.4,14-41.5,36.1-43.3,65.4h7.1C291.2,720,291.3,719.1,291.4,718.1z"/>
			</g>
		</g>
	</g>
</g>
</svg>
