<svg xmlns="http://www.w3.org/2000/svg" width="392.34357" height="459.01452" viewBox="0 0 392.34357 459.01452"><title>Asset 1</title><rect width="17.56539" height="17.56539" fill="#ee00f1"/><rect x="34.88926" width="17.56539" height="17.56539" fill="#ee00f1"/><rect x="68.65306" width="17.56539" height="17.56539" fill="#ee00f1"/><rect x="103.54232" width="17.56539" height="17.56539" fill="#ee00f1"/><rect x="136.18066" width="17.56539" height="17.56539" fill="#ee00f1"/><rect x="171.06992" width="17.56539" height="17.56539" fill="#ee00f1"/><rect x="204.83372" width="17.56539" height="17.56539" fill="#ee00f1"/><rect x="239.72299" width="17.56539" height="17.56539" fill="#ee00f1"/><rect x="271.23587" width="17.56539" height="17.56539" fill="#ee00f1"/><rect x="306.12513" width="17.56539" height="17.56539" fill="#ee00f1"/><rect x="339.88893" width="17.56539" height="17.56539" fill="#ee00f1"/><rect x="374.77819" width="17.56539" height="17.56539" fill="#ee00f1"/><rect y="29.96592" width="17.56539" height="17.56539" fill="#ee00f1"/><rect x="34.88926" y="29.96592" width="17.56539" height="17.56539" fill="#ee00f1"/><rect x="68.65306" y="29.96592" width="17.56539" height="17.56539" fill="#ee00f1"/><rect x="103.54232" y="29.96592" width="17.56539" height="17.56539" fill="#ee00f1"/><rect x="136.18066" y="29.96592" width="17.56539" height="17.56539" fill="#ee00f1"/><rect x="171.06992" y="29.96592" width="17.56539" height="17.56539" fill="#ee00f1"/><rect x="204.83372" y="29.96592" width="17.56539" height="17.56539" fill="#ee00f1"/><rect x="239.72299" y="29.96592" width="17.56539" height="17.56539" fill="#ee00f1"/><rect x="271.23587" y="29.96592" width="17.56539" height="17.56539" fill="#ee00f1"/><rect x="306.12513" y="29.96592" width="17.56539" height="17.56539" fill="#ee00f1"/><rect x="339.88893" y="29.96592" width="17.56539" height="17.56539" fill="#ee00f1"/><rect x="374.77819" y="29.96592" width="17.56539" height="17.56539" fill="#ee00f1"/><rect y="59.93184" width="17.56539" height="17.56539" fill="#ee00f1"/><rect x="34.88926" y="59.93184" width="17.56539" height="17.56539" fill="#ee00f1"/><rect x="68.65306" y="59.93184" width="17.56539" height="17.56539" fill="#ee00f1"/><rect x="103.54232" y="59.93184" width="17.56539" height="17.56539" fill="#ee00f1"/><rect x="136.18066" y="59.93184" width="17.56539" height="17.56539" fill="#ee00f1"/><rect x="171.06992" y="59.93184" width="17.56539" height="17.56539" fill="#ee00f1"/><rect x="204.83372" y="59.93184" width="17.56539" height="17.56539" fill="#ee00f1"/><rect x="239.72299" y="59.93184" width="17.56539" height="17.56539" fill="#ee00f1"/><rect x="271.23587" y="59.93184" width="17.56539" height="17.56539" fill="#ee00f1"/><rect x="306.12513" y="59.93184" width="17.56539" height="17.56539" fill="#ee00f1"/><rect x="339.88893" y="59.93184" width="17.56539" height="17.56539" fill="#ee00f1"/><rect x="374.77819" y="59.93184" width="17.56539" height="17.56539" fill="#ee00f1"/><rect y="89.89775" width="17.56539" height="17.56539" fill="#ee00f1"/><rect x="34.88926" y="89.89775" width="17.56539" height="17.56539" fill="#ee00f1"/><rect x="68.65306" y="89.89775" width="17.56539" height="17.56539" fill="#ee00f1"/><rect x="103.54232" y="89.89775" width="17.56539" height="17.56539" fill="#ee00f1"/><rect x="136.18066" y="89.89775" width="17.56539" height="17.56539" fill="#ee00f1"/><rect x="171.06992" y="89.89775" width="17.56539" height="17.56539" fill="#ee00f1"/><rect x="204.83372" y="89.89775" width="17.56539" height="17.56539" fill="#ee00f1"/><rect x="239.72299" y="89.89775" width="17.56539" height="17.56539" fill="#ee00f1"/><rect x="271.23587" y="89.89775" width="17.56539" height="17.56539" fill="#ee00f1"/><rect x="306.12513" y="89.89775" width="17.56539" height="17.56539" fill="#ee00f1"/><rect x="339.88893" y="89.89775" width="17.56539" height="17.56539" fill="#ee00f1"/><rect x="374.77819" y="89.89775" width="17.56539" height="17.56539" fill="#ee00f1"/><rect y="116.94017" width="17.56539" height="17.56539" fill="#ee00f1"/><rect x="34.88926" y="116.94017" width="17.56539" height="17.56539" fill="#ee00f1"/><rect x="68.65306" y="116.94017" width="17.56539" height="17.56539" fill="#ee00f1"/><rect x="103.54232" y="116.94017" width="17.56539" height="17.56539" fill="#ee00f1"/><rect x="136.18066" y="116.94017" width="17.56539" height="17.56539" fill="#ee00f1"/><rect x="171.06992" y="116.94017" width="17.56539" height="17.56539" fill="#ee00f1"/><rect x="204.83372" y="116.94017" width="17.56539" height="17.56539" fill="#ee00f1"/><rect x="239.72299" y="116.94017" width="17.56539" height="17.56539" fill="#ee00f1"/><rect x="271.23587" y="116.94017" width="17.56539" height="17.56539" fill="#ee00f1"/><rect x="306.12513" y="116.94017" width="17.56539" height="17.56539" fill="#ee00f1"/><rect x="339.88893" y="116.94017" width="17.56539" height="17.56539" fill="#ee00f1"/><rect x="374.77819" y="116.94017" width="17.56539" height="17.56539" fill="#ee00f1"/><rect y="146.90609" width="17.56539" height="17.56539" fill="#ee00f1"/><rect x="34.88926" y="146.90609" width="17.56539" height="17.56539" fill="#ee00f1"/><rect x="68.65306" y="146.90609" width="17.56539" height="17.56539" fill="#ee00f1"/><rect x="103.54232" y="146.90609" width="17.56539" height="17.56539" fill="#ee00f1"/><rect x="136.18066" y="146.90609" width="17.56539" height="17.56539" fill="#ee00f1"/><rect x="171.06992" y="146.90609" width="17.56539" height="17.56539" fill="#ee00f1"/><rect x="204.83372" y="146.90609" width="17.56539" height="17.56539" fill="#ee00f1"/><rect x="239.72299" y="146.90609" width="17.56539" height="17.56539" fill="#ee00f1"/><rect x="271.23587" y="146.90609" width="17.56539" height="17.56539" fill="#ee00f1"/><rect x="306.12513" y="146.90609" width="17.56539" height="17.56539" fill="#ee00f1"/><rect x="339.88893" y="146.90609" width="17.56539" height="17.56539" fill="#ee00f1"/><rect x="374.77819" y="146.90609" width="17.56539" height="17.56539" fill="#ee00f1"/><rect y="176.87201" width="17.56539" height="17.56539" fill="#ee00f1"/><rect x="34.88926" y="176.87201" width="17.56539" height="17.56539" fill="#ee00f1"/><rect x="68.65306" y="176.87201" width="17.56539" height="17.56539" fill="#ee00f1"/><rect x="103.54232" y="176.87201" width="17.56539" height="17.56539" fill="#ee00f1"/><rect x="136.18066" y="176.87201" width="17.56539" height="17.56539" fill="#ee00f1"/><rect x="171.06992" y="176.87201" width="17.56539" height="17.56539" fill="#ee00f1"/><rect x="204.83372" y="176.87201" width="17.56539" height="17.56539" fill="#ee00f1"/><rect x="239.72299" y="176.87201" width="17.56539" height="17.56539" fill="#ee00f1"/><rect x="271.23587" y="176.87201" width="17.56539" height="17.56539" fill="#ee00f1"/><rect x="306.12513" y="176.87201" width="17.56539" height="17.56539" fill="#ee00f1"/><rect x="339.88893" y="176.87201" width="17.56539" height="17.56539" fill="#ee00f1"/><rect x="374.77819" y="176.87201" width="17.56539" height="17.56539" fill="#ee00f1"/><rect y="206.83792" width="17.56539" height="17.56539" fill="#ee00f1"/><rect x="34.88926" y="206.83792" width="17.56539" height="17.56539" fill="#ee00f1"/><rect x="68.65306" y="206.83792" width="17.56539" height="17.56539" fill="#ee00f1"/><rect x="103.54232" y="206.83792" width="17.56539" height="17.56539" fill="#ee00f1"/><rect x="136.18066" y="206.83792" width="17.56539" height="17.56539" fill="#ee00f1"/><rect x="171.06992" y="206.83792" width="17.56539" height="17.56539" fill="#ee00f1"/><rect x="204.83372" y="206.83792" width="17.56539" height="17.56539" fill="#ee00f1"/><rect x="239.72299" y="206.83792" width="17.56539" height="17.56539" fill="#ee00f1"/><rect x="271.23587" y="206.83792" width="17.56539" height="17.56539" fill="#ee00f1"/><rect x="306.12513" y="206.83792" width="17.56539" height="17.56539" fill="#ee00f1"/><rect x="339.88893" y="206.83792" width="17.56539" height="17.56539" fill="#ee00f1"/><rect x="374.77819" y="206.83792" width="17.56539" height="17.56539" fill="#ee00f1"/><rect y="234.61121" width="17.56539" height="17.56539" fill="#ee00f1"/><rect x="34.88926" y="234.61121" width="17.56539" height="17.56539" fill="#ee00f1"/><rect x="68.65306" y="234.61121" width="17.56539" height="17.56539" fill="#ee00f1"/><rect x="103.54232" y="234.61121" width="17.56539" height="17.56539" fill="#ee00f1"/><rect x="136.18066" y="234.61121" width="17.56539" height="17.56539" fill="#ee00f1"/><rect x="171.06992" y="234.61121" width="17.56539" height="17.56539" fill="#ee00f1"/><rect x="204.83372" y="234.61121" width="17.56539" height="17.56539" fill="#ee00f1"/><rect x="239.72299" y="234.61121" width="17.56539" height="17.56539" fill="#ee00f1"/><rect x="271.23587" y="234.61121" width="17.56539" height="17.56539" fill="#ee00f1"/><rect x="306.12513" y="234.61121" width="17.56539" height="17.56539" fill="#ee00f1"/><rect x="339.88893" y="234.61121" width="17.56539" height="17.56539" fill="#ee00f1"/><rect x="374.77819" y="234.61121" width="17.56539" height="17.56539" fill="#ee00f1"/><rect y="264.57713" width="17.56539" height="17.56539" fill="#ee00f1"/><rect x="34.88926" y="264.57713" width="17.56539" height="17.56539" fill="#ee00f1"/><rect x="68.65306" y="264.57713" width="17.56539" height="17.56539" fill="#ee00f1"/><rect x="103.54232" y="264.57713" width="17.56539" height="17.56539" fill="#ee00f1"/><rect x="136.18066" y="264.57713" width="17.56539" height="17.56539" fill="#ee00f1"/><rect x="171.06992" y="264.57713" width="17.56539" height="17.56539" fill="#ee00f1"/><rect x="204.83372" y="264.57713" width="17.56539" height="17.56539" fill="#ee00f1"/><rect x="239.72299" y="264.57713" width="17.56539" height="17.56539" fill="#ee00f1"/><rect x="271.23587" y="264.57713" width="17.56539" height="17.56539" fill="#ee00f1"/><rect x="306.12513" y="264.57713" width="17.56539" height="17.56539" fill="#ee00f1"/><rect x="339.88893" y="264.57713" width="17.56539" height="17.56539" fill="#ee00f1"/><rect x="374.77819" y="264.57713" width="17.56539" height="17.56539" fill="#ee00f1"/><rect y="294.54305" width="17.56539" height="17.56539" fill="#ee00f1"/><rect x="34.88926" y="294.54305" width="17.56539" height="17.56539" fill="#ee00f1"/><rect x="68.65306" y="294.54305" width="17.56539" height="17.56539" fill="#ee00f1"/><rect x="103.54232" y="294.54305" width="17.56539" height="17.56539" fill="#ee00f1"/><rect x="136.18066" y="294.54305" width="17.56539" height="17.56539" fill="#ee00f1"/><rect x="171.06992" y="294.54305" width="17.56539" height="17.56539" fill="#ee00f1"/><rect x="204.83372" y="294.54305" width="17.56539" height="17.56539" fill="#ee00f1"/><rect x="239.72299" y="294.54305" width="17.56539" height="17.56539" fill="#ee00f1"/><rect x="271.23587" y="294.54305" width="17.56539" height="17.56539" fill="#ee00f1"/><rect x="306.12513" y="294.54305" width="17.56539" height="17.56539" fill="#ee00f1"/><rect x="339.88893" y="294.54305" width="17.56539" height="17.56539" fill="#ee00f1"/><rect x="374.77819" y="294.54305" width="17.56539" height="17.56539" fill="#ee00f1"/><rect y="324.50897" width="17.56539" height="17.56539" fill="#ee00f1"/><rect x="34.88926" y="324.50897" width="17.56539" height="17.56539" fill="#ee00f1"/><rect x="68.65306" y="324.50897" width="17.56539" height="17.56539" fill="#ee00f1"/><rect x="103.54232" y="324.50897" width="17.56539" height="17.56539" fill="#ee00f1"/><rect x="136.18066" y="324.50897" width="17.56539" height="17.56539" fill="#ee00f1"/><rect x="171.06992" y="324.50897" width="17.56539" height="17.56539" fill="#ee00f1"/><rect x="204.83372" y="324.50897" width="17.56539" height="17.56539" fill="#ee00f1"/><rect x="239.72299" y="324.50897" width="17.56539" height="17.56539" fill="#ee00f1"/><rect x="271.23587" y="324.50897" width="17.56539" height="17.56539" fill="#ee00f1"/><rect x="306.12513" y="324.50897" width="17.56539" height="17.56539" fill="#ee00f1"/><rect x="339.88893" y="324.50897" width="17.56539" height="17.56539" fill="#ee00f1"/><rect x="374.77819" y="324.50897" width="17.56539" height="17.56539" fill="#ee00f1"/><rect y="351.55138" width="17.56539" height="17.56539" fill="#ee00f1"/><rect x="34.88926" y="351.55138" width="17.56539" height="17.56539" fill="#ee00f1"/><rect x="68.65306" y="351.55138" width="17.56539" height="17.56539" fill="#ee00f1"/><rect x="103.54232" y="351.55138" width="17.56539" height="17.56539" fill="#ee00f1"/><rect x="136.18066" y="351.55138" width="17.56539" height="17.56539" fill="#ee00f1"/><rect x="171.06992" y="351.55138" width="17.56539" height="17.56539" fill="#ee00f1"/><rect x="204.83372" y="351.55138" width="17.56539" height="17.56539" fill="#ee00f1"/><rect x="239.72299" y="351.55138" width="17.56539" height="17.56539" fill="#ee00f1"/><rect x="271.23587" y="351.55138" width="17.56539" height="17.56539" fill="#ee00f1"/><rect x="306.12513" y="351.55138" width="17.56539" height="17.56539" fill="#ee00f1"/><rect x="339.88893" y="351.55138" width="17.56539" height="17.56539" fill="#ee00f1"/><rect x="374.77819" y="351.55138" width="17.56539" height="17.56539" fill="#ee00f1"/><rect y="381.5173" width="17.56539" height="17.56539" fill="#ee00f1"/><rect x="34.88926" y="381.5173" width="17.56539" height="17.56539" fill="#ee00f1"/><rect x="68.65306" y="381.5173" width="17.56539" height="17.56539" fill="#ee00f1"/><rect x="103.54232" y="381.5173" width="17.56539" height="17.56539" fill="#ee00f1"/><rect x="136.18066" y="381.5173" width="17.56539" height="17.56539" fill="#ee00f1"/><rect x="171.06992" y="381.5173" width="17.56539" height="17.56539" fill="#ee00f1"/><rect x="204.83372" y="381.5173" width="17.56539" height="17.56539" fill="#ee00f1"/><rect x="239.72299" y="381.5173" width="17.56539" height="17.56539" fill="#ee00f1"/><rect x="271.23587" y="381.5173" width="17.56539" height="17.56539" fill="#ee00f1"/><rect x="306.12513" y="381.5173" width="17.56539" height="17.56539" fill="#ee00f1"/><rect x="339.88893" y="381.5173" width="17.56539" height="17.56539" fill="#ee00f1"/><rect x="374.77819" y="381.5173" width="17.56539" height="17.56539" fill="#ee00f1"/><rect y="411.48322" width="17.56539" height="17.56539" fill="#ee00f1"/><rect x="34.88926" y="411.48322" width="17.56539" height="17.56539" fill="#ee00f1"/><rect x="68.65306" y="411.48322" width="17.56539" height="17.56539" fill="#ee00f1"/><rect x="103.54232" y="411.48322" width="17.56539" height="17.56539" fill="#ee00f1"/><rect x="136.18066" y="411.48322" width="17.56539" height="17.56539" fill="#ee00f1"/><rect x="171.06992" y="411.48322" width="17.56539" height="17.56539" fill="#ee00f1"/><rect x="204.83372" y="411.48322" width="17.56539" height="17.56539" fill="#ee00f1"/><rect x="239.72299" y="411.48322" width="17.56539" height="17.56539" fill="#ee00f1"/><rect x="271.23587" y="411.48322" width="17.56539" height="17.56539" fill="#ee00f1"/><rect x="306.12513" y="411.48322" width="17.56539" height="17.56539" fill="#ee00f1"/><rect x="339.88893" y="411.48322" width="17.56539" height="17.56539" fill="#ee00f1"/><rect x="374.77819" y="411.48322" width="17.56539" height="17.56539" fill="#ee00f1"/><rect y="441.44914" width="17.56539" height="17.56539" fill="#ee00f1"/><rect x="34.88926" y="441.44914" width="17.56539" height="17.56539" fill="#ee00f1"/><rect x="68.65306" y="441.44914" width="17.56539" height="17.56539" fill="#ee00f1"/><rect x="103.54232" y="441.44914" width="17.56539" height="17.56539" fill="#ee00f1"/><rect x="136.18066" y="441.44914" width="17.56539" height="17.56539" fill="#ee00f1"/><rect x="171.06992" y="441.44914" width="17.56539" height="17.56539" fill="#ee00f1"/><rect x="204.83372" y="441.44914" width="17.56539" height="17.56539" fill="#ee00f1"/><rect x="239.72299" y="441.44914" width="17.56539" height="17.56539" fill="#ee00f1"/><rect x="271.23587" y="441.44914" width="17.56539" height="17.56539" fill="#ee00f1"/><rect x="306.12513" y="441.44914" width="17.56539" height="17.56539" fill="#ee00f1"/><rect x="339.88893" y="441.44914" width="17.56539" height="17.56539" fill="#ee00f1"/><rect x="374.77819" y="441.44914" width="17.56539" height="17.56539" fill="#ee00f1"/></svg>