<svg height="512pt" viewBox="0 0 512 512" width="512pt" xmlns="http://www.w3.org/2000/svg"><path d="m256 0c-141.386719 0-256 114.613281-256 256s114.613281 256 256 256 256-114.613281 256-256c-.160156-141.320312-114.679688-255.839844-256-256zm42.667969 486.710938v-156.042969h53.332031c4.757812-.003907 8.941406-3.160157 10.25-7.734375l21.335938-74.667969c.917968-3.214844.273437-6.679687-1.738282-9.351563-2.015625-2.671874-5.167968-4.246093-8.515625-4.246093h-74.664062v-64h64c5.890625 0 10.664062-4.777344 10.664062-10.667969v-74.667969c0-5.890625-4.773437-10.664062-10.664062-10.664062h-128c-11.417969-.335938-22.464844 4.054687-30.539063 12.128906-8.074218 8.074219-12.460937 19.121094-12.128906 30.535156v117.335938h-53.332031c-5.890625 0-10.667969 4.773437-10.667969 10.664062v74.667969c0 5.890625 4.777344 10.667969 10.667969 10.667969h53.332031v117.332031c0 5.890625 4.777344 10.667969 10.667969 10.667969s10.664062-4.777344 10.664062-10.667969v-128c0-5.890625-4.773437-10.667969-10.664062-10.667969h-53.335938v-53.332031h53.335938c5.890625 0 10.664062-4.777344 10.664062-10.667969v-128c-.371093-5.761719 1.757813-11.40625 5.84375-15.492187 4.082031-4.082032 9.726563-6.210938 15.492188-5.839844h117.332031v53.332031h-64c-5.890625 0-10.667969 4.777344-10.667969 10.667969v85.332031c0 5.890625 4.777344 10.667969 10.667969 10.667969h71.1875l-15.242188 53.332031h-55.945312c-5.890625 0-10.667969 4.777344-10.667969 10.667969v169.652344c-7.027343.640625-14.132812 1.015625-21.332031 1.015625-125.585938.144531-229.082031-98.5-234.960938-223.949219-5.878906-125.445312 87.9375-233.335938 212.988282-244.9375 125.050781-11.597656 237.109375 77.199219 254.402344 201.589844 17.296874 124.386718-66.292969 240.386718-189.761719 263.339844zm0 0"/></svg>