<svg xmlns="http://www.w3.org/2000/svg" width="626" height="626" viewBox="0 0 626 626"><title>Asset 1</title><path d="M0,542V84c.56913-2.22324,1.19913-4.43291,1.69833-6.67174C10.24512,38.99788,33.16,14.10106,71.02568,3.22,75.30548,1.99014,79.6731,1.06593,84,0H542c2.22516.56066,4.43878,1.17328,6.67725,1.67426,38.31353,8.57456,63.26281,31.43694,74.09753,69.34975C623.99866,75.30681,624.932,79.67267,626,84V542c-.54053,2.06036-1.15759,4.10413-1.61029,6.18359-8.44452,38.79523-31.53632,63.89856-69.86963,74.72767C550.3858,624.07916,546.17523,624.97693,542,626H84c-2.05891-.53418-4.10252-1.13831-6.179-1.59228-38.56841-8.43183-63.64974-31.36091-74.60229-69.4383C1.9883,550.69159,1.06548,546.32526,0,542ZM363.50421,214.86163a26.89977,26.89977,0,0,0-3.48358-.52736c-28.8241-.027-57.64847.03415-86.472-.10191-3.863-.01823-4.27651,1.75713-4.23623,4.88548.266,20.65683.59021,41.31554.55957,61.9731q-.15651,105.46565-.63071,210.93045c-.0199,4.36051,1.08869,5.68418,5.55069,5.6528q41.98453-.29544,83.97211-.02218c3.81784.01953,4.82056-1.28278,4.77942-4.90582-.16086-14.16028-.09506-28.32364-.05091-42.48563.1221-39.15009.39087-78.30011.373-117.45-.0105-23.02378,19.18-49.022,47.80011-50.52149,21.51511-1.12726,38.199,8.10532,45.73737,29.95124,4.73452,13.72064,4.98471,27.76135,5.00048,41.9122q.07672,68.728-.08526,137.45568c-.01917,4.90738,1.51144,6.1019,6.21969,6.0672q41.23458-.30381,82.47214.00861c4.67865.03635,5.87842-1.41553,5.86621-5.94-.14007-51.81644.04077-103.63385-.15136-155.44995-.08826-23.79529-2.93268-47.19883-12.78919-69.23944-7.928-17.72805-19.49054-32.43129-35.9718-43.01929-17.93918-11.52452-37.80719-16.02466-58.86722-16.222-32.97433-.30892-59.94577,11.81624-79.881,38.5334q-2.29179,3.07146-4.59107,6.13727l-1.12045-.35484ZM123.08163,355.90329c0,45.33191.05047,90.664-.08322,135.99548-.01247,4.22626.92,5.81488,5.503,5.78131q41.74644-.30568,83.49589-.006c4.53692.032,5.54572-1.49115,5.54073-5.74911q-.15939-135.99555.025-271.99123c.00757-4.83937-1.68319-5.7496-6.06423-5.72214-27.49807.17238-54.99878.20983-82.4959-.0269-4.94746-.04259-6.04614,1.5179-6.02847,6.22325C123.14416,265.57254,123.076,310.738,123.08163,355.90329ZM117.7058,126.7981c.17211,17.00964,7.33089,31.07661,21.94708,40.81779,17.91733,11.94127,47.215,10.48813,65.11715-2.69437,25.12487-18.501,24.91622-58.57521-.37724-76.75454-13.23006-9.50891-28.092-11.58171-43.77107-9.45529C135.74048,82.08609,118.31908,101.48988,117.7058,126.7981Z"/><path d="M363.50421,214.86163v37.26751l1.12045.35484q2.29569-3.0685,4.59107-6.13727c19.93527-26.71716,46.90671-38.84232,79.881-38.5334,21.06.19731,40.928,4.69745,58.86722,16.222,16.48126,10.588,28.04382,25.29124,35.9718,43.01929,9.85651,22.04061,12.70093,45.44415,12.78919,69.23944.19213,51.8161.01129,103.63351.15136,155.45.01221,4.52447-1.18756,5.97635-5.86621,5.94q-41.23434-.32043-82.47214-.00861c-4.70825.0347-6.23886-1.15982-6.21969-6.0672q.26806-68.727.08526-137.45568c-.01577-14.15085-.266-28.19156-5.00048-41.9122-7.53833-21.84592-24.22226-31.0785-45.73737-29.95124-28.62015,1.49954-47.81061,27.49771-47.80011,50.52149.01785,39.14993-.25092,78.3-.373,117.45-.04415,14.162-.10995,28.32535.05091,42.48563.04114,3.623-.96158,4.92535-4.77942,4.90582q-41.9855-.21525-83.97211.02218c-4.462.03138-5.57059-1.29229-5.55069-5.6528q.48171-105.46449.63071-210.93045c.03064-20.65756-.29358-41.31627-.55957-61.9731-.04028-3.12835.3732-4.90371,4.23623-4.88548,28.82352.13606,57.64789.07492,86.472.10191A26.89977,26.89977,0,0,1,363.50421,214.86163Z" fill="#fff"/><path d="M123.07883,355.90329c-.0028-45.16525.06533-90.33075-.10437-135.49538-.01767-4.70535,1.081-6.26584,6.02847-6.22325,27.49712.23673,54.99783.19928,82.4959.0269,4.381-.02746,6.0718.88277,6.06423,5.72214q-.21293,135.99539-.025,271.99123c.005,4.258-1.00381,5.78112-5.54073,5.74911q-41.74656-.2948-83.49589.006c-4.583.03357-5.51548-1.555-5.503-5.78131C123.1321,446.56726,123.08163,401.2352,123.07883,355.90329Z" fill="#fff"/><path d="M117.7058,126.7981c.61328-25.30822,18.03468-44.712,42.91592-48.08641,15.679-2.12642,30.541-.05362,43.77107,9.45529,25.29346,18.17933,25.50211,58.25349.37724,76.75454-17.90214,13.1825-47.19982,14.63564-65.11715,2.69437C125.03669,157.87471,117.87791,143.80774,117.7058,126.7981Z" fill="#fff"/></svg>