<svg xmlns="http://www.w3.org/2000/svg" xmlns:xlink="http://www.w3.org/1999/xlink" width="325" height="347.73635" viewBox="0 0 325 347.73635"><defs><clipPath id="a"><path d="M162.167,41.957C97,39.31148,67,78.31148,54.67415,90.316L76,109.31148l-20,41,34,26-21,51,42,32-16,52,18.73824,7.92685A142.93339,142.93339,0,0,0,305.02049,184.81045C305.02049,105.91464,240.99788,45.15715,162.167,41.957Z" fill="none"/></clipPath></defs><title>Asset 1</title><path d="M162.5,21.31148a163.01523,163.01523,0,0,0-36.02555,4.01464L85.2459,0,77.26211,45.44623A162.51916,162.51916,0,1,0,162.5,21.31148Z" fill="#a50e0e"/><circle cx="161.50102" cy="185.47643" r="142.1875" fill="#fff"/><g clip-path="url(#a)"><image width="480" height="552" transform="translate(21.00003 13.73756) rotate(-0.07637) scale(0.60507)" xlink:href="oumie.jpg"/></g></svg>