<svg xmlns="http://www.w3.org/2000/svg" viewBox="0 0 974.29 276.07"><defs><style>.cls-1{fill:#565656;}.cls-2{fill:#a0a0a0;}.cls-3{fill:#e7e9ea;}</style></defs><title>pdx</title><g id="Layer_2" data-name="Layer 2"><g id="Layer_1-2" data-name="Layer 1"><path class="cls-1" d="M726.79,255c2.9.35,4.61,4.12,8.09,2.79l.9.17c.06-.47.15-.93.18-1.4.27-5.38,4.27-6.15,8.34-6.51,3.48-.31,8.2,3.43,8.53,7.13.29,3.22-.82,6.16-4.74,7-2.37.53-2.19,2.6-2.06,4.47.16,2.51,2.07,2.19,3.69,2.18,6.3,0,12.72.76,18.53-2.67-.33-1.7-3.79-.65-3-3.18.57-1.74,2.55-1.94,4-2.64,1.86-.91,3.62,0,5.31.55,3.45,1.16,4.58.18,4.47-3.54-.18-6.3,1.67-8.33,7.11-9.32,4.19-.75,6.45,1.51,8.42,4.74,1,1.67,2.09,4.51,4.85,2.31,4.45-3.54,8.6-3,13,0,2.57,1.75,3.48.35,3.5-2.35,0-2.28-.49-4.63.84-8.05.46,8.91-.53,16.8,1.73,24.44,2.08-1,4.79-1.38,5.75-2.89a28.75,28.75,0,0,0,3.73-10.91c1-6.08,6.92-10.49,11.22-6.92,4.89,4.07,9.93,4,15.12,5.24,1.06.25,2,1.64,3.15.72a3.29,3.29,0,0,0,1-3.61c-1.31-5.1,1.69-9,5.2-11.27,4.66-3.06,12.19-1,15.44,3,.93,1.16,1.77,3.4,2.67,3.41,5.56.06,2.62,4.14,3.18,6.41.49,2-.69,4.74,2.26,5.4,3.29.75,6.5,1.79,10-.38,5.29-3.27,8.63-2.27,13.55,3.4-8.09.54-16.55-1.74-22.75,5.31,2.65-.44,5.18-.07,8.07-1.25,3.39-1.39,8.16-3.4,10.29,2.63.52,1.48,2.14,1.37,3.48,1.37,3.67,0,7.33,0,11,0,1.12,0,2.67.29,2.88-1.22.24-1.69-1.44-1.37-2.46-1.74-3.58-1.27-4.94-4.07-4.07-7.5.75-3,2-6.21,6.23-5.51,4.66.77,4.91-2.09,4.47-5.39a11.22,11.22,0,0,1,.87-7.08c2-4.18,4.27-6.23,9.32-7.07,6-1,10.39-.78,14.43,4.14,1.42,1.72,2,5.3,5.79,4.43,3.06-.71,5.8.69,8.48,2a7.77,7.77,0,0,0,1.07,2.18c4.9,5.07,2.63,9.54-1.06,13.92-5.44.3-6.9,2-5.56,6.36,1.06,3.42,3.82,2.25,6.08,2.53,7.21-.7,7.21-.7,6.74,5-1.67,0-3.33,0-5,0H277.73Q139,276,.27,276.07c-.81-4,0-6.25,4.85-5.54,2,.3,4.25.65,6.24-.5,7.19,1.75,14.5.56,21.75.82,1.45.06,2.72-.58,2.73-2.24s-1.41-1.62-2.54-1.67c-2.31-.09-3.2-1.34-3.25-3.51-.06-2.44.28-4.9,2.64-6a5.73,5.73,0,0,1,6.12.42c3.35,2.66,3.73,5.37.8,7.73-1.49,1.19-3.57,2.2-2.24,4.17s3.72,1.52,5.69.24c4.48,1.71,8.88.88,13.31.8l0-1.89H43.12c0-.28,0-.56,0-.85a38.64,38.64,0,0,1,4.93,0c3,.35,4.27-1,4.12-3.87a27.15,27.15,0,0,0,8.76-1.93c-1.95-2.15-4.45-.45-7.19-2.29,5.7-1.5,8.87-8.22,15.48-4,3.84,2.44,7.78,4.57,12.58,4,4.08-1.43,8.15.56,12.22.05,2.74,1,4.92,3.27,8.22,3.17,2-.06,2.65,2,2.65,3.65,0,1.85-1.89,1.43-3.06,1.83s-2.71-.43-3.69,2c4.36,0,8.4,0,12.44,0,1.15,0,2.46.18,2.61-1.52s-1.31-2.07-2.3-2.05c-5.54.14-5.68-4.11-4.63-7.14,1.2-3.5,1.58-7.37,3.82-10.57.74-1.06,1-2.4,2.4-3A11.42,11.42,0,0,1,127,250.7c1.89,2.94,3.27,5.91,7.83,5.53,2.72-.23,3.74,3,4.83,5.13.73,1.4-.71,2.89-1.67,3.87-3.39,3.43-8.81,2.24-10.92-2.23-.18-.39-.5-1.12-.61-1.09-1.9.48-4.07.64-5.58,1.72s-.71,3.4-.43,5.16c.39,2.43,2.42,1.87,4,1.83,3.38-.1,6.86-.95,10.11-.4,4,.67,7.92.13,11.87.39,1.31.09,1.87-.5,2.18-2A76.22,76.22,0,0,0,150.05,246l0,.05c1.45.16,1.7,1,1.65,2.35-.15,3.47-.11,6.94-.05,10.42.08,4.12,2,5.39,5.51,3.47,6.31-3.43,12.45-3.5,18.74.1a7.93,7.93,0,0,0,8,.39c.74.89,1.84,1.48,2-.14.53-6.83,5-6.52,9.85-5.73,2.11,3.15,4.1,6.31,1.27,10.08-4.19.82-9-.67-12.94,3.32,4.77,1.43,9.23-.6,13.5.6.08-.78.68-1,1.29-1.19,1.41,1.72,3.38,1.12,5.14,1.11,1.49,0,3.66.79,4-1.75.27-2.28-1.67-1.93-3.07-2.26-3.1-.74-2.88-3.32-2.77-5.61.15-3.05,1.8-5.27,5-5.13,4.07.19,7.89.9,11.76-1.71,2-1.35,4,1.8,6.12,2.57a30.48,30.48,0,0,1,4.47,2.22c1.22.69,2.6,1.33,3.75.51a2.78,2.78,0,0,0,.49-4c-1.37-1.57,0-2.43.66-2.6,1.25-.34,1.75,1.4,1.51,1.9-1.42,3,4.06,5.59.3,8.62-.47.38-.08,1.73.81,2.06,1.29.46,3.33.33,1.27,2.48-.12.13.44,1.13.46,1.12,4.44-1.61,8.23,3.87,13,.81-1.34-1.76-.78-5.07-4.46-5.31a1,1,0,0,1-.73-1.5c2-3.48.39-7.17.66-10.75.19-2.52,1.06-3.48,3.8-3.13a33.65,33.65,0,0,0,7.76-.22c2.08-.21,4-.46,5.28,1.67,1.09,1.79,3,1.22,4.54,1.23,5.67.06,11.33,0,17,0,1.64,0,3.68-.31,4.18,1.78s1.2,5.39-.55,6.07c-3.62,1.4-2,3.66-2.17,5.84-.13,1.54-1,3-1.71,5.11h18.26c1.26,0,2.38-.28,2.41-1.86s-1.13-2-2.34-1.94c-4.39.23-4.88-2.51-4.59-5.86.25-2.88.56-5.62,4.32-6.26,4.34-.73,7.66.66,9.3,4.66,1.26,3.08-.37,5.4-3.34,6.75-1.25.56-2.46,1.19-2.13,2.92s1.88,1.59,3.16,1.6c4.71,0,9.42,0,14,0,.2-1.68-.47-1.89-1-2.26-1.75-1.21-5.37.5-5.55-2.09s1-6,2.8-7.35c4.14-3,4.07-7.69,6.22-11.4,3.12-5.38,12.05-6.55,16.27-1.89,6.5,7.18,6.4,10.09-.56,16.23,2.23,1.87,4.9,1.59,7.48,1.86s5.45,1.19,4.42,4.71c-.44,1.49.3,1.17.9,1.46,4.54,2.18,7.79.5,8.94-4.32,1.52-6.37.49-12.78.51-19.28,2.07.63,1.19,2.22,1.25,3.33.32,5.79-.21,11.57.82,17.4.57,3.22,1.9,3.33,4.47,3.71,5.45.79,10.25-1.84,16.1-2.45a32.42,32.42,0,0,0-4.15-1c-3.6-.32-4.64-2.28-4.31-5.7s1.64-5.39,5.28-5c2.3.26,3.44-.76,4.67-2.67,3.39-5.28,9.35-5.6,14-1,.69.69,1.27,1.78,2.41,1.46,5.64-1.57,8.21,3.67,13.1,4.87-2.26,2.14-4.28,1.71-5.86,1.4-5-1-8.79,1.71-12.92,3.48a2.57,2.57,0,0,0-1.38,3.36c.39,1.45.9,3.16,2.77,3,4.16-.26,8.3-1,12.91.49-.76-2.87-4.22-2.23-3.47-4.72.68-2.29,2.87-2.55,4.87-2.82,3.86-.53,7.6-1.33,11.67-.94,3.75.36,8.62,1.34,10.35-4.26.46-1.49,2-1.55,3.3-1.9,2.5-.68,4.76-1.06,6.09-4.17s8.93-3.39,11.53-.67c1.62,1.69,3.17,2.19,5.59,2.62,3.72.65,7.09,3.36,12,5.91-5.59.24-6.57,4.55-9.73,6.49-2.36,1.45-.92,3.86,1.63,3.93,8.16.21,16.33.15,24.49,0,1.31,0,2.58-1.21,3.87-1.86,1.33,3.83,4.42,1.45,6.7,1.83a1,1,0,0,0,1-1.34c-1.21-2.31-3.49-1-5.28-1.34a11.18,11.18,0,0,0-2.45,0,4.89,4.89,0,0,0-4.7-3.12c-2.84,0-5-.88-5.25-4-.29-3.69-.41-7.85,3.35-9.66,2.77-1.33,6.51-2.78,9.37.11,2.63,2.65,5.74,5.42,3.21,10.38,4.16-.51,7.26-2.29,10.38-4,1.81-1,1.71-2.67,1.61-4.37-.23-3.9,1.13-7.6,4.44-9.21,5.67-2.76,11.1-1.52,14.5,2.21,6.81,7.45,5.18,12.49-5.58,16.44,1.46,2,4.25.64,5.62,2.57,2.5,3.49-1.64,3-2.71,4.49,5.51,3.84,9-3.76,13.9-1.83.16-1.45-.61-1.78-1.42-1.93-1.35-.25-2.71-.39-2.66-2.27a3.15,3.15,0,0,1,2.28-3c4.86-2,9.58-2.1,14,1.3,1.14-1.21.57-2.57.61-3.79.22-5.83,2.21-7.94,8.07-8.4,3.54-.27,8.36,3.45,8.89,7.29.4,2.88-1.11,5.12-3.66,6.49a39.62,39.62,0,0,1-4.14,1.72,18,18,0,0,0-15.43,2.65c5.59-.26,10.57,4.92,16.41,1.62,4.37,2.23,8.87.64,13.37,1,0-2.33-1.69-1.8-2.47-2.46-2.5-2.13-2.65-4.73-.89-7.09s4.86-2.87,6.85-.49c2.31,2.77,4.32,2.45,6.84.83A8.31,8.31,0,0,1,597,260c7,1.48,12.63-1.53,18.42-4.69,5.36-2.93,9.18-1.9,12.73,2.1,3,3.33,1,5.55-1.4,7.36-1.7,1.29-4.72,2.07-3.09,4.48,1.26,1.87,4.52,2.52,6.8,1A7.63,7.63,0,0,1,635,269c.8-.13,2.12.61,2.2-.7.06-1.05-1.23-1.15-2.14-1.27-1-1.19,3.89-.14.82-2.16-3.34-2.21-4-9.5-1.17-12.73,2.3-2.64,9.17-2.74,11.78,0,2.26,2.41,4.36,5.05,3.43,8.78-.13.19-.27.37-.4.55l.56-.39c3.3-.41,5.69-3.22,9.71-2.44s6.69,2,6,5.9-4.14,4.56-7.75,3.58a3.23,3.23,0,0,1-2.51-1.36c-2.36-3.77-6.79-4.78-10.77-2.5a2.71,2.71,0,0,0-1.66,2.74c.07.87.3,1.69,1.29,1.82,4.52.58,8.83,3.67,13.63,1.23,5.85,1,11.7,1.72,17.7-.78-1.09-1.95-4.82-1-4.67-4.2.12-2.52.74-4.48,3.28-5.58.46-.21.53-1.47.64-2.26a8.7,8.7,0,0,1,11.19-7c6.76,2,6.76,2,8.87-3.68.41,6.73.52,6.75,6.81,2.91a5.44,5.44,0,0,1,2.86-.47c1,0,2,.72,2.89.58,5.94-.87,10,.7,12.75,6.74C722.09,260.12,724.64,255.86,726.79,255ZM418,266l.38.25L418,266l-1.65-.84-.28.6Zm316.78,3.75c1.7,2,4,1,6,1.15,1.5.13,3.06.08,3.21-2.08.14-1.86-.41-3.71-2.38-3.6-3.05.18-4.65-2.16-7-3.15L727,262c-4.73-1.57-8,2.17-12,3.37-1.44.43-1,2.28-.93,3.55,0,1.81,1.4,2,2.79,2,3.79,0,7.59.27,11.28-.89A6.86,6.86,0,0,0,734.82,269.74ZM222.93,261c-4.29-1.22-8,.86-11.28,4.83-.84,1-2.81,1.22-2.39,3.13a2.58,2.58,0,0,0,3.52,1.87c4.79-1.46,10,1.54,14.67-1.68,1.42-1,5.12,1.14,4.07-3.13,1.83-.08,3-.92,2.3-2.82s-2.63-2.23-4.53-2.21S225.65,261,222.93,261Zm573.73,0v1.56a35,35,0,0,1,4.82.44c2.52.56,3.13,2.29,1.89,4.43-.54.93-3,.76-1.9,2.67.75,1.31,2.4.7,3.66.81,1.47.14,3-.09,4.41.33,2,.63,4.3.2,4.85-1.16,1-2.47,1-5.37,1.22-8.1,0-.28-1-.93-1.5-.94C808.29,261,802.47,261.06,796.66,261.06Zm58.11.51c1,.82,1.25,1.14,1.52,1.19,2.17.4,5.23-.32,5.44,3,.25,3.82-3.08,1.77-4.78,2.35-.84.28-1.71.47-1.68,1.46s.89,1.32,1.78,1.32c3.83,0,7.66,0,11.49,0,1.66,0,2.58-.83,2.42-2.43-.2-1.82,1.29-4.56-1.29-5.26C865.14,262,860.55,260.29,854.77,261.57ZM458.18,271c2.11-.13,4.12.23,4.65-1.86.59-2.37-2.09-1.56-2.79-2.44-3.12-3.93-7.64.15-11.1-2.14-.65-.44-2.58,1.08-3.94,1.65-1.17.5-2,1.25-1.82,2.62.24,1.62,1.55,1.82,2.92,2.15C450.31,272,454.49,267.36,458.18,271Zm148.53-1.72c4,2.74,8.08.5,12.07,1.15,1.59.26,3,.85,3.26-1.5.2-1.86-.66-2.93-2.51-2.87-2.06.07-3.55-.52-4.27-2.58-1.53-4.41-4.27-1.76-6.72-1.52,4.2.55,6.6,2.4,6.7,7.32Zm100.47,1.53c-.54-4.51-2.76-5.89-7.18-6-3-.05-3.29,1.27-3.75,3.11-.65,2.66,1.14,2.76,3.14,3.11C702.08,271.52,704.57,270.68,707.18,270.78Zm246.3.84c2.13-1.74,6.16,1.41,6.63-3.94.34-4-2.85-4.88-4.77-5a11.73,11.73,0,0,1-6.73-2.29c-1-.75-2.75-.92-3.32.76s1,1.67,2.07,2.13c1.91.82,3.92.61,5.89.81a3.65,3.65,0,0,1,3.39,2.55c.48,1.82-1.22,2-2.45,2.46C953.49,269.33,953.13,269.83,953.48,271.62ZM879.72,260c-8.3,1.88-8.38,2.05-6.15,10.56,2.15-2.74,5.53-.9,8.44-2.47C880.2,265.64,873.45,265.67,879.72,260Zm-461.09,9.54,0,1.4c5,0,9.9,0,14.85,0,1,0,1.39-.83.94-1.78-.31-.66-.45-1.62-1.66-.84-2.41,1.55-5.14.43-7.71.74C422.93,269.28,420.65,268.53,418.63,269.54Zm183.77.93,0-.78H586.69l0,.78Zm-93.77,0h15.8A24.83,24.83,0,0,0,508.63,270.49Zm-329.38-1H165.54A23.54,23.54,0,0,0,179.25,269.51Zm670.69,0c-3.41-.16-7-1.25-10.3.64C843.11,270.94,846.56,271.64,849.94,269.49Zm-502.62.9c-3.6-2.62-6.2-2.95-9.18.08A18.55,18.55,0,0,0,347.32,270.39Zm594.14-.47c-3-1-5.93-1.44-8.8.34C935.6,270.84,938.53,271.38,941.46,269.92Zm-549.68-5c-.36,1.42,4.27.73,1.19,3.19-.58.46.47.9,1.12.89,1,0,2.15.14,2.6-.9.28-.64.25-2-.15-2.24C395.16,264.92,393.66,263.64,391.78,264.89Zm-274.62,1.3c-1,.71-3,.38-3,2.39s1.81,1.32,2.91,1.53c2.18.42,1.72-1.31,1.86-2.47S118.67,265.73,117.16,266.19ZM788.55,270a10.71,10.71,0,0,0,8.93,0A10.49,10.49,0,0,0,788.55,270Zm95.15-15.38c-2.3.91-2.86,2.41-2.45,4.35a1,1,0,0,0,1.5.74C884.88,258.4,883.94,256.56,883.7,254.62Zm-387.15,10-.07.73c.09-.11.24-.22.25-.34S496.62,264.78,496.55,264.65Z"/><path class="cls-2" d="M11.36,270l-.2-3c3.2-.58,6.86-1.5,6.54-5.34A6.21,6.21,0,0,0,11.17,256c0-37.31.13-74.63-.08-111.94,0-4.55,1.25-6,5.52-5.3a25,25,0,0,0,4.49,0c1.27,0,2.72.36,2.8-1.79s-.74-2.64-2.64-2.56c-1,0-2.52.54-2.87-1.11-.25-1.15.91-1.14,1.63-1.43,12.82.08,25.64.13,38.47.26,1.2,0,3.17-.8,3.48.78.45,2.29-1.76,1.33-2.81,1.39-1.68.11-2.33.71-2.33,2.43,0,1.9,1,2.17,2.54,2.12a30.53,30.53,0,0,0,4.49,0c4.82-.88,5.62,1.4,5.54,5.7-.26,13.66.06,27.33-.2,41-.08,4,.69,6.33,5.06,6.45,3.19.09,4.88,1.72,5.85,4.92,2.21,7.29,4.91,14.44,7.79,22.76,2.52-8.38,4.86-15.77,6.93-23.23.64-2.33,1.56-3.69,4-4.37,23.07-6.32,46.23-6.58,69.78-2.64,10,1.66,16.07,5.52,17,15.91a7,7,0,0,0,.71,1.85c1,3.69,2,7.37,3.09,11.44,2.5-2.31,2.57-5.41,3.58-8a136.81,136.81,0,0,0,4.73-13.65c.8-3,2.3-4.61,5.24-5.07,3.61.08,5.12-1.21,5-5.27-.32-12.15,0-24.31-.18-36.47-.06-4,1.8-5.69,5.41-5.7,15.49-.06,31,0,46.47,0,3.7,0,5.54,1.54,5.49,5.62-.16,14.32-.06,28.64-.06,43,0,10.52,0,10.52,10.94,9.34,7.06.74,7.06.74,7.06-6.19,0-17.64.07-35.28-.06-52.92,0-3.12.59-4.76,4-4.16,2.32.41,2.58-.77,3.2-2.94,5.73-20.11,1.3-40.62,2.51-60.89.17-2.83,1.9-5,3-6.42,7.4-9.66,11-21.1,16.35-31.68,1.82-3.59,2.08-6.76,2.22-10.32.05-1.07.29-2,1.63-1.91,1.15.11,1.19,1.17,1,1.89-1.21,5,1.68,8.79,3.42,12.93a199.76,199.76,0,0,0,16.24,31.57,10.71,10.71,0,0,1,1.95,6.33c.16,14.47.21,28.94.3,43.41a29.71,29.71,0,0,0,0,9l.1,1c.91,1.13,2.64,1.67,2.19,3.74-.75,3.42.7,4.94,4.23,4.33,2.71-.47,2.87,1.17,2.85,3.25-.07,7.31.41,14.65-.17,21.91-.43,5.39,2.53,4.69,5.94,4.94,4,.29,5.78-.62,5.27-5-.25-2.07-1.52-5.28,2.56-5.67h3.26a191.4,191.4,0,0,0,23.71,0c3.58-.35,1.75-3.14,1.75-4.63.14-41.15.23-82.29,0-123.44,0-4.75,1-6.1,5.9-6,16.82.34,33.65.22,50.47.06,3.25,0,4.15.81,4.14,4.1-.09,23.15,0,46.3.11,69.45-.07,3.31-.19,6.62-.2,9.93,0,12.67,0,12.67,12.92,11.83,9.58.62,9.58.62,9.58-8.79,0-13.8.06-27.6-.06-41.39,0-3,.05-5.34,4-4.56,2.62.51,3.18-1,2.86-3.14-.54-3.66,1.24-4.33,4.54-4.27,10.47.19,20.94.17,31.41,0,3,0,4.39.54,3.91,3.78-.32,2.12-.12,4.2,3,3.63,3.49-.65,4,1.09,4,4.12,0,16.29.09,32.57.17,48.85,0,.69,0,1.38,0,2.07,0,1,0,2,0,2.94-.09,9.11-.27,18.23-.25,27.34,0,18.58.16,37.15.25,55.72.86,3.42,2.86,3.77,5.61,2.09A6.58,6.58,0,0,0,539,206c0-.68.07-1.35.11-2,.11-11.09.32-22.18.31-33.27,0-17.56-.19-35.12-.29-52.68,0-5.21,1.3-10.41-.93-15.59-1.16-2.7,1.21-2.68,3.14-2.69,9.62-.06,19.24-.18,28.86-.29l32.93.31c2.33,0,5.14-.72,6.88.32,3,1.77-1.36,3.78-.72,6a5.69,5.69,0,0,1,0,1.49c0,12.33.14,24.65-.09,37-.06,3.5,1.18,4.11,4.29,4.07,11.49-.16,23-.06,34.47-.06,10.88,0,10.88,0,10.89,10.8,0,7.81,0,7.62,8.05,7.66,3.24,0,3.88-1.1,3.78-4-.2-6,.06-12-.1-18-.1-3.5.33-6.89-1.38-10.48-2.14-4.48-.26-6.41,4.8-6.42,3.33,0,6.69.25,10-.07,2.83-.28,7.57,2.34,7.23-3.95,0-.2.45-.6.69-.6,4.16-.08,8.31-.17,12.47-.14,2.85,0,1.41,2.42,2,3.73s1.94,1,3,1c5.16,0,10.33.19,15.49,0,3-.13,3.4,1,3.62,3.69.26,3.13-1.91,5.35-1.89,8.45.2,38.31.15,76.61.17,114.91-2.15.82-4.7,5.08-6.44,1.3-2.78-6-6.81-7.61-12.75-6.74-.92.14-1.92-.54-2.89-.58a5.44,5.44,0,0,0-2.86.47c-6.29,3.84-6.4,3.82-6.81-2.91-2.11,5.71-2.11,5.71-8.87,3.68a8.7,8.7,0,0,0-11.19,7c-.11.79-.18,2-.64,2.26-2.54,1.1-3.16,3.06-3.28,5.58-.15,3.24,3.58,2.25,4.67,4.2-6,2.5-11.85,1.8-17.7.78l0-1.93c3.61,1,7.06.25,7.75-3.58s-2.1-5.14-6-5.9-6.41,2-9.71,2.44l-.16-.16c.93-3.73-1.17-6.37-3.43-8.78-2.61-2.78-9.48-2.68-11.78,0-2.82,3.23-2.17,10.52,1.17,12.73,3.07,2-1.78,1-.82,2.16l-.06,2a7.63,7.63,0,0,0-4.6,1.32c-2.28,1.54-5.54.89-6.8-1-1.63-2.41,1.39-3.19,3.09-4.48,2.38-1.81,4.36-4,1.4-7.36-3.55-4-7.37-5-12.73-2.1-5.79,3.16-11.46,6.17-18.42,4.69a8.31,8.31,0,0,0-6.16,1.57c-2.52,1.62-4.53,1.94-6.84-.83-2-2.38-5-2-6.85.49s-1.61,5,.89,7.09c.78.66,2.49.13,2.47,2.46-4.5-.37-9,1.22-13.37-1-.32-1.42-.65-2.84-1-4.26a42,42,0,0,0,4.14-1.73c2.55-1.37,4.06-3.61,3.66-6.49-.53-3.84-5.35-7.56-8.89-7.29-5.86.46-7.85,2.57-8.07,8.4,0,1.22.53,2.58-.61,3.79-4.41-3.4-9.13-3.32-14-1.3a3.15,3.15,0,0,0-2.28,3c-.05,1.88,1.31,2,2.66,2.27.81.15,1.58.48,1.42,1.93-4.89-1.93-8.39,5.67-13.9,1.83,1.07-1.51,5.21-1,2.71-4.49-1.37-1.93-4.16-.59-5.62-2.57,10.76-3.95,12.39-9,5.58-16.44-3.4-3.73-8.83-5-14.5-2.21-3.31,1.61-4.67,5.31-4.44,9.21.1,1.7.2,3.4-1.61,4.37-3.12,1.67-6.22,3.45-10.38,4,2.53-5-.58-7.73-3.21-10.38-2.86-2.89-6.6-1.44-9.37-.11-3.76,1.81-3.64,6-3.35,9.66.25,3.16,2.41,4.08,5.25,4a4.89,4.89,0,0,1,4.7,3.12c0,.27,0,.54,0,.82-1.29.65-2.56,1.83-3.87,1.86-8.16.17-16.33.23-24.49,0-2.55-.07-4-2.48-1.63-3.93,3.16-1.94,4.14-6.25,9.73-6.49-4.89-2.55-8.26-5.26-12-5.91-2.42-.43-4-.93-5.59-2.62-2.6-2.72-10.16-2.52-11.53.67s-3.59,3.49-6.09,4.17c-1.27.35-2.84.41-3.3,1.9-1.73,5.6-6.6,4.62-10.35,4.26-4.07-.39-7.81.41-11.67.94-2,.27-4.19.53-4.87,2.82-.75,2.49,2.71,1.85,3.47,4.72-4.61-1.51-8.75-.75-12.91-.49-1.87.12-2.38-1.59-2.77-3a2.57,2.57,0,0,1,1.38-3.36c4.13-1.77,7.95-4.47,12.92-3.48,1.58.31,3.6.74,5.86-1.4-4.89-1.2-7.46-6.44-13.1-4.87-1.14.32-1.72-.77-2.41-1.46-4.64-4.57-10.6-4.25-14,1-1.23,1.91-2.37,2.93-4.67,2.67-3.64-.41-5,1.59-5.28,5s.71,5.38,4.31,5.7a32.42,32.42,0,0,1,4.15,1c-5.85.61-10.65,3.24-16.1,2.45-2.57-.38-3.9-.49-4.47-3.71-1-5.83-.5-11.61-.82-17.4-.06-1.11.82-2.7-1.25-3.33,0,6.5,1,12.91-.51,19.28-1.15,4.82-4.4,6.5-8.94,4.32-.6-.29-1.34,0-.9-1.46,1-3.52-1.71-4.42-4.42-4.71s-5.25,0-7.48-1.86c7-6.14,7.06-9,.56-16.23-4.22-4.66-13.15-3.49-16.27,1.89-2.15,3.71-2.08,8.44-6.22,11.4-1.83,1.31-3,4.91-2.8,7.35s3.8.88,5.55,2.09c.53.37,1.2.58,1,2.26-4.58,0-9.29,0-14,0-1.28,0-2.8.27-3.16-1.6s.88-2.36,2.13-2.92c3-1.35,4.6-3.67,3.34-6.75-1.64-4-5-5.39-9.3-4.66-3.76.64-4.07,3.38-4.32,6.26-.29,3.35.2,6.09,4.59,5.86,1.21-.07,2.37.36,2.34,1.94s-1.15,1.86-2.41,1.86H285.25c.73-2.09,1.58-3.57,1.71-5.11.18-2.18-1.45-4.44,2.17-5.84,1.75-.68,1-4,.55-6.07s-2.54-1.77-4.18-1.78c-5.67,0-11.33,0-17,0-1.59,0-3.45.56-4.54-1.23-1.3-2.13-3.2-1.88-5.28-1.67a33.65,33.65,0,0,1-7.76.22c-2.74-.35-3.61.61-3.8,3.13-.27,3.58,1.38,7.27-.66,10.75a1,1,0,0,0,.73,1.5c3.68.24,3.12,3.55,4.46,5.31-4.76,3.06-8.55-2.42-13-.81,0,0-.58-1-.46-1.12,2.06-2.15,0-2-1.27-2.48-.89-.33-1.28-1.68-.81-2.06,3.76-3-1.72-5.67-.3-8.62.24-.5-.26-2.24-1.51-1.9-.63.17-2,1-.66,2.6a2.78,2.78,0,0,1-.49,4c-1.15.82-2.53.18-3.75-.51a30.48,30.48,0,0,0-4.47-2.22c-2.15-.77-4.13-3.92-6.12-2.57-3.87,2.61-7.69,1.9-11.76,1.71-3.16-.14-4.81,2.08-5,5.13-.11,2.29-.33,4.87,2.77,5.61,1.4.33,3.34,0,3.07,2.26-.3,2.54-2.47,1.73-4,1.75-1.76,0-3.73.61-5.14-1.11-.52-2.37,1.37-4.17,1.31-6.59-.24-11.16-.08-22.33-.15-33.49,0-1.55,1-3.93-2.22-3.84-3,.09-1.81,2.3-1.83,3.63-.16,9.16-.17,18.32-.23,27.48-4.84-.79-9.32-1.1-9.85,5.73-.13,1.62-1.23,1-2,.14,0-11-.16-22,0-32.95.05-3.3-.89-4.13-4.18-4.12q-40.93.21-81.87,0c-3,0-4,.62-3.91,3.8.21,10.15.06,20.3,0,30.45-4.07.51-8.14-1.48-12.22-.05.07-8.47.16-16.94.18-25.41,0-8.92,0-8.69-8.8-8.84-3.63-.06-4,1.41-3.94,4.36.12,8.63,0,17.28,0,25.92-6.61-4.24-9.78,2.48-15.48,4,2.74,1.84,5.24.14,7.19,2.29a27.15,27.15,0,0,1-8.76,1.93c-3.37.47-8.16-2.34-9,3.9,0,.29,0,.57,0,.85L43.06,270c-2,1.28-4.31,1.81-5.69-.24s.75-3,2.24-4.17c2.93-2.36,2.55-5.07-.8-7.73a5.73,5.73,0,0,0-6.12-.42c-2.36,1.07-2.7,3.53-2.64,6,.05,2.17.94,3.42,3.25,3.51,1.13.05,2.55.06,2.54,1.67s-1.28,2.3-2.73,2.24C25.86,270.59,18.55,271.78,11.36,270Zm167.21-72.49c-1-2.74-2.34-3.2-4.57-1.53-1.16.15-2.42.24-1.3,1.92q0,8.07,0,16.15c-1.31,1.24-.8,2.17.51,3-.49,1.93-.24,3.09,2.24,3,3.35-.18,6.71-.05,10.51-.05l-2.27-4.88c.28-.32.84-.7.79-1-.21-1.08-1.12-.83-1.89-.8L182,212l1.15-.63-1.88-.45a1.43,1.43,0,0,1-.35-.91l1.26-.09c1.11-4.16-.34-7.59-3.05-10.66Zm-97.76,15.4c-.06-4.91-2.86-9-4.08-13.58-.26-1-1,0-1.56.15l-.5-1.93c-.45-3.45-3.1-2.13-4.89-2.64.58,5.88-1.84,11.53.27,17.07,2.49,2.47-3.58,6.06.63,7.69,2.71,1.05,6.16.06,9.25.28,4,.29,3-1.42,1.53-3.42C82,215.23,82.23,213.93,80.81,212.94Zm125.17-13c.25-1.65,2.56-2.66,1.4-5.08-1.65.8-4.6-.59-4.08,3.14-.83.17-2-.39-2.27,1a54.88,54.88,0,0,0-1.76,5.5c-.25,1.15-2.31,2.21-.81,3.32s2.42-.74,3.4-1.67c.26,1.52.66,3,2.68,2.66.77-.11,2.1-.79,1.74-1.13-2.19-2.15.55-3.13,1.08-4.36C208.22,201.33,207,200.81,206,199.91Zm-36.93,16c1.85-.34,1-1.81,1-2.73.1-5.4.06-10.79.06-16.19,1.37-1.66-.11-1.69-1.14-2-1.47-2.49-9-4.48-11.23-3-.13.08,0,.61.08.93-.29.48-.62,1,.3,1.12-.16,1-1.81.53-1.71,1.91.45,7-.59,14,.54,20.95l1.69.09c-.24,1-2,2.54.37,2.8a45.11,45.11,0,0,0,9.22-.05c1.33-.12.58-1.49.39-2.35Zm-60-18.81c-2.59,1.11-1.24,3.42-1.1,4.93.42,4.59-1.7,9.41,1.08,13.8l.26,1.47c0,1-1.25,2.46.74,2.58,3.06.18,6.15.09,9.22,0,1.2,0,.78-1.1.77-1.84,1.1-.18,2.61-.06,1.42-1.92,0-5.94,0-11.88-.17-17.81,0-1,.88-2.69-1.17-3.05l-.26-1.52c0-1,1.54-2.87-1.2-2.41s-5.72,1.11-8.57,1.71c-1.94.41-.89,1.65-.7,2.64ZM125,216.67l.35,1.66c3.31,3.28,7.17,1.22,10.83,1.07a10.65,10.65,0,0,0,.1-1.36c.26-.47.63-1-.28-1.13.35-.93,1.81-.74,1.76-2.37q-.28-9.48,0-19c0-1.62-1.52-1.36-1.77-2.37a2.33,2.33,0,0,0,1-2.32c-2.86-3-6.2-.28-9.28-.74-1.17-.18-2.76-.24-2.5,1.84-1,.31-2.62.25-1.19,2,0,4.12-.21,8.26.1,12.36C124.34,209.79,122.81,213.4,125,216.67Zm16.5,1.79c2.53,2.12,8.66,2.12,11.18,0l.48-1.77c1.49-.72.74-2.05.75-3.09.09-6.5.09-13,.11-19.49.28-1.14-.31-1.76-1.28-2.16-1.8-2.26-9.63-3.15-11.52-1.28-.12.12.13.61.2.92l-.46,1.87a74.71,74.71,0,0,0,0,23.17Zm-37.31-21-.17-1.54c-2.4-1.61-4.15-1.52-4.69,1.78l-.38,1.81c-2.06-1-1.48.92-2,1.73-3.32,5.65-.53,12.81-5.36,18.69,4.06,0,7.32-.12,10.56,0,2.69.12,1.82-1.58,1.76-2.94,2-.34,2.29-1.34,1.19-2.92C104.52,208.56,106.2,202.9,104.14,197.45Zm95.42,14.31c-1.78,3.17-3.89,5.12-4.62,8C200.56,220.07,200.56,220.07,199.56,211.76Z"/><path class="cls-2" d="M894,204.91c11.12.07,22.24.12,33.36.24,1.78,0,3.24-.4,2.56-2.4-.91-2.69.19-3,2.44-2.91,4,.12,8,0,12.44,0-.09,1.7-1.37,3.52-.34,4.65,1.18,1.29,3.16.49,4.78.59a18.9,18.9,0,0,0,4,0c3.79-.6,6.77.37,8.57,4,8.78,11.32,4.17,24.48,5,36.88-2.68-1.31-5.42-2.71-8.48-2-3.81.87-4.37-2.71-5.79-4.43-4-4.92-8.43-5.14-14.43-4.14-5,.84-7.27,2.89-9.32,7.07a11.22,11.22,0,0,0-.87,7.08c.44,3.3.19,6.16-4.47,5.39-4.22-.7-5.48,2.52-6.23,5.51-.87,3.43.49,6.23,4.07,7.5,1,.37,2.7.05,2.46,1.74-.21,1.51-1.76,1.21-2.88,1.22-3.67,0-7.33,0-11,0-1.34,0-3,.11-3.48-1.37-2.13-6-6.9-4-10.29-2.63-2.89,1.18-5.42.81-8.07,1.25,6.2-7,14.66-4.77,22.75-5.31-4.92-5.67-8.26-6.67-13.55-3.4-3.51,2.17-6.72,1.13-10,.38-3-.66-1.77-3.43-2.26-5.4-.56-2.27,2.38-6.35-3.18-6.41-.9,0-1.74-2.25-2.67-3.41-3.25-4-10.78-6.11-15.44-3-3.51,2.31-6.51,6.17-5.2,11.27a3.29,3.29,0,0,1-1,3.61c-1.13.92-2.09-.47-3.15-.72-5.19-1.22-10.23-1.17-15.12-5.24-4.3-3.57-10.23.84-11.22,6.92a28.75,28.75,0,0,1-3.73,10.91c-1,1.51-3.67,1.91-5.75,2.89-2.26-7.64-1.27-15.53-1.73-24.44-1.33,3.42-.82,5.77-.84,8.05,0,2.7-.93,4.1-3.5,2.35-4.44-3-8.59-3.54-13,0-2.76,2.2-3.84-.64-4.85-2.31-2-3.23-4.23-5.49-8.42-4.74-5.44,1-7.29,3-7.11,9.32.11,3.72-1,4.7-4.47,3.54-1.69-.58-3.45-1.46-5.31-.55-1.47.7-3.45.9-4,2.64-.84,2.53,2.62,1.48,3,3.18-5.81,3.43-12.23,2.63-18.53,2.67-1.62,0-3.53.33-3.69-2.18-.13-1.87-.31-3.94,2.06-4.47,3.92-.87,5-3.81,4.74-7-.33-3.7-5.05-7.44-8.53-7.13-4.07.36-8.07,1.13-8.34,6.51,0,.47-.12.93-.18,1.4l-.9-.17c-.12-12.86-.58-25.72-.2-38.56.14-4.9,3.58-9.14,5.81-13.53.64-1.26,2.46-.58,3.74-.59,8,0,16-.25,24,.07,4.24.17,5.5-1.13,3.73-5.34,3.69,0,7,0,10.32,0,2.5,0,5.86-1.13,4.77,3.75-.37,1.67,1.35,1.49,2.46,1.49,7.33,0,14.66-.12,22,.07,2.77.07,2.83-1.26,2.82-3.33q-.15-23.38-.16-46.78c0-5.94.13-11.88.11-17.82a30.5,30.5,0,0,0-.68-5.83c-.64-3.29-1.44-7.17,2.53-9.47.27-.17.45-.49.71-.7,6.21-4.91,10.87-10.59,9.42-19.25h.8c.09.14.29.29.27.41-1.47,8.73,3.4,14.43,9.67,19a7.79,7.79,0,0,1,3.13,8.55c-2.19,8.5-.76,17-.93,25.5-.31,14.71.08,29.43-.29,44.13-.11,4.67,1.29,6.2,5.71,5.5a39.13,39.13,0,0,1,4.47-.22c2,.06,4,.11,6,.18,1.24,0,2.73-.08,2.24-1.71-1.36-4.46,1.74-3.48,4-3.51,2.49,0,5,.05,7.48,0,2.13,0,4.05-.19,3,3-.53,1.69.55,2.33,2.25,2.22,2.31-.16,4.64-.16,7-.23h13Z"/><path class="cls-3" d="M726.79,255c0-38.3,0-76.6-.17-114.91,0-3.1,2.15-5.32,1.89-8.45-.22-2.66-.65-3.82-3.62-3.69-5.16.24-10.33.09-15.49,0-1.09,0-2.41.43-3-1s.89-3.72-2-3.73c-4.16,0-8.31.06-12.47.14-.24,0-.7.4-.69.6.34,6.29-4.4,3.67-7.23,3.95-3.29.32-6.65.06-10,.07-5.06,0-6.94,1.94-4.8,6.42,1.71,3.59,1.28,7,1.38,10.48.16,6-.1,12,.1,18,.1,2.93-.54,4.05-3.78,4-8.05,0-8.05.15-8.05-7.66,0-10.79,0-10.8-10.89-10.8-11.49,0-23-.1-34.47.06-3.11,0-4.35-.57-4.29-4.07.23-12.32.09-24.64.09-37a5.69,5.69,0,0,0,0-1.49c-.64-2.18,3.71-4.19.72-6-1.74-1-4.55-.3-6.88-.32l-32.93-.31c-.8-8.28.64-16.63-.79-24.9a2,2,0,0,1,2-2.4,22.54,22.54,0,0,1,3.49-.13c28.32,0,56.65.08,85-.1,4.23,0,5.29,1.29,5.27,5.37-.16,27.49-.08,55-.08,82.47v6c1.4-2.47,1-4.17,1-5.74,0-23.33.1-46.65-.06-70,0-3.92,1-5.11,5-5.08q39,.25,78,0c3.81,0,5.41.86,5.15,5-.35,5.64,0,11.33-.13,17-.08,2.9.73,4.22,3.91,4.15,8.16-.17,16.33-.15,24.49,0,2.9,0,3.72-1.14,3.69-3.86-.12-8.67.08-17.33-.11-26-.07-3.33,1.13-4.27,4.34-4.25,17.83.12,35.66.17,53.48,0,3.59,0,4.73,1.65,5.12,4.57A35.3,35.3,0,0,1,849,86q0,59.47,0,119a39.13,39.13,0,0,0-4.47.22c-4.42.7-5.82-.83-5.71-5.5.37-14.7,0-29.42.29-44.13.17-8.48-1.26-17,.93-25.5a7.79,7.79,0,0,0-3.13-8.55c-6.27-4.62-11.14-10.32-9.67-19,0-.12-.18-.27-.27-.41,0-4.49-.3-9,.14-13.48.48-4.94-.72-7.39-6.21-6.49a27.55,27.55,0,0,1-7.48,0c-3.51-.41-4.26.88-4.53,4.34-.4,5.24,2.67,4.52,5.82,4.51,11.56,0,11.56,0,11.46,11.1,1.45,8.66-3.21,14.34-9.42,19.25-.26.21-.44.53-.71.7-4,2.3-3.17,6.18-2.53,9.47a30.5,30.5,0,0,1,.68,5.83c0,5.94-.11,11.88-.11,17.82q0,23.38.16,46.78c0,2.07,0,3.4-2.82,3.33-7.32-.19-14.65-.06-22-.07-1.11,0-2.83.18-2.46-1.49,1.09-4.88-2.27-3.72-4.77-3.75-3.31,0-6.63,0-10.32,0,1.77,4.21.51,5.51-3.73,5.34-8-.32-16-.11-24-.07-1.28,0-3.1-.67-3.74.59-2.23,4.39-5.67,8.63-5.81,13.53-.38,12.84.08,25.7.2,38.56C731.4,259.16,729.69,255.39,726.79,255Z"/><path class="cls-3" d="M881,204.91q0-84.19.11-168.39c0-4.36-1.07-5.63-5.54-5.62q-80,.24-159.9.08c-2.9,0-5.75-.31-6.51,3.54a2,2,0,0,1-.93,1.11c-.81.42-2.22.16-2.19-.4.32-4.62-6.39-2.85-6.08-6.52.17-2,2.44-3.77,5.23-3.73,5.82.09,11.66-.19,17.48.07,10.76.47,20.95-2.89,31.43-4.32C771,18.44,787.76,15.65,804.56,13c12.73-2,25.42-4.29,38.15-6.32C857.07,4.37,871.42,2,885.83.11c6.52-.84,12.08,3.2,17.91,5.39,13.32,5,26.49,10.38,39.68,15.74,2.46,1,4.91.55,7.37.79,7,.67,10.05,3.4,10.51,10,3.9,57,.66,114,1.7,171,0,2,.94,4.39-1.19,6.06-1.8-3.6-4.78-4.57-8.57-4a18.9,18.9,0,0,1-4,0c-1.62-.1-3.6.7-4.78-.59-1-1.13.25-3,.34-4.65-4.48,0-8.46.09-12.44,0-2.25-.07-3.35.22-2.44,2.91.68,2-.78,2.42-2.56,2.4-11.12-.12-22.24-.17-33.36-.24,0-51.82.06-103.63-.1-155.45,0-4.44,1.21-5.63,5.6-5.57,18,.25,36,.13,54,.06,1.67,0,3.65.84,5.2-1.08-2.09-2.17-5.62-3.33-4.72-7.43.75-3.46-1-4.53-4.45-4.5-17.16.15-34.32.24-51.48-.05-4.79-.08-6.13,1.24-6.11,6.07q.24,84,.1,168ZM745.29,24.39l-.1.61h4.93c22.3,0,44.6-.08,66.89.08a32.63,32.63,0,0,0,12.13-2.26C837.79,19.47,846.38,16,855,12.55l19.23-7.67L874,3.93Zm86.11-.25c2,1.39,3.64.83,5.18.83,12.8.06,25.6,0,38.41.05,1.47,0,3.15-.13,4.37.49,4.47,2.27,6.46,1.23,6.66-3.86s-.22-9.91.88-14.86c.78-3.51-1-4.4-4.34-3.06-12.41,5-24.89,9.8-37.33,14.72C840.72,20.24,836.25,22.14,831.4,24.14Zm104-2.13c-2.46-3.32-5.84-3.73-8.85-5C915.34,12.43,904.11,8,892.87,3.49c-1.4-.56-3.47-1.07-3.61,1-.44,6.77-2,13.5-1,20.31.25,1.67,1.74,3,3,.69,1.94-3.67,5-3.57,8.46-3.53,8.65.12,17.3,0,26,0ZM909.94,93.55c7.21-1.1,2.37-4.18,1.74-7C909.5,88.67,910.7,91,909.94,93.55Z"/><path class="cls-3" d="M186.38,207.13a7,7,0,0,1-.71-1.85c-1-10.39-7.06-14.25-17-15.91-23.55-3.94-46.71-3.68-69.78,2.64-2.47.68-3.39,2-4,4.37-2.07,7.46-4.41,14.85-6.93,23.23-2.88-8.32-5.58-15.47-7.79-22.76-1-3.2-2.66-4.83-5.85-4.92-4.37-.12-5.14-2.46-5.06-6.45.26-13.66-.06-27.33.2-41,.08-4.3-.72-6.58-5.54-5.7a30.53,30.53,0,0,1-4.49,0c-1.51,0-2.54-.22-2.54-2.12,0-1.72.65-2.32,2.33-2.43,1.05-.06,3.26.9,2.81-1.39-.31-1.58-2.28-.77-3.48-.78-12.83-.13-25.65-.18-38.47-.26v-1c0-12.84,0-12.84,13.12-12.84q13.5,0,27,0c2.35,0,3.73.13,3.45-3.49-.68-8.93-.57-18-.37-26.93C63.27,85,62.29,85,60.44,85c-13.5,0-27,.06-40.49,0-2.61,0-4.24.54-3.93,3.55a4.52,4.52,0,0,1-1.9,3.88c-.85.77-1.67,1.81-3,1.3s-1-1.93-1.07-3c-.06-2,.11-4,0-6-.32-4,2.13-6.35,5.47-6.43,10.34-.28,18.81-5.92,28.12-9.1a133.7,133.7,0,0,0,17-7c6.63-3.36,13-.83,19.39.09,21.26,3.1,42.47,6.47,63.69,9.79,15.35,2.41,30.7,4.82,46,7.41,5.65,1,11.28.26,16.92.55,1.63.09,3.4-.35,4.74,1,.81.82,2,1.71,2.1,2.66.18,1.76-2,.8-2.53,1.45-2.49,2.91-4.66,2.72-7.25.1-.59-.61-2.24-.2-3.4-.2Q139.1,85,77.87,85c-5.7,0-5.88.54-5,6.42A48.19,48.19,0,0,1,73,101.89c-.26,3.75.73,5.29,4.92,5.21,14.82-.25,29.65-.22,44.48,0,3.81,0,5.29-1.21,4.66-4.86-.88-5.12,1.2-6.44,6.26-6.34,16.66.33,33.32.22,50,0,3.67,0,5,.94,4.87,4.76-.25,9.49-.08,19-.1,28.48,0,1.47.29,3.08-1.42,3.94-3.57.34-2,3.13-1.78,4.62.38,2.2,2.12-.07,3.21.35,0,21.1,0,42.2,0,63.3C188,203.36,189.05,205.83,186.38,207.13ZM79.9,64.06l-.07,1c10.89,4.3,21.82,8.5,32.65,13a27.87,27.87,0,0,0,11.11,2c15.46-.11,30.92,0,46.38-.09,1.27,0,2.76.72,4.2-.92ZM110,80l.1-.92C96.87,73.84,83.69,68.56,70.47,63.4c-2.28-.89-2.5,1-2.4,2.54.24,3.63.79,7.24.91,10.87.15,4.11,1,6.35,5.63,3.63,1.15-.68,2.91-.42,4.4-.42Q94.49,80,110,80ZM29,77.15l.19.85H58.58c2,0,3.88-.22,5.41,1.7,1.68,2.12,2.73,1.21,3-1.12.59-4.68-1.21-9.17-1.1-13.83,0-1.54-1.19-1.89-2.5-1.37Z"/><path class="cls-3" d="M276.1,202.31c-10.93,1.18-10.94,1.18-10.94-9.34,0-14.33-.1-28.65.06-43,0-4.08-1.79-5.62-5.49-5.62-15.49,0-31,0-46.47,0-3.61,0-5.47,1.68-5.41,5.7.18,12.16-.14,24.32.18,36.47.11,4.06-1.4,5.35-5,5.27,1.41-12.24,1.07-24.53.95-36.8-.07-6.45-1.23-12.85-1-19.35.12-3.39,1.23-4.73,4.7-4.72,21.45.1,42.91.14,64.36,0,4.09,0,4.05,2.1,4.05,5Q276,169.13,276.1,202.31Z"/><path class="cls-3" d="M388.93,158.43a191.4,191.4,0,0,1-23.71,0q-.09-28.41-.21-56.8c0-2.36.52-3.77,3.29-3.71,5.81.12,11.63.14,17.44,0,3.23-.08,3.33,1.81,3.32,4.18Q389,130.27,388.93,158.43Z"/><path class="cls-3" d="M527.48,206c-.09-18.57-.22-37.14-.25-55.72,0-9.11.16-18.23.25-27.34,2.2-1,2.17-2,0-2.94,0-.69,0-1.38,0-2.07l11.7.06c.1,17.56.27,35.12.29,52.68,0,11.09-.2,22.18-.31,33.27-1.06.63-1.14,1.3-.11,2a6.58,6.58,0,0,1-5.93,2.12C531.59,206.44,529.24,207,527.48,206Z"/><path class="cls-3" d="M339,130a29.71,29.71,0,0,1,0-9l16.46,0c1.69,0,2.71.25,3.67,2.3,4.43,9.46,2.37,19.42,3.07,29.17.15,2.09-2.3,4-.22,6-4.08.39-2.81,3.6-2.56,5.67.51,4.39-1.3,5.3-5.27,5-3.41-.25-6.37.45-5.94-4.94.58-7.26.1-14.6.17-21.91,0-2.08-.14-3.72-2.85-3.25-3.53.61-5-.91-4.23-4.33.45-2.07-1.28-2.61-2.19-3.74.12-.11.36-.27.34-.32A5.61,5.61,0,0,0,339,130Z"/><path class="cls-3" d="M464.06,119.73c-12.93.84-12.94.84-12.92-11.83,0-3.31.13-6.62.2-9.93,3.58-1.21,7.12.31,10.7.17,2.44-.09,2,2.2,2,3.76C464.07,107.84,464.05,113.79,464.06,119.73Z"/></g></g></svg>