<svg xmlns="http://www.w3.org/2000/svg" viewBox="0 0 1200.2 600.2"><defs><style>.cls-1{fill:#efeaea;}.cls-2{fill:#fef9f7;}.cls-3{fill:#030303;}.cls-4{fill:#020202;}.cls-5{fill:#050404;}.cls-6{fill:#181817;}</style></defs><title>preview</title><g id="Layer_2" data-name="Layer 2"><g id="Layer_1-2" data-name="Layer 1"><g id="jt4rvZ"><path class="cls-1" d="M218.09.11Q706.72.11,1195.34,0c4.06,0,4.87.8,4.86,4.86q-.18,295.42,0,590.85c0,4-1.13,4.49-4.7,4.48q-187.2-.15-374.41-.08c-.17-2.68-2.42-3.89-4-5.48C729.35,508.07,644,419.15,554.72,334.14c-24.35-23.19-47.3-47.8-71.79-70.88s-47.58-48-72.19-71.19c-24.23-22.83-46.89-47.28-71.13-70.13-24.47-23.07-47.3-47.81-71.83-70.84-16-15-31.2-31-46.74-46.56C219.78,3.27,218.1,2.23,218.09.11ZM1003,305.29l-.86,1a16.77,16.77,0,0,1-2.35-.43c-19.06-6.35-35.3-1.65-49.22,12.42-9.14,9.23-18.2,18.56-27.64,27.48-3.64,3.43-3.35,5.85-.15,9q51,51.15,101.89,102.38c2.71,2.74,4.92,2.74,7.55,0,4.53-4.66,9.21-9.17,13.76-13.8,4.74-4.82,4.77-5.48-.11-10.43q-17.19-17.46-34.47-34.8c-5.81-5.85-5.81-5.84.22-11.82,8.93-8.86,18-8.84,26.95.06,9.32,9.3,18.77,18.47,27.84,28,3.08,3.22,5.32,3.17,8.2.27q7.39-7.44,14.9-14.78c2.9-2.81,2.61-5-.34-7.79-10.2-9.82-20.18-19.87-30.18-29.9-7-7.05-15.24-11.73-25.11-13.3-2.57-.41-3.6-1.7-3.92-4.26-2.08-16.74-10.84-28.95-25.41-37,7.1-3.62,11.78-10,17.19-15.48,3.21-3.25,5-3.42,8.35-.06q37.61,38,75.57,75.7c1.52,1.52,3.29,2.82,4.77,4.38,2.16,2.29,4,2.36,6.32.06,4.68-4.72,9.58-9.24,14.3-13.93,5.13-5.08,5.09-5.24.09-10.23q-39.06-39-78.14-78.07c-5.56-5.56-4.36-4.38.16-9.07,3.82-3.95,7.66-7.88,11.57-11.74,3.12-3.08,3.15-5.83-.12-8.92-4.84-4.57-9.51-9.33-14.16-14.11-2.77-2.86-5-2.89-8,.06q-27.6,27.89-55.49,55.48c-3.07,3-3.38,5.13-.06,8.12C992.45,294.84,997.65,300.14,1003,305.29ZM865.27,205.41l1.39-.55c1.42,1.36,2.87,2.69,4.26,4.08q32,32,64,64c2.89,2.91,5,3.27,7.87.35,5-5.13,10.09-10.17,15.18-15.21,2.45-2.43,2.63-4.43-.12-7.05-7.83-7.48-15.4-15.23-23.06-22.87l-78.88-78.73c-4.77-4.75-5.07-4.73-9.93.13s-9.81,10-14.87,14.8a7.9,7.9,0,0,0-2.55,8c1.45,7.35,2.61,14.75,3.93,22.13.93,5.2.82,5.36-4.52,4.43-7.54-1.31-15.08-2.62-22.6-4a7.28,7.28,0,0,0-7.17,2.35c-5.09,5.28-10.11,10.65-15.58,15.51-3.87,3.43-3,6,.1,9,6.53,6.42,12.94,13,19.4,19.46l81.44,81.82c4.29,4.3,5,4.3,9.29.1,4-4,8-8,12-12,5.89-5.92,5.94-6.18-.09-12.24q-31-31.2-62-62.35c-1.23-1.24-3-2.16-3.36-4.1,1.24-1.29,2.58-.51,3.78-.29,6.21,1.13,12.42,2.3,18.62,3.57,9.43,1.93,9.38,2,7.6-7.52C867.93,220.63,866.63,213,865.27,205.41Zm149.47-97.18c3.69-.44,5.61.71,7.6,1.42q23.52,8.37,47,16.86c16,5.77,16,5.77,27.27-7.17,4.68-5.39,4.69-5.41-.33-10.43L997.21,10c-.71-.7-1.39-1.44-2.14-2.1-2.59-2.32-5-2.92-7.7.13s-5.85,5.92-8.79,8.87c-9.17,9.17-8.71,9.79,1.07,18.75,13,11.93,25.32,24.61,37.91,37a11.86,11.86,0,0,1,1.37,2.16c-1.66.59-2.81-.36-4-.82-20.86-8.29-41.73-16.54-62.5-25.07-3.34-1.37-5.33-1.07-7.65,1.63-2.92,3.4-6.3,6.41-9.48,9.6-5.26,5.26-5.27,6,0,11.21q42.45,42.41,84.91,84.78c4.83,4.83,9.65,9.67,14.52,14.47,4.41,4.34,5.62,4.54,9.92.55,4.51-4.18,8.7-8.72,13-13.09,3-3,3.14-5.73-.21-8.86-10.09-9.45-19.69-19.41-30.09-28.53C1023.2,117,1019.39,112.83,1014.74,108.23Zm-123.29,489a39.06,39.06,0,0,0,3.48-2.77c4.17-4.08,8.27-8.22,12.39-12.36,6-6,6-6.27.08-12.2-12.13-12.15-24.18-24.38-36.48-36.34-2.8-2.72-2.59-4.26.08-6.67,3.71-3.34,7.11-7,10.65-10.55,5.54-5.51,4.51-5.1,9.48-.17,12.17,12.1,24.37,24.18,36.36,36.46,3.15,3.23,5.58,3.55,8.75.3,4.17-4.3,8.59-8.36,12.84-12.6,5.64-5.63,5.65-6.17-.14-11.88Q920.31,500.19,891.62,472q-21.86-21.63-43.51-43.45c-2.91-2.95-5-3.09-7.8-.06-4.31,4.64-8.9,9-13.38,13.48-5,5-5,5-.16,9.86,11.32,11.31,22.58,22.67,34,33.89,2.41,2.38,2.77,4,.09,6.45a129.69,129.69,0,0,0-11.3,11.31c-3.13,3.64-5.26,3.66-8.67.09-10.8-11.34-22-22.3-33-33.47-3.12-3.18-5.73-3.87-9.11-.1-4.56,5.08-9.48,9.85-14.47,14.51-2.93,2.73-2.68,5,0,7.55,3.82,3.72,7.56,7.52,11.33,11.3q45,45.1,90.07,90.21C887.17,595.05,888.44,597,891.45,597.24ZM798.16,399.13c-.51-15.52-5-26.29-15.06-36.52q-21-21.39-42.4-42.41c-19.56-19.17-49-18.72-66.74.92-7.7,8.52-16.1,16.4-24.2,24.56-5.73,5.77-5.74,5.75.21,11.74q24.3,24.45,48.62,48.91c17,17.12,34.14,34.18,51.13,51.36,2.86,2.89,4.87,3.54,8.1.12,8.89-9.47,18.26-18.49,27.32-27.8A46.64,46.64,0,0,0,798.16,399.13Zm77.56-269.57c-.39,19.2,5.06,30.12,14.18,39.37q23,23.31,46.17,46.46a49.43,49.43,0,0,0,14.16,10.06c21.32,10,45.81,2.9,58.12-16.9,11.07-17.79,8-41.05-7.93-57.25-14.84-15.09-30-29.91-45-44.76-3.07-3-6.22-6.17-9.86-8.42-15.39-9.53-31.46-10.48-47.43-1.78C882.81,104.66,876.25,118.49,875.72,129.56Zm145.56,336c0-1-1.06-2.06-2.33-3l-32.18-22.68Q943,409,899.18,378.15c-3.4-2.41-6.07-2.63-9.14.59-6.09,6.4-12.29,12.71-18.75,18.72-3.32,3.08-3.17,5.84-.86,9.15q15.86,22.68,31.66,45.38c12.13,17.47,24.18,35,36.32,52.43,5.31,7.64,10.72,15.21,16.13,22.78,1.85,2.59,3.83,3.27,6.57.76,5.65-5.17,11-10.62,16.27-16.18,2.12-2.24,1.73-4.1.15-6.13-2.43-3.13-6.47-6.29-6.27-9.78.22-3.86,5.07-6.22,8-9.17,7.76-7.92,7.81-7.86,17-1.57,2.39,1.64,4.75,3.28,7.5.51,5.51-5.55,11.35-10.79,16.38-16.81A3.92,3.92,0,0,0,1021.28,465.55ZM755.53,243.08c-3.17-.3-4.35,1.21-5.64,2.49-6.24,6.24-12.33,12.64-18.79,18.65-3.26,3-3.29,5.75-.93,9.11q13.56,19.38,27.05,38.81,18.33,26.36,36.64,52.73,10,14.31,20,28.57c2.25,3.22,4.63,3.94,7.67.8q7.63-7.89,15.54-15.51c2.34-2.26,1.86-4.32.12-6.52-2.45-3.09-6.48-6.22-6.14-9.76s5-5.88,7.76-8.74c2.53-2.63,4.89-6.37,8-7.26,3.8-1.08,6.16,3.7,9.36,5.6a7.45,7.45,0,0,1,.83.55c2.53,1.94,4.79,1.7,7-.61,5.06-5.28,10.15-10.55,15.33-15.71,2.74-2.73,2.19-4.94-.68-7Q862.57,318,846.48,306.64,805.77,278,765,249.35C761.66,247,758.68,243.92,755.53,243.08Z"/><path class="cls-2" d="M218.09.11c0,2.12,1.69,3.16,2.95,4.43,15.54,15.56,30.71,31.52,46.74,46.56,24.53,23,47.36,47.77,71.83,70.84,24.24,22.85,46.9,47.3,71.13,70.13,24.61,23.19,47.6,48,72.19,71.19s47.44,47.69,71.79,70.88c89.26,85,174.63,173.93,262.34,260.49,1.61,1.59,3.86,2.8,4,5.48q-408.24,0-816.5.09c-3.75,0-4.59-.84-4.59-4.59q.17-295.5,0-591C0,.86.84,0,4.59,0Q111.35.21,218.09.11Zm-95,449c-4.34.05-7.59-1.83-9.21-5.31-1.76-3.79-6.16-5.88-9.41-4.47-4.1,1.78-6.56,6.77-4.9,10.18.53,1.08,1,2.91,2.74,2.09,1.54-.74.29-1.95-.14-2.95-1.26-2.88.23-4.78,2.38-6.35,2-1.46,3.76-.68,5.39.74,1.9,1.67,3,3.55,1.52,6.1-.45.78-1.62,1.54-.75,2.54s1.8.14,2.59-.43c3-2.16,5.29-.88,7.38,1.45,1.69,1.9,2.48,4.1,1,6.36-1.74,2.69-4.07,4.48-7.53,2.81-.94-.45-1.9-1-2.43.35s.66,1.71,1.47,2.13c3.52,1.87,6.51.53,9-1.94s3.94-5.66,2-9.47c-.59-1.18-3.22-1.9-1.28-3.94,5,.49,6.08-4.93,9.84-6.53,1.12,1.06,2.3,2.23,3.55,3.33.75.67,2.21.19,2.08-.19-1-2.95-2.27-5.82-3.46-8.71-3.35,2.16-4.46-1.13-6.31-2.59-.87-.68-1.63-2.1-2.89-1s.13,2,.8,2.78c4.06,4.84,4.07,4.84-1.4,9.18-1.79-5.46-3.42-10.82-5.34-16.07-.41-1.12-.11-3.78-2.28-3-1.82.66-.44,2.6-.09,3.92C119.2,436.55,122.26,442.52,123.1,449.15ZM369.37,217.68c-.2-1.38-1.24-2-2.05-2.84Q281.47,129,195.67,43.07c-2.27-2.28-3.35-2-5.43.11-11.91,12.12-23.84,24.22-36.08,36-3.28,3.15-2.86,4.62.12,7.59Q239,171.24,323.59,255.93a17.19,17.19,0,0,1,1.74,1.78c1.49,2,2.6,1.6,4.26-.08,12.64-12.79,25.39-25.48,38.11-38.2C368.29,218.85,368.85,218.23,369.37,217.68ZM95.56,129.41a3.85,3.85,0,0,0,.35.56q89.22,89.29,178.41,178.63c2.06,2.07,3,1.3,4.57-.3q17.43-17.58,35-35c5.06-5.06,5.06-5.06.17-9.95l-164-164c-3.18-3.18-6.46-6.27-9.52-9.57-1.76-1.9-2.85-2.42-5-.22C122.25,102.9,108.86,116.14,95.56,129.41ZM225.38,361.77c13.62-13.64,26.85-27,40.3-40.2,2.7-2.63,1-3.76-.67-5.44q-68.4-68.37-136.73-136.83c-2.38-2.39-3.68-2.69-6.2-.11-11.87,12.16-23.84,24.23-36.07,36-3.13,3-2.62,4.35.16,7.12q63.24,62.94,126.24,126.11C216.76,352.79,221,357.26,225.38,361.77ZM111.3,470.22c.13-4.07-3.7-8.48-8.4-9-2.06-.21-2.48-.63-2.84-2.63a7.06,7.06,0,0,0-7.33-6.14c-3.2-.05-7.53,4.35-7.58,7.58a6.75,6.75,0,0,0,5.68,7.14c2.76.51,3,1.7,3.32,4,.56,4.16,5.59,7.91,9.25,7.44C107.35,478.14,111.18,474.06,111.3,470.22ZM56.4,489c-2.68.09-5.12,2.29-6.79,5.31a6.4,6.4,0,0,0,.88,7.87c3.63,3.87,7.37,7.68,11.31,11.23,3.46,3.11,7.08,2.31,10.25-.67,3.55-3.33,4.06-7,1.18-10.64a76.45,76.45,0,0,0-11.62-11.62C60.43,489.47,59,489,56.4,489ZM159.3,403.6a9.16,9.16,0,0,0,2.11-.82c2.78-2.16,5.29-1.55,7.46.84,1.74,1.89,3.2,4.06,1.35,6.66s-3.82,4.79-7.42,2.91c-.88-.46-2.1-1-2.54.24-.64,1.81,1.18,2.22,2.26,2.64,3.77,1.46,9.17-1.65,10.65-6,1.4-4.06-1.76-10.32-6.27-10.69-3.31-.27-3.64-2-4.59-4.16-1.78-4.14-5.89-6.05-9.19-4.61-4.22,1.83-6.6,6.48-5.08,10.05.49,1.15,1,2.92,2.66,2.25s.45-1.88,0-2.92c-1.52-3.42.42-5.61,3.16-6.71,3.32-1.33,5.14,1.12,6.61,3.73C161.78,399.4,158.64,400.77,159.3,403.6Zm13.49-13.4c1.56-.83,2.41-1.3,3.27-1.74,2.91-1.5,5.08-.33,7,1.91,1.62,1.92,2.52,4,.9,6.32s-3.54,4.08-6.66,3.14c-1.15-.34-2.66-1.9-3.2.05-.49,1.79,1.56,2.22,3,2.58,3.73,1,8.78-2.29,10-6.36s-1.79-9.6-6.24-10.42c-2.85-.52-3.85-1.61-4.78-4.15-1.52-4.17-5.77-6.06-9.11-4.65-4,1.69-6.55,6.12-5.34,9.48.5,1.38,1.08,3.42,2.85,2.75s.11-2.17-.22-3.29c-.86-2.94.66-4.89,2.94-6.19,2.53-1.44,4.28.21,6,1.94C175.91,384.26,173,386.72,172.79,390.2Zm-35,26.49a2.66,2.66,0,0,0,0-2.89c-1.84-3.84,0-6.35,3.53-7.19s5.67,1.44,6.11,4.9a32.19,32.19,0,0,1-.18,6c-.16,2.5-.5,5-.57,7.47a7.35,7.35,0,0,0,4.37,6.8c2.17,1.07,3.14-1.85,4.54-3.06,2.14-1.85,4.05-4,6-6,.71-.72,1.51-1.62.42-2.49-.74-.58-1.52,0-2.15.67-2.11,2.12-4.32,4.15-6.34,6.36-1.77,1.92-2.77,1.09-3.68-.72-1.29-2.57-.66-5.21-.21-7.82.59-3.46,1.18-6.93-.3-10.3a7,7,0,0,0-7.55-4.52c-4,.33-6.37,2.8-7.27,6.49C133.76,413.18,134.56,415.6,137.74,416.69ZM188.46,373c-.28,3.41-.65,7-.87,10.71a7.26,7.26,0,0,0,4.15,6.92c2.55,1.35,3.3-2,4.94-3.08a9.63,9.63,0,0,0,2.47-2.46c1.31-1.91,5.45-3.68,3.72-5.4s-3.45,2.36-5.4,3.58-3,4.76-5.2,3.82c-3-1.27-2.26-4.81-2-7.62.14-1.49.59-2.94.73-4.43.25-2.65.44-5.32-.79-7.84a7.66,7.66,0,0,0-10.12-3.67c-3.92,1.83-5.92,6.62-4.15,9.94.56,1,1.27,2.42,2.51,2,1.62-.56.62-1.8.11-2.81a4.39,4.39,0,0,1,1.25-5.8c1.64-1.37,3.39-1.92,5.5-.83C188.17,367.45,188.54,370,188.46,373Zm-146,129.85a6.12,6.12,0,0,1,3,4.29c2.23,6.95,4.38,13.93,6.56,20.91.3,1,.57,2.12,1.8,2s1.37-1.26,1-2.29c-2.62-8.05-5-16.16-8-24.09-1.19-3.18-3.58-4.81-6.54-1a28.8,28.8,0,0,1-5.3,5.28c-3.63,2.71-2.88,5,.28,7.27.87.64,1.68,2.1,2.86.71.81-1-.17-1.79-.83-2.54-.83-.92-2.27-1.62-.86-3.24C38.57,507.71,40.5,505.24,42.49,502.82ZM60,483.42c1.15,1.27,2.2,2.49,3.33,3.63.77.78,1.62,2.11,2.85.86.93-1,0-1.94-.75-2.49-2.56-1.9-1.12-3.25.48-4.68a26.08,26.08,0,0,0,2.83-2.83c2.42-3,3.79-2.39,4.82,1.11,1.76,6.05,3.54,12.11,5.7,18,.62,1.7,0,5.53,3,4.65,2.42-.73,0-3.5-.42-5.17-1.66-5.9-3.71-11.7-5.6-17.54-2.54-7.81-3.91-8.2-9.46-2.66-1.65,1.65-3.31,3.28-4.93,4.95C61.2,481.87,60.72,482.53,60,483.42Zm82-54.1c-.38-2.52-1.81-4.08-4.28-3.94a3.84,3.84,0,0,0-3.89,4.24c0,2.63,1.56,3.95,4.11,3.84S141.62,431.67,142,429.32ZM88.73,483.15c2.58-.43,4.06-2.07,3.84-4.71s-1.86-3.73-4.42-3.49a3.81,3.81,0,0,0-3.73,4.32C84.52,481.7,86.08,483.09,88.73,483.15Z"/><path class="cls-3" d="M1003,305.29c-5.34-5.15-10.54-10.45-16-15.4-3.32-3-3-5.08.06-8.12q27.91-27.57,55.49-55.48c2.93-2.95,5.18-2.92,8-.06,4.65,4.78,9.32,9.54,14.16,14.11,3.27,3.09,3.24,5.84.12,8.92-3.91,3.86-7.75,7.79-11.57,11.74-4.52,4.69-5.72,3.51-.16,9.07q39.06,39,78.14,78.07c5,5,5,5.15-.09,10.23-4.72,4.69-9.62,9.21-14.3,13.93-2.28,2.3-4.16,2.23-6.32-.06-1.48-1.56-3.25-2.86-4.77-4.38q-37.85-37.8-75.57-75.7c-3.32-3.36-5.14-3.19-8.35.06-5.41,5.47-10.09,11.86-17.19,15.48,14.57,8.05,23.33,20.26,25.41,37,.32,2.56,1.35,3.85,3.92,4.26,9.87,1.57,18.1,6.25,25.11,13.3,10,10,20,20.08,30.18,29.9,2.95,2.83,3.24,5,.34,7.79q-7.51,7.32-14.9,14.78c-2.88,2.9-5.12,2.95-8.2-.27-9.07-9.53-18.52-18.7-27.84-28-8.92-8.9-18-8.92-26.95-.06-6,6-6,6-.22,11.82q17.25,17.38,34.47,34.8c4.88,5,4.85,5.61.11,10.43-4.55,4.63-9.23,9.14-13.76,13.8-2.63,2.71-4.84,2.71-7.55,0Q973.78,406,922.77,354.84c-3.2-3.2-3.49-5.62.15-9,9.44-8.92,18.5-18.25,27.64-27.48,13.92-14.07,30.16-18.77,49.22-12.42a16.77,16.77,0,0,0,2.35.43Zm-19.34,30a27.87,27.87,0,0,0-2.79.54c-7.19,2-11.12,8.1-16,12.94-1.44,1.42-.06,2.78,1,3.83,5,5.08,10.09,10.1,15.12,15.16,1.2,1.2,2.4,1.86,3.81.39,3.78-4,8.34-7.27,11.17-12,2.56-4.28,3.17-9,.54-13.7S989.76,335.22,983.65,335.26Z"/><path class="cls-4" d="M865.27,205.41c1.36,7.6,2.66,15.22,4.08,22.81,1.78,9.49,1.83,9.45-7.6,7.52-6.2-1.27-12.41-2.44-18.62-3.57-1.2-.22-2.54-1-3.78.29.41,1.94,2.13,2.86,3.36,4.1q31,31.2,62,62.35c6,6.06,6,6.32.09,12.24-4,4-8,8-12,12-4.27,4.2-5,4.2-9.29-.1l-81.44-81.82c-6.46-6.49-12.87-13-19.4-19.46-3.14-3.09-4-5.61-.1-9,5.47-4.86,10.49-10.23,15.58-15.51a7.28,7.28,0,0,1,7.17-2.35c7.52,1.43,15.06,2.74,22.6,4,5.34.93,5.45.77,4.52-4.43-1.32-7.38-2.48-14.78-3.93-22.13a7.9,7.9,0,0,1,2.55-8c5.06-4.82,9.93-9.86,14.87-14.8s5.16-4.88,9.93-.13l78.88,78.73c7.66,7.64,15.23,15.39,23.06,22.87,2.75,2.62,2.57,4.62.12,7.05-5.09,5-10.18,10.08-15.18,15.21-2.85,2.92-5,2.56-7.87-.35q-31.83-32.11-64-64c-1.39-1.39-2.84-2.72-4.26-4.08Z"/><path class="cls-4" d="M1014.74,108.23c4.65,4.6,8.46,8.74,12.67,12.43,10.4,9.12,20,19.08,30.09,28.53,3.35,3.13,3.24,5.82.21,8.86-4.35,4.37-8.54,8.91-13,13.09-4.3,4-5.51,3.79-9.92-.55-4.87-4.8-9.69-9.64-14.52-14.47q-42.47-42.37-84.91-84.78c-5.24-5.23-5.23-6,0-11.21,3.18-3.19,6.56-6.2,9.48-9.6,2.32-2.7,4.31-3,7.65-1.63C973.24,57.43,994.11,65.68,1015,74c1.15.46,2.3,1.41,4,.82a11.86,11.86,0,0,0-1.37-2.16c-12.59-12.38-24.91-25.06-37.91-37-9.78-9-10.24-9.58-1.07-18.75,2.94-3,6-5.75,8.79-8.87s5.11-2.45,7.7-.13c.75.66,1.43,1.4,2.14,2.1l99,98.92c5,5,5,5,.33,10.43-11.22,12.94-11.22,12.94-27.27,7.17q-23.49-8.45-47-16.86C1020.35,108.94,1018.43,107.79,1014.74,108.23Z"/><path class="cls-3" d="M891.45,597.24c-3-.27-4.28-2.19-5.78-3.69q-45.06-45.09-90.07-90.21c-3.77-3.78-7.51-7.58-11.33-11.3-2.65-2.59-2.9-4.82,0-7.55,5-4.66,9.91-9.43,14.47-14.51,3.38-3.77,6-3.08,9.11.1,11,11.17,22.19,22.13,33,33.47,3.41,3.57,5.54,3.55,8.67-.09a129.69,129.69,0,0,1,11.3-11.31c2.68-2.43,2.32-4.07-.09-6.45-11.4-11.22-22.66-22.58-34-33.89-4.82-4.83-4.81-4.9.16-9.86,4.48-4.48,9.07-8.84,13.38-13.48,2.83-3,4.89-2.89,7.8.06q21.6,21.89,43.51,43.45,28.61,28.29,57.32,56.48c5.79,5.71,5.78,6.25.14,11.88-4.25,4.24-8.67,8.3-12.84,12.6-3.17,3.25-5.6,2.93-8.75-.3-12-12.28-24.19-24.36-36.36-36.46-5-4.93-3.94-5.34-9.48.17-3.54,3.53-6.94,7.21-10.65,10.55-2.67,2.41-2.88,4-.08,6.67,12.3,12,24.35,24.19,36.48,36.34,5.92,5.93,5.91,6.18-.08,12.2-4.12,4.14-8.22,8.28-12.39,12.36A39.06,39.06,0,0,1,891.45,597.24Z"/><path class="cls-4" d="M798.16,399.13a46.64,46.64,0,0,1-13,30.88c-9.06,9.31-18.43,18.33-27.32,27.8-3.23,3.42-5.24,2.77-8.1-.12-17-17.18-34.09-34.24-51.13-51.36Q674.26,381.9,650,357.42c-6-6-5.94-6-.21-11.74,8.1-8.16,16.5-16,24.2-24.56,17.75-19.64,47.18-20.09,66.74-.92q21.4,21,42.4,42.41C793.15,372.84,797.65,383.61,798.16,399.13Zm-32.27-2.68c-.37-2.86-1-6.49-3.76-9.24-14.93-15-29.8-30.06-44.91-44.88-5.17-5.06-12.81-5.52-17.86-1.51-3,2.36-5.5,5.32-8.28,8-1.85,1.76-1.08,3.16.39,4.64q30,30.1,60,60.23c.94,1,1.82,1.92,3.43,1.25C759.43,413,765.92,402.73,765.89,396.45Z"/><path class="cls-3" d="M875.72,129.56c.53-11.07,7.09-24.9,22.37-33.22,16-8.7,32-7.75,47.43,1.78,3.64,2.25,6.79,5.39,9.86,8.42,15.08,14.85,30.2,29.67,45,44.76,15.94,16.2,19,39.46,7.93,57.25-12.31,19.8-36.8,26.92-58.12,16.9a49.43,49.43,0,0,1-14.16-10.06Q913,192.17,889.9,168.93C880.78,159.68,875.33,148.76,875.72,129.56Zm106.86,55.72c-.13-3.85-1.11-7.47-4-10.35s-5.65-5.65-8.47-8.48Q950.3,146.7,930.47,127c-5-4.91-10.93-6.08-15.85-3.43-8,4.28-10,14.06-3.72,20.61,10.47,11,21.29,21.57,32,32.27,6.25,6.23,12.45,12.51,19,18.46,4,3.7,9.22,4,14,1.8C980.5,194.59,982.79,190.54,982.58,185.28Z"/><path class="cls-4" d="M1021.28,465.55a3.92,3.92,0,0,1-1.2,3.28c-5,6-10.87,11.26-16.38,16.81-2.75,2.77-5.11,1.13-7.5-.51-9.18-6.29-9.23-6.35-17,1.57-2.88,2.95-7.73,5.31-8,9.17-.2,3.49,3.84,6.65,6.27,9.78,1.58,2,2,3.89-.15,6.13-5.27,5.56-10.62,11-16.27,16.18-2.74,2.51-4.72,1.83-6.57-.76-5.41-7.57-10.82-15.14-16.13-22.78-12.14-17.45-24.19-35-36.32-52.43q-15.78-22.73-31.66-45.38c-2.31-3.31-2.46-6.07.86-9.15,6.46-6,12.66-12.32,18.75-18.72,3.07-3.22,5.74-3,9.14-.59q43.74,30.94,87.59,61.76L1019,462.59C1020.22,463.49,1021.25,464.54,1021.28,465.55Zm-91.1-28.47c-.66,1.95.28,2.61.82,3.37,5.38,7.57,10.93,15,16.15,22.69,5.83,8.57,6.13,8.6,13.29,1.06,2.17-2.28,1.64-3.56-.46-5.12C950.13,451.82,940.29,444.55,930.18,437.08Z"/><path class="cls-4" d="M755.53,243.08c3.15.84,6.13,3.92,9.49,6.27q40.82,28.52,81.46,57.29,16.08,11.33,32.15,22.67c2.87,2,3.42,4.24.68,7C874.13,341.44,869,346.71,864,352c-2.22,2.31-4.48,2.55-7,.61a7.45,7.45,0,0,0-.83-.55c-3.2-1.9-5.56-6.68-9.36-5.6-3.11.89-5.47,4.63-8,7.26-2.76,2.86-7.42,5.15-7.76,8.74s3.69,6.67,6.14,9.76c1.74,2.2,2.22,4.26-.12,6.52q-7.89,7.63-15.54,15.51c-3,3.14-5.42,2.42-7.67-.8q-10-14.28-20-28.57-18.33-26.36-36.64-52.73-13.5-19.41-27.05-38.81c-2.36-3.36-2.33-6.07.93-9.11,6.46-6,12.55-12.41,18.79-18.65C751.18,244.29,752.36,242.78,755.53,243.08Zm34.28,60.7a3.35,3.35,0,0,0,.94,3.41c5.4,7.57,10.7,15.22,16.27,22.67,7.34,9.81,4.75,8.88,13.16,1.12,2.3-2.12,1.77-3.49-.38-5.07C809.92,318.64,800.07,311.35,789.81,303.78Z"/><path class="cls-5" d="M369.37,217.68c-.52.55-1.08,1.17-1.67,1.75-12.72,12.72-25.47,25.41-38.11,38.2-1.66,1.68-2.77,2.07-4.26.08a17.19,17.19,0,0,0-1.74-1.78Q239,171.3,154.28,86.76c-3-3-3.4-4.44-.12-7.59,12.24-11.77,24.17-23.87,36.08-36,2.08-2.12,3.16-2.39,5.43-.11q85.76,86,171.65,171.77C368.13,215.65,369.17,216.3,369.37,217.68ZM185.05,95.13a17.3,17.3,0,0,0,.45,1.92c1.85,5.06,6.14,8.1,9.56,6.83s4-4.46,1.64-10.52c-.06-.15-.26-.25-.29-.4-.24-1.38-1.28-3,.64-3.91A3.15,3.15,0,0,1,201,90.32c.69.92,1.29,1.9,1.91,2.88.42.65,1.14,1,1.67.59a2,2,0,0,0,.57-1.73A8.4,8.4,0,0,0,199.88,86c-2.4-1-4.23-.17-5.84,1.32-2,1.9-1.28,4.25-.51,6.45.32.92,1.08,1.71,1.34,2.64.45,1.6.92,3.45-1,4.41-1.67.83-2.8-.53-3.74-1.64a7.13,7.13,0,0,1-1.72-3c-.59-2.9-2.08-1.54-3.47-.93-1.51-2,.57-3.24,1.24-4.6,3.25-6.52,6.71-12.93,10.15-19.35.74-1.38,1.34-2.71.23-4.11a1.63,1.63,0,0,0-2.21-.34q-12.08,6.39-24.15,12.77a1.7,1.7,0,0,0-.83,2.51c.64,1.12,1.56,1,2.53.32.69-.45,1.49-.74,2.19-1.18,4.38-2.77,5,2.24,7.33,3.62,1.89,1.12,3.16,2.69,1.25,5.12C180.29,93,180.27,95.28,185.05,95.13Zm55.34,21c1.26,1.11,2,1.73,2.74,2.42,1.9,1.86,3.78,3.73,5.64,5.63.94,1,2,1.47,2.95.28.78-1,0-1.84-.7-2.57l-8.82-8.79c-1-1-1.94-1.16-3-.09q-9.15,9.18-18.32,18.34a1.62,1.62,0,0,0-.41,2.21,1.74,1.74,0,0,0,2.65.22,57.31,57.31,0,0,0,5.32-5.25c1.92-2.24,3.57-3.2,5.69-.22.68,1,1.76,2.61,3.19,1.4,1.85-1.57-.36-2.44-1-3.6s-3.16-1.57-1.79-3.41C236.24,120.35,238.38,118.32,240.39,116.11ZM255,164.77c.08,4.59,2.84,7.19,6.71,8.95,1.26.58,2.45.32,2.89-1s-.89-1.41-1.72-1.88a15.1,15.1,0,0,1-3.23-2.29c-2.07-2-2.56-4.66-.4-6.57s2.68,1.36,4.06,2.11a8.07,8.07,0,0,1,1.43,1.38c1.65,1.56,3.2,3.95,5.87,2.21a6.51,6.51,0,0,0,2.74-6.9c-.72-4.54-4.18-7.16-8.83-6.7C260.21,154.53,255,160.35,255,164.77Zm-13-13.28c0,4,3.28,8.55,6.88,9.35,1.07.24,2,.22,2.57-.87.67-1.38-.48-1.63-1.38-2a8.94,8.94,0,0,1-4.52-3.76,4,4,0,0,1,.78-5.42c1.69-1.35,2.33,1,3.39,1.79a37.26,37.26,0,0,1,2.87,2.76c3.25,3,6,2.22,7.42-1.95a7.7,7.7,0,0,0-7.27-10.31C247.9,141,242.13,146.59,242.07,151.49Zm88,67.14a6.41,6.41,0,0,0-1.06-4.26c-2.42-3.57-5.85-4.13-9.59-3.1-3.52,1-8.49,7.58-7.92,10.57.79,4.1,2.84,7.39,7.29,8.55.92.24,1.7.28,2.15-.51.69-1.2-.24-1.72-1.13-2.27a15.61,15.61,0,0,1-3.6-2.53c-1.69-1.9-2.22-4.47-.27-6.23s2.73,1.26,4.1,2c.56.3.93,1,1.44,1.38,1.57,1.3,2.76,3.88,5.34,2.55A5.77,5.77,0,0,0,330.1,218.63Zm-39-39.95c.46-1.69-.64-3.34-2-4.44-1.62-1.31-3.73-4.45-5.61-2.32-2.06,2.34,2.13,2.39,3,3.92a2,2,0,0,0,.34.37c1.81,1.7,1.58,3.59.24,5.34-1.84,2.41-2.7-.35-3.89-1s-2.37-1.85-3.7-2.44a5.31,5.31,0,0,0-7.39,5.19c0,1.32,7.05,9,8.28,9.12a2.08,2.08,0,0,0,.48-.11C283.44,191.85,291.16,181.85,291.11,178.68Zm-83.78-70.6c-2-.28-3.3,1.21-4.46,2.92s-.72,3.39.18,5.13c1.56,3,6.4,2.46,7,6.56.09.58,1.25.1,1.69-.34,3.16-3.17,6.88-5.91,9-9.89,1.68-3.1.75-6.2-1.9-8.41-1.47-1.22-3.65-3.79-5.3-1.75s2,2.19,2.83,3.53c.44.69,1.28,1.2,1.5,1.92a4.11,4.11,0,0,1-1.07,4.58c-1.57,1.31-2.28-.62-3.17-1.28C211.86,109.68,210.23,108,207.33,108.08Zm97.79,85.4c0-2.1-5.75-10-7.61-10.21a2.51,2.51,0,0,0-1.7.77c-3.67,3.6-7.3,7.26-10.94,10.89-.81.81-1.08,1.71-.19,2.59s1.81.46,2.58-.3c2-2,4-3.95,6-6,2.19-2.27,4.7-3.48,7.31-1.08,2.8,2.56,1.32,5.07-.84,7.28-2,2-4,4-6,6a1.94,1.94,0,0,0-.27,2.68,1.3,1.3,0,0,0,1.7.4C298,205.54,305.09,196.24,305.12,193.48ZM300,209.34c-.11,4.66,2.26,6.92,5.31,8.52,1,.55,2.89,1.12,3.56-.35.75-1.67-.94-1.92-2.16-2.55-2.06-1.06-4.33-2.61-3.53-5.32a11.53,11.53,0,0,1,7-7.25c2.55-1,4.24,1.22,5.47,3.29.62,1,.58,3.11,2.44,2.25s1-2.53.25-3.83c-2-3.68-5-5.76-9.38-4.86C305.28,200,300,206.6,300,209.34Zm-11-50.26c-.08-1.1-.38-1.63-1.11-1.86-1.45-.45-2.1.71-2.89,1.49q-8.66,8.61-17.27,17.28c-1,1-2.76,2.06-.94,3.61,1.47,1.27,2.38-.39,3.25-1.24q8.69-8.6,17.29-17.28A25.55,25.55,0,0,0,289.05,159.08Zm47.61,68.7a21.38,21.38,0,0,1,2.61,1.17c1.09.64,2.19,2.06,3.22.26.91-1.59-1-2.06-1.66-3.05-1-1.46-3.06-.34-4-2-1.5-2.65-1.65-2.68-3.64-.83a70.65,70.65,0,0,0-6.26,6.34c-1.57,1.88-5.81,4-4.07,5.72,2.81,2.8,4.27-2,6.29-3.4C331.38,230.41,332.83,227.65,336.66,227.78ZM233.49,146.16c1.84-2.3,3.59-4.68,5.53-6.88,2.62-3,5.55-4.81,9.26-1.5.74.67,1.63,1.33,2.47.18.71-1,.18-1.82-.57-2.58-1.72-1.77-4.85-1.93-5.56-4.95-.1-.45-1.2-.24-1.71.27-3.85,3.85-7.77,7.64-11.5,11.61C230.6,143.18,230.85,144.52,233.49,146.16Z"/><path class="cls-5" d="M95.56,129.41c13.3-13.27,26.69-26.51,39.9-39.92,2.18-2.2,3.27-1.68,5,.22,3.06,3.3,6.34,6.39,9.52,9.57l164,164c4.89,4.89,4.89,4.89-.17,9.95q-17.5,17.5-35,35c-1.59,1.6-2.51,2.37-4.57.3Q185.18,219.21,95.91,130A3.85,3.85,0,0,1,95.56,129.41Zm149.1,101.76c-4,3.69-8,7.35-12,11.08-1,1-2.76,2.1-1.28,3.68,1.64,1.75,2.65-.34,3.56-1.23q8-7.86,15.89-15.91c.85-.86,2.59-1.62,1.74-3.15s-2.3-1.11-3.92-.74c-4.17,1-8,3.32-12.75,3.33,1.23-4.06,2.26-7.7,3.47-11.27.55-1.6,1.54-3.44,0-4.55-1.81-1.3-2.95.74-4.07,1.84-5,4.91-10,9.84-14.83,14.86-1.1,1.14-3.77,2.34-1.68,4.32,1.81,1.72,2.82-.84,3.87-1.82,3.75-3.52,7.36-7.19,11-10.79.06,3.33-.89,6-1.5,8.65-.55,2.45-.58,4.35,3.16,2.93C238,231.39,240.76,230,244.66,231.17ZM117.07,129.05c.07,6,7.31,10.95,12.18,7.85a47.79,47.79,0,0,0,13.65-13.6c2.49-3.66.63-7-2.11-9.72s-6.49-3.85-9.89-1.32a77.43,77.43,0,0,0-12.7,12.57A5.7,5.7,0,0,0,117.07,129.05Zm152.5,130.68c-1.39-5.49-4.9-8.22-8.58-7.42-4.22.9-9.6,6.88-9.85,10.86a8.27,8.27,0,0,0,1.2,4.24c1.39,2.83,5.58,2.44,6.62,5.81.15.5,1.49-.12,2.1-.72l18.68-18.67c.74-.74,1.31-1.54.41-2.55-1.08-1.22-2-.66-2.89.27ZM166.05,154c-.15-2.53.35-3.93,2-4.92s2.84-.34,4.16.36a9.21,9.21,0,0,1,3.8,4.45c.52,1.1.83,2.51,2.26,1.91,1.61-.67,1.07-2.41.54-3.47a14.36,14.36,0,0,0-5.28-5.84c-2.8-1.73-5.66-1.87-8.25.4s-3.86,4.7-2.57,8.32c.92,2.59,2.54,5,2.47,8a5,5,0,0,1-3.31,5,4.78,4.78,0,0,1-5.45-1.22,6.47,6.47,0,0,1-2.42-5.23c.06-1.14,0-2.58-1.7-2.34-1.47.2-1.67,1.72-1.6,2.73.31,4.11,2.52,7,6.09,9s6.46.81,9.06-1.59,4.22-5.46,2.5-9.31C167.36,158,166.65,155.61,166.05,154Zm91.07,93.55a7.79,7.79,0,0,0-4.45-7.19c-3.58-1.92-6.77-.81-9.45,1.72s-5.93,5.15-4.7,9.66a10.08,10.08,0,0,0,6.23,7.23c1,.39,2.59.72,3.15-.46s-.53-2-1.8-2.35a6.63,6.63,0,0,1-3.95-3.52,4,4,0,0,1,.53-5c2.08-1.92,2.57,1,3.77,1.7.83.49,1.38,1.43,2.15,2,1.47,1.15,2.56,3.6,4.92,2.34A6.69,6.69,0,0,0,257.12,247.52Zm-43.36-44.05c-.51-1.59-.55-3.69-2.13-5.05s-4.08-4.35-5.68-2.75c-2.77,2.75,2.14,2.44,2.75,4.18.21.58,1,1,1.18,1.54.48,1.64.58,3.35-.93,4.56s-2.24-.62-3.24-1.2c-1.28-.75-2.39-1.78-3.69-2.49-2.59-1.41-4.76-.51-6.53,1.57s-1.59,4.44,0,6.76,6.12,1.73,6.51,5.67c0,0,1.08.16,1.33-.08C207.21,212.41,212,209.41,213.76,203.47ZM288.12,278c.28-4-2.51-5.86-5.45-7.55-.87-.5-2-.75-2.52.46-.44,1.05.05,1.8,1.22,2.26a7.73,7.73,0,0,1,2.4,1.73,3.63,3.63,0,0,1,.34,5.33c-1.95,2.55-2.65-.46-3.87-1a13.74,13.74,0,0,1-2.44-1.73c-3.28-2.36-6.11-1.45-8,1.7s-.55,5.68,2.31,7.64c1.55,1.06,4.38.73,4.26,3.77a3.16,3.16,0,0,0,1.72.32C280.81,290.31,288.1,280.8,288.12,278Zm-104-103.86a7.91,7.91,0,0,0-7.86-7.89c-4.6.09-10.91,6.81-10.69,11.4a7.78,7.78,0,0,0,8.23,7.43C178.52,184.89,184.2,178.87,184.11,174.15Zm-33.05-32.89c.06-2.43-5.67-9.81-7.93-10.06a2.55,2.55,0,0,0-1.76.69q-5.34,5.24-10.59,10.59a1.81,1.81,0,0,0-.26,2.66c1.2,1.35,2,.18,2.83-.6,1.91-1.85,3.78-3.74,5.68-5.6,2.23-2.2,5-3.53,7.37-.9,2.21,2.44,1.19,5.22-1.15,7.45-2,1.95-4,4-6,6-.55.58-1,1.48-.2,2.18a2.42,2.42,0,0,0,1.76.47C143.4,153.67,151,144,151.06,141.26Zm38.53,38c-4,.7-6.68,3.38-9,6.42a8.31,8.31,0,0,0,4.23,13.1c1.16.37,2.39.68,3-.66.78-1.65-.71-1.75-1.73-2.27-1.92-1-4-2-4-4.55-.11-4.12,3-6.27,5.94-7.85s5.23.49,6.71,3.24c.47.88.42,2.71,2.11,2,1.5-.63,1.33-1.94.72-3.36C196,181.74,193.17,180.1,189.59,179.24Zm18.27,42.95c.6-.22,1-.24,1.2-.45q9.88-9.84,19.7-19.73a1.64,1.64,0,0,0-.1-2.28c-.93-1-1.8-.41-2.54.32-2.25,2.21-4.47,4.45-6.7,6.68-4,4-8,8-12,12-.67.68-1.62,1.4-.94,2.51C206.8,221.7,207.5,221.94,207.86,222.19Zm68.35,42a2.9,2.9,0,0,0-.92.4q-5.85,5.78-11.65,11.59a1.54,1.54,0,0,0-.08,2.23,1.4,1.4,0,0,0,2.18.22c4-4,8.07-7.89,11.89-12C278.69,265.44,277.38,264.59,276.21,264.19ZM203,190.92c-.53-1.08-1.28-2.15-2.52-1-3.95,3.8-7.79,7.71-11.65,11.59a1.28,1.28,0,0,0-.2,1.78c.57.79,1.62,1.08,2.17.55,4.07-3.91,8-7.93,12-11.94C203,191.74,202.93,191.31,203,190.92Z"/><path class="cls-3" d="M225.38,361.77c-4.38-4.51-8.62-9-13-13.33q-63.07-63.1-126.24-126.11c-2.78-2.77-3.29-4.1-.16-7.12,12.23-11.79,24.2-23.86,36.07-36,2.52-2.58,3.82-2.28,6.2.11Q196.56,247.81,265,316.13c1.69,1.68,3.37,2.81.67,5.44C252.23,334.74,239,348.13,225.38,361.77ZM112.06,225.23c2.46.42,4.44-1.55,6.33-3.33,4.11-3.88,8-8,12-11.94,1.05-1.05,2.63-2.25,1.2-3.74-1.79-1.85-3.11-4.74-5.9-5-1.86-.14-1.89,1.81-.55,2.74,4.15,2.89,1.79,4.86-.66,7.12-3.05,2.82-5.83,5.91-8.89,8.72-1.83,1.68-3.86,3.35-6.6,1.46s-3.89-4.06-2.36-7.19c.55-1.12,1.11-2.3-.3-3-1.62-.75-2.4.66-3,1.82C100.7,217.89,105.55,225.15,112.06,225.23ZM223,298.34c.05-1.26-.91-1.79-1.58-2.47-2.33-2.37-4.83-4.59-7-7.09s-3.59-2-5.62.14c-4.33,4.6-9.05,8.82-13.27,13.51-1.51,1.68-6.08,3.18-3.44,5.76,2.41,2.35,3.92-2.18,5.79-3.61,2.6-2,4.51-6.43,8.07-1.13.52.77,1.46,1.51,2.5.6,1.44-1.28-.09-1.95-.64-2.83-.82-1.29-3.51-2-2.38-3.77a16.86,16.86,0,0,1,5.95-5.89c1.83-.94,3,2,4.38,3.16,1.65,1.37,3.07,3,4.69,4.45C221.66,300.25,222.43,299.44,223,298.34Zm-39.85-22.81a7.93,7.93,0,0,0-7.49-8.28c-4.43-.23-11.07,6.38-11.09,11a7.8,7.8,0,0,0,7.87,7.81C177.06,286.1,183.05,280.19,183.12,275.53Zm53.94,53.07c-.07-2.37-6-9.6-8.09-9.68a2.65,2.65,0,0,0-1.72.8c-3.45,3.37-6.84,6.8-10.23,10.22-.88.88-1.57,2-.42,3s2.1.06,3-.81c1.86-1.9,3.72-3.8,5.65-5.63s4.28-3.61,6.86-1,1.62,5.15-.49,7.45c-1.91,2.08-4,4-5.95,6-.67.69-1.42,1.42-.55,2.52a1.53,1.53,0,0,0,1.74.53C229.6,341.38,237.16,331.5,237.06,328.6Zm-32.94-10.42a7.77,7.77,0,0,0,12.22,6.13c3-2,5.4-4.87,8-7.39.92-.89,1.34-2,.19-3-1.38-1.19-2.07.27-2.82,1-1.82,1.7-3.57,3.48-5.32,5.26-2.37,2.41-5.16,3.46-7.8.91s-1-5.1,1.11-7.26c1.87-1.88,3.74-3.78,5.63-5.64a2.15,2.15,0,0,0,.65-2.66,1.37,1.37,0,0,0-1.66-.68C211.69,305.41,204,315.35,204.12,318.18Zm-78.22-82a3.94,3.94,0,0,1-4.19-2.12,4.3,4.3,0,0,1,.72-5.47c2.23-2.46,4.63-4.76,7-7.13a1.76,1.76,0,0,0,.22-2.63c-.91-1-1.79-.5-2.53.26a92.37,92.37,0,0,0-7.53,7.94,7.18,7.18,0,0,0,.86,10.29c3.1,2.89,6.94,2.87,10.41.38a21,21,0,0,0,4.58-4.55c1.24-1.66,5.17-2.95,3-5.19s-3.52,1.62-5.18,2.81C130.77,232.55,129.37,235.8,125.9,236.2Zm50.15,15.13c-1.34.43-2.82.54-3.79,1.29-6.31,4.89-11.48,11-17.12,16.55a1.55,1.55,0,0,0,.26,2.54c1.06.8,1.83,0,2.54-.7,2.46-2.46,5-4.84,7.34-7.43,1.85-2.07,3.4-2.92,5.36-.17.6.83,1.51,2.27,2.77,1.26,1.53-1.23.1-2.22-.66-3.28s-2.93-1.59-1.67-3.37a6.05,6.05,0,0,1,4.36-3,5.53,5.53,0,0,1,3.35.64c1,.55,2.07,2.39,3.11.27.79-1.59-.66-2.46-1.79-3.06A32.2,32.2,0,0,0,176.05,251.33Zm-33-5.21a26,26,0,0,1-1.17-3c-.53-2-3.66-4.11-.67-6,2.64-1.61,4.05,1.09,5.33,3,.27.42.49.86.78,1.26a1.12,1.12,0,0,0,1.73.15c.35-.27.8-.9.7-1.2-.87-2.58-2.22-4.86-4.73-6.14a5.35,5.35,0,0,0-6.38.69c-2.12,1.83-1.88,4-1.1,6.36s4.14,5.49.42,7.21c-3.25,1.51-4.26-2.43-5.47-4.85-.51-1-1.33-2.6-2.29-.64-1.05,2.17.17,4.21,1.67,5.87,2,2.16,4.27,4,7.36,2.87C141.51,251,142.91,249,143.07,246.12Zm16.29-9.07a4.34,4.34,0,0,0-1.17.63c-5.11,5.2-10.4,10.26-15.2,15.74-2.42,2.75-.65,5.6,1.6,7.89.74.75,1.61,1.2,2.56.25s.27-1.66-.28-2.15c-2.94-2.62-1.37-4.55.81-6.51a30,30,0,0,0,3.51-3.53c1.65-2.1,3.14-2.65,4.9-.16.6.83,1.7,1.54,2.55.86,1.22-1,.47-2.26-.49-2.92-3.14-2.18-1.18-3.64.55-5.26a10.07,10.07,0,0,0,2.28-2.57C161.61,238.06,161.19,237,159.36,237.05Zm36.72,48.78c.12-1.48-6.83-7.19-8.05-6.71a2.53,2.53,0,0,0-.8.58c-3.52,3.51-7,7-10.52,10.56a1.72,1.72,0,0,0-.17,2.62c.9.83,1.83.38,2.6-.37,1.3-1.28,2.6-2.56,3.86-3.87,3-3.16,6.11-5.87,10.55-2.05C194.6,287.49,195.71,287.36,196.08,285.83Z"/><path class="cls-6" d="M111.3,470.22c-.12,3.84-4,7.92-7.9,8.43-3.66.47-8.69-3.28-9.25-7.44-.31-2.32-.56-3.51-3.32-4a6.75,6.75,0,0,1-5.68-7.14c0-3.23,4.38-7.63,7.58-7.58a7.06,7.06,0,0,1,7.33,6.14c.36,2,.78,2.42,2.84,2.63C107.6,461.74,111.43,466.15,111.3,470.22Zm-7.63,5.8c2.81-.71,5.34-2.64,5-6a6.81,6.81,0,0,0-6.66-6.37c-3.26-.06-5.5,2.35-5.77,5.77C96,472.33,100.27,476.18,103.67,476ZM93.23,465.34c2.45-.79,4.82-2.22,4.67-5.27a5,5,0,0,0-9.93,0C87.88,463.17,90,464.74,93.23,465.34Z"/><path class="cls-6" d="M56.4,489c2.64,0,4,.5,5.21,1.48a76.45,76.45,0,0,1,11.62,11.62c2.88,3.67,2.37,7.31-1.18,10.64-3.17,3-6.79,3.78-10.25.67-3.94-3.55-7.68-7.36-11.31-11.23a6.4,6.4,0,0,1-.88-7.87C51.28,491.26,53.72,489.06,56.4,489Zm15.89,17.59c-.1-.49,0-1.09-.31-1.45C68.22,500,64.07,495.29,58.61,492c-2.2-1.32-4.14.15-5.67,1.81s-2.42,3.78-.87,5.86a64.18,64.18,0,0,0,11.87,12,4.32,4.32,0,0,0,5.54-.12A5.81,5.81,0,0,0,72.29,506.56Z"/><path class="cls-6" d="M159.3,403.6c-.66-2.83,2.48-4.2,1.16-6.58-1.47-2.61-3.29-5.06-6.61-3.73-2.74,1.1-4.68,3.29-3.16,6.71.46,1,1.52,2.31,0,2.92s-2.17-1.1-2.66-2.25c-1.52-3.57.86-8.22,5.08-10.05,3.3-1.44,7.41.47,9.19,4.61.95,2.2,1.28,3.89,4.59,4.16,4.51.37,7.67,6.63,6.27,10.69-1.48,4.34-6.88,7.45-10.65,6-1.08-.42-2.9-.83-2.26-2.64.44-1.23,1.66-.7,2.54-.24,3.6,1.88,5.62-.38,7.42-2.91s.39-4.77-1.35-6.66c-2.17-2.39-4.68-3-7.46-.84A9.16,9.16,0,0,1,159.3,403.6Z"/><path class="cls-6" d="M172.79,390.2c.22-3.48,3.12-5.94.4-8.63-1.75-1.73-3.5-3.38-6-1.94-2.28,1.3-3.8,3.25-2.94,6.19.33,1.12,2.12,2.57.22,3.29s-2.35-1.37-2.85-2.75c-1.21-3.36,1.32-7.79,5.34-9.48,3.34-1.41,7.59.48,9.11,4.65.93,2.54,1.93,3.63,4.78,4.15,4.45.82,7.42,6.48,6.24,10.42s-6.28,7.31-10,6.36c-1.43-.36-3.48-.79-3-2.58.54-1.95,2.05-.39,3.2-.05,3.12.94,5.06-.87,6.66-3.14s.72-4.4-.9-6.32c-1.88-2.24-4.05-3.41-7-1.91C175.2,388.9,174.35,389.37,172.79,390.2Z"/><path class="cls-6" d="M137.74,416.69c-3.18-1.09-4-3.51-3.29-6.32.9-3.69,3.29-6.16,7.27-6.49a7,7,0,0,1,7.55,4.52c1.48,3.37.89,6.84.3,10.3-.45,2.61-1.08,5.25.21,7.82.91,1.81,1.91,2.64,3.68.72,2-2.21,4.23-4.24,6.34-6.36.63-.63,1.41-1.25,2.15-.67,1.09.87.29,1.77-.42,2.49-2,2-3.89,4.13-6,6-1.4,1.21-2.37,4.13-4.54,3.06a7.35,7.35,0,0,1-4.37-6.8c.07-2.49.41-5,.57-7.47a32.19,32.19,0,0,0,.18-6c-.44-3.46-2.6-5.73-6.11-4.9s-5.37,3.35-3.53,7.19A2.66,2.66,0,0,1,137.74,416.69Z"/><path class="cls-6" d="M188.46,373c.08-3-.29-5.52-3.15-7-2.11-1.09-3.86-.54-5.5.83a4.39,4.39,0,0,0-1.25,5.8c.51,1,1.51,2.25-.11,2.81-1.24.44-1.95-.94-2.51-2-1.77-3.32.23-8.11,4.15-9.94a7.66,7.66,0,0,1,10.12,3.67c1.23,2.52,1,5.19.79,7.84-.14,1.49-.59,2.94-.73,4.43-.26,2.81-1,6.35,2,7.62,2.24.94,3.32-2.64,5.2-3.82s3.56-5.42,5.4-3.58-2.41,3.49-3.72,5.4a9.63,9.63,0,0,1-2.47,2.46c-1.64,1.1-2.39,4.43-4.94,3.08a7.26,7.26,0,0,1-4.15-6.92C187.81,380,188.18,376.38,188.46,373Z"/><path class="cls-6" d="M123,449c-1.94,2,.69,2.76,1.28,3.94,1.9,3.81.62,6.85-2,9.47s-5.5,3.81-9,1.94c-.81-.42-2-.88-1.47-2.13s1.49-.8,2.43-.35c3.46,1.67,5.79-.12,7.53-2.81,1.47-2.26.68-4.46-1-6.36-2.09-2.33-4.4-3.61-7.38-1.45-.79.57-1.7,1.46-2.59.43s.3-1.76.75-2.54c1.49-2.55.38-4.43-1.52-6.1-1.63-1.42-3.41-2.2-5.39-.74-2.15,1.57-3.64,3.47-2.38,6.35.43,1,1.68,2.21.14,2.95-1.7.82-2.21-1-2.74-2.09-1.66-3.41.8-8.4,4.9-10.18,3.25-1.41,7.65.68,9.41,4.47,1.62,3.48,4.87,5.36,9.21,5.31Z"/><path class="cls-6" d="M42.49,502.82c-2,2.42-3.92,4.89-6,7.26-1.41,1.62,0,2.32.86,3.24.66.75,1.64,1.58.83,2.54-1.18,1.39-2-.07-2.86-.71-3.16-2.3-3.91-4.56-.28-7.27a28.8,28.8,0,0,0,5.3-5.28c3-3.77,5.35-2.14,6.54,1,3,7.93,5.38,16,8,24.09.33,1,.28,2.16-1,2.29s-1.5-1-1.8-2c-2.18-7-4.33-14-6.56-20.91A6.12,6.12,0,0,0,42.49,502.82Z"/><path class="cls-6" d="M60,483.42c.75-.89,1.23-1.55,1.81-2.14,1.62-1.67,3.28-3.3,4.93-4.95,5.55-5.54,6.92-5.15,9.46,2.66,1.89,5.84,3.94,11.64,5.6,17.54.46,1.67,2.84,4.44.42,5.17-2.94.88-2.34-2.95-3-4.65-2.16-5.92-3.94-12-5.7-18-1-3.5-2.4-4.09-4.82-1.11a26.08,26.08,0,0,1-2.83,2.83c-1.6,1.43-3,2.78-.48,4.68.75.55,1.68,1.53.75,2.49-1.23,1.25-2.08-.08-2.85-.86C62.17,485.91,61.12,484.69,60,483.42Z"/><path class="cls-6" d="M123.1,449.15c-.84-6.63-3.9-12.6-5.61-19-.35-1.32-1.73-3.26.09-3.92,2.17-.79,1.87,1.87,2.28,3,1.92,5.25,3.55,10.61,5.34,16.07,5.47-4.34,5.46-4.34,1.4-9.18-.67-.79-2.2-1.56-.8-2.78s2,.32,2.89,1c1.85,1.46,3,4.75,6.31,2.59,1.19,2.89,2.47,5.76,3.46,8.71.13.38-1.33.86-2.08.19-1.25-1.1-2.43-2.27-3.55-3.33-3.76,1.6-4.8,7-9.84,6.53Z"/><path class="cls-5" d="M142,429.32c-.34,2.35-1.5,4-4.06,4.14s-4.07-1.21-4.11-3.84a3.84,3.84,0,0,1,3.89-4.24C140.15,425.24,141.58,426.8,142,429.32Z"/><path class="cls-6" d="M88.73,483.15c-2.65-.06-4.21-1.45-4.31-3.88A3.81,3.81,0,0,1,88.15,475c2.56-.24,4.22,1,4.42,3.49S91.31,482.72,88.73,483.15Z"/><path class="cls-1" d="M983.65,335.26c6.11,0,10.14,2.42,12.81,7.17s2,9.42-.54,13.7c-2.83,4.72-7.39,8-11.17,12-1.41,1.47-2.61.81-3.81-.39-5-5.06-10.1-10.08-15.12-15.16-1-1.05-2.41-2.41-1-3.83,4.89-4.84,8.82-10.93,16-12.94A27.87,27.87,0,0,1,983.65,335.26Z"/><path class="cls-1" d="M765.89,396.45c0,6.28-6.46,16.58-11,18.45-1.61.67-2.49-.3-3.43-1.25q-30-30.12-60-60.23c-1.47-1.48-2.24-2.88-.39-4.64,2.78-2.64,5.29-5.6,8.28-8,5-4,12.69-3.55,17.86,1.51,15.11,14.82,30,29.88,44.91,44.88C764.87,390,765.52,393.59,765.89,396.45Z"/><path class="cls-1" d="M982.58,185.28c.21,5.26-2.08,9.31-6.67,11.39-4.81,2.17-10,1.9-14-1.8-6.52-6-12.72-12.23-19-18.46-10.72-10.7-21.54-21.32-32-32.27-6.25-6.55-4.24-16.33,3.72-20.61,4.92-2.65,10.89-1.48,15.85,3.43q19.89,19.68,39.64,39.49c2.82,2.83,5.64,5.67,8.47,8.48S982.45,181.43,982.58,185.28Z"/><path class="cls-1" d="M930.18,437.08c10.11,7.47,20,14.74,29.8,22,2.1,1.56,2.63,2.84.46,5.12-7.16,7.54-7.46,7.51-13.29-1.06-5.22-7.67-10.77-15.12-16.15-22.69C930.46,439.69,929.52,439,930.18,437.08Z"/><path class="cls-1" d="M789.81,303.78c10.26,7.57,20.11,14.86,30,22.13,2.15,1.58,2.68,2.95.38,5.07-8.41,7.76-5.82,8.69-13.16-1.12-5.57-7.45-10.87-15.1-16.27-22.67A3.35,3.35,0,0,1,789.81,303.78Z"/><path class="cls-1" d="M185,95.13c-4.77.15-4.75-2.11-2.38-5.12,1.91-2.43.64-4-1.25-5.12-2.33-1.38-2.95-6.39-7.33-3.62-.7.44-1.5.73-2.19,1.18-1,.63-1.89.8-2.53-.32a1.7,1.7,0,0,1,.83-2.51q12.06-6.41,24.15-12.77a1.63,1.63,0,0,1,2.21.34c1.11,1.4.51,2.73-.23,4.11-3.44,6.42-6.9,12.83-10.15,19.35-.67,1.36-2.75,2.57-1.24,4.6Zm5.57-22.71-10.34,5.51,5.29,6.95,5.75-11.56c.47-.19.88-.52.51-1C191.67,72.16,191,72.38,190.61,72.42Z"/><path class="cls-1" d="M240.39,116.11c-2,2.21-4.15,4.24-5.89,6.57-1.37,1.84,1.14,2.29,1.79,3.41s2.88,2,1,3.6c-1.43,1.21-2.51-.45-3.19-1.4-2.12-3-3.77-2-5.69.22a57.31,57.31,0,0,1-5.32,5.25,1.74,1.74,0,0,1-2.65-.22,1.62,1.62,0,0,1,.41-2.21Q230,122.15,239.2,113c1.06-1.07,2-.89,3,.09l8.82,8.79c.74.73,1.48,1.61.7,2.57-1,1.19-2,.67-2.95-.28-1.86-1.9-3.74-3.77-5.64-5.63C242.43,117.84,241.65,117.22,240.39,116.11Z"/><path class="cls-1" d="M255,164.77c0-4.42,5.18-10.24,9.52-10.66,4.65-.46,8.11,2.16,8.83,6.7a6.51,6.51,0,0,1-2.74,6.9c-2.67,1.74-4.22-.65-5.87-2.21a8.07,8.07,0,0,0-1.43-1.38c-1.38-.75-2-3.91-4.06-2.11s-1.67,4.54.4,6.57a15.1,15.1,0,0,0,3.23,2.29c.83.47,2.17.59,1.72,1.88s-1.63,1.55-2.89,1C257.87,172,255.11,169.36,255,164.77Zm15.31-3.27c-.21-2.62-1.39-4.31-4.23-4.42-1.53-.05-3.74.53-3.35,1.81a9.6,9.6,0,0,0,5.61,5.78C270.12,165.35,270,162.86,270.34,161.5Z"/><path class="cls-1" d="M242.07,151.49c.06-4.9,5.83-10.49,10.74-10.4a7.7,7.7,0,0,1,7.27,10.31c-1.41,4.17-4.17,4.9-7.42,1.95a37.26,37.26,0,0,0-2.87-2.76c-1.06-.76-1.7-3.14-3.39-1.79a4,4,0,0,0-.78,5.42,8.94,8.94,0,0,0,4.52,3.76c.9.36,2.05.61,1.38,2-.53,1.09-1.5,1.11-2.57.87C245.35,160,242,155.54,242.07,151.49Zm15.29-3.17c-.29-2.43-1.43-4.17-4.29-4.24-1.53,0-3.72.58-3.31,1.84a9.59,9.59,0,0,0,5.65,5.75C257.11,152.31,257.07,149.84,257.36,148.32Z"/><path class="cls-1" d="M330.1,218.63a5.77,5.77,0,0,1-3.25,6.15c-2.58,1.33-3.77-1.25-5.34-2.55-.51-.43-.88-1.08-1.44-1.38-1.37-.74-2-3.89-4.1-2s-1.42,4.33.27,6.23a15.61,15.61,0,0,0,3.6,2.53c.89.55,1.82,1.07,1.13,2.27-.45.79-1.23.75-2.15.51-4.45-1.16-6.5-4.45-7.29-8.55-.57-3,4.4-9.59,7.92-10.57,3.74-1,7.17-.47,9.59,3.1A6.41,6.41,0,0,1,330.1,218.63Zm-7.5-4.75c-1.42.23-3.84.44-3.1,2,1.1,2.39,3.13,4.87,5.89,5.44,1.54.32,1.81-1.91,1.73-3.39C327,215.12,325.18,214,322.6,213.88Z"/><path class="cls-1" d="M291.11,178.68c.05,3.17-7.67,13.17-10.26,13.67a2.08,2.08,0,0,1-.48.11c-1.23-.07-8.24-7.8-8.28-9.12a5.31,5.31,0,0,1,7.39-5.19c1.33.59,2.39,1.77,3.7,2.44s2.05,3.37,3.89,1c1.34-1.75,1.57-3.64-.24-5.34a2,2,0,0,1-.34-.37c-.86-1.53-5.05-1.58-3-3.92,1.88-2.13,4,1,5.61,2.32C290.47,175.34,291.57,177,291.11,178.68ZM278,180.83c-1.61.17-3.05,1.08-2.7,2.71.48,2.25,2.32,3.41,4.7,3.57,1.9.12,3.92-1.14,3.43-2.45A6.56,6.56,0,0,0,278,180.83Z"/><path class="cls-1" d="M207.33,108.08c2.9-.11,4.53,1.6,6.38,3,.89.66,1.6,2.59,3.17,1.28a4.11,4.11,0,0,0,1.07-4.58c-.22-.72-1.06-1.23-1.5-1.92-.87-1.34-4.6-1.35-2.83-3.53s3.83.53,5.3,1.75c2.65,2.21,3.58,5.31,1.9,8.41-2.17,4-5.89,6.72-9,9.89-.44.44-1.6.92-1.69.34-.63-4.1-5.47-3.53-7-6.56-.9-1.74-1.37-3.36-.18-5.13S205.3,107.8,207.33,108.08Zm2.7,9.15c1.65,0,4-.24,3.67-2.09-.36-2.23-2.73-3.51-5-4a2.3,2.3,0,0,0-3,2.41C205.8,116,207.62,117.08,210,117.23Z"/><path class="cls-1" d="M305.12,193.48c0,2.76-7.15,12.06-9.93,13.06a1.3,1.3,0,0,1-1.7-.4,1.94,1.94,0,0,1,.27-2.68c2-2,4-4,6-6,2.16-2.21,3.64-4.72.84-7.28-2.61-2.4-5.12-1.19-7.31,1.08-2,2-4,4-6,6-.77.76-1.65,1.22-2.58.3s-.62-1.78.19-2.59c3.64-3.63,7.27-7.29,10.94-10.89a2.51,2.51,0,0,1,1.7-.77C299.37,183.5,305.14,191.38,305.12,193.48Z"/><path class="cls-1" d="M184.93,95.25c1.39-.61,2.88-2,3.47.93a7.13,7.13,0,0,0,1.72,3c.94,1.11,2.07,2.47,3.74,1.64,1.93-1,1.46-2.81,1-4.41-.26-.93-1-1.72-1.34-2.64-.77-2.2-1.52-4.55.51-6.45,1.61-1.49,3.44-2.31,5.84-1.32a8.4,8.4,0,0,1,5.27,6.07,2,2,0,0,1-.57,1.73c-.53.39-1.25.06-1.67-.59-.62-1-1.22-2-1.91-2.88a3.15,3.15,0,0,0-3.95-1.27c-1.92.88-.88,2.53-.64,3.91,0,.15.23.25.29.4,2.4,6.06,1.91,9.2-1.64,10.52s-7.71-1.77-9.56-6.83a17.3,17.3,0,0,1-.45-1.92Z"/><path class="cls-1" d="M300,209.34c0-2.74,5.24-9.33,9-10.1,4.34-.9,7.34,1.18,9.38,4.86.73,1.3,1.56,3-.25,3.83s-1.82-1.21-2.44-2.25c-1.23-2.07-2.92-4.31-5.47-3.29a11.53,11.53,0,0,0-7,7.25c-.8,2.71,1.47,4.26,3.53,5.32,1.22.63,2.91.88,2.16,2.55-.67,1.47-2.53.9-3.56.35C302.3,216.26,299.93,214,300,209.34Z"/><path class="cls-1" d="M289.05,159.08a25.55,25.55,0,0,1-1.67,2q-8.62,8.67-17.29,17.28c-.87.85-1.78,2.51-3.25,1.24-1.82-1.55,0-2.62.94-3.61q8.6-8.67,17.27-17.28c.79-.78,1.44-1.94,2.89-1.49C288.67,157.45,289,158,289.05,159.08Z"/><path class="cls-1" d="M336.66,227.78c-3.83-.13-5.28,2.63-7.5,4.22-2,1.44-3.48,6.2-6.29,3.4-1.74-1.72,2.5-3.84,4.07-5.72a70.65,70.65,0,0,1,6.26-6.34c2-1.85,2.14-1.82,3.64.83.93,1.65,3,.53,4,2,.68,1,2.57,1.46,1.66,3.05-1,1.8-2.13.38-3.22-.26A21.38,21.38,0,0,0,336.66,227.78Z"/><path class="cls-1" d="M233.49,146.16c-2.64-1.64-2.89-3-2.08-3.85,3.73-4,7.65-7.76,11.5-11.61.51-.51,1.61-.72,1.71-.27.71,3,3.84,3.18,5.56,4.95.75.76,1.28,1.61.57,2.58-.84,1.15-1.73.49-2.47-.18-3.71-3.31-6.64-1.46-9.26,1.5C237.08,141.48,235.33,143.86,233.49,146.16Z"/><path class="cls-1" d="M244.66,231.17c-3.9-1.13-6.66.22-9.33,1.23-3.74,1.42-3.71-.48-3.16-2.93.61-2.7,1.56-5.32,1.5-8.65-3.67,3.6-7.28,7.27-11,10.79-1,1-2.06,3.54-3.87,1.82-2.09-2,.58-3.18,1.68-4.32,4.87-5,9.85-10,14.83-14.86,1.12-1.1,2.26-3.14,4.07-1.84,1.55,1.11.56,3,0,4.55-1.21,3.57-2.24,7.21-3.47,11.27,4.74,0,8.58-2.37,12.75-3.33,1.62-.37,3.08-.78,3.92.74s-.89,2.29-1.74,3.15q-7.87,8-15.89,15.91c-.91.89-1.92,3-3.56,1.23-1.48-1.58.27-2.72,1.28-3.68C236.61,238.52,240.65,234.86,244.66,231.17Z"/><path class="cls-1" d="M117.08,129.05a5.65,5.65,0,0,1,1.12-4.22,77.43,77.43,0,0,1,12.7-12.57c3.4-2.53,7-1.5,9.89,1.32s4.6,6.06,2.11,9.72a47.79,47.79,0,0,1-13.65,13.6C124.38,140,117.14,135.09,117.08,129.05Zm8.69,5.35c.49-.1,1.5,0,2.07-.49,4.46-3.68,8.88-7.5,12.08-12.35,1.42-2.15.2-4.4-1.77-6.08s-4-1.86-5.8-.15c-3.73,3.51-7.39,7.12-10.9,10.85-1.23,1.31-2,3.07-.67,5C122,132.82,123.2,134.3,125.77,134.4Z"/><path class="cls-1" d="M269.57,259.73l7.69-8.18c.88-.93,1.81-1.49,2.89-.27.9,1,.33,1.81-.41,2.55L261.06,272.5c-.61.6-1.95,1.22-2.1.72-1-3.37-5.23-3-6.62-5.81a8.27,8.27,0,0,1-1.2-4.24c.25-4,5.63-10,9.85-10.86C264.67,251.51,268.18,254.24,269.57,259.73ZM263,255.89c-3.75,0-8.5,4.47-8.34,7.67.14,2.6,1.58,4.31,4.31,4.49,2.35.16,8.15-5.45,7.94-7.88S265.41,255.83,263,255.89Z"/><path class="cls-1" d="M166.05,154c.6,1.64,1.31,4,2.31,6.25,1.72,3.85.23,6.8-2.5,9.31s-5.59,3.53-9.06,1.59-5.78-4.93-6.09-9c-.07-1,.13-2.53,1.6-2.73,1.73-.24,1.76,1.2,1.7,2.34a6.47,6.47,0,0,0,2.42,5.23,4.78,4.78,0,0,0,5.45,1.22,5,5,0,0,0,3.31-5c.07-3-1.55-5.37-2.47-8-1.29-3.62.05-6.11,2.57-8.32s5.45-2.13,8.25-.4a14.36,14.36,0,0,1,5.28,5.84c.53,1.06,1.07,2.8-.54,3.47-1.43.6-1.74-.81-2.26-1.91a9.21,9.21,0,0,0-3.8-4.45c-1.32-.7-2.59-1.3-4.16-.36S165.9,151.44,166.05,154Z"/><path class="cls-1" d="M257.12,247.52a6.69,6.69,0,0,1-3.6,6.14c-2.36,1.26-3.45-1.19-4.92-2.34-.77-.62-1.32-1.56-2.15-2-1.2-.71-1.69-3.62-3.77-1.7a4,4,0,0,0-.53,5,6.63,6.63,0,0,0,3.95,3.52c1.27.36,2.43,1,1.8,2.35s-2.13.85-3.15.46a10.08,10.08,0,0,1-6.23-7.23c-1.23-4.51,2-7.08,4.7-9.66s5.87-3.64,9.45-1.72A7.79,7.79,0,0,1,257.12,247.52Zm-5.58,2.76a2.63,2.63,0,0,0,2.52-2.76c.28-3.13-1.84-4.55-4.33-5.16-1.36-.33-3.81.82-3.52,1.92C246.93,247,249.64,248.46,251.54,250.28Z"/><path class="cls-1" d="M213.76,203.47c-1.77,5.94-6.55,8.94-10.39,12.71-.25.24-1.33.1-1.33.08-.39-3.94-4.8-3.24-6.51-5.67s-1.95-4.53,0-6.76,3.94-3,6.53-1.57c1.3.71,2.41,1.74,3.69,2.49,1,.58,1.62,2.49,3.24,1.2s1.41-2.92.93-4.56c-.16-.58-1-1-1.18-1.54-.61-1.74-5.52-1.43-2.75-4.18,1.6-1.6,4,1.3,5.68,2.75S213.25,201.88,213.76,203.47ZM206,208.64c-1.56-1.77-3.11-3.56-5.63-3.73a2.17,2.17,0,0,0-2.53,2.78c.47,2.52,2.4,3.38,4.76,3.4C204.32,211.1,205.3,210.05,206,208.64Z"/><path class="cls-1" d="M288.12,278c0,2.79-7.31,12.3-10,13a3.16,3.16,0,0,1-1.72-.32c.12-3-2.71-2.71-4.26-3.77-2.86-2-4.17-4.53-2.31-7.64s4.71-4.06,8-1.7a13.74,13.74,0,0,0,2.44,1.73c1.22.5,1.92,3.51,3.87,1a3.63,3.63,0,0,0-.34-5.33,7.73,7.73,0,0,0-2.4-1.73c-1.17-.46-1.66-1.21-1.22-2.26.5-1.21,1.65-1,2.52-.46C285.61,272.15,288.4,274,288.12,278Zm-12.84,1.26c-1.53.37-3.13,1.26-3,2.74.22,2.71,2.65,3.6,4.93,4,1.53.24,3.69-1.29,3.47-2.12C280,281.37,277.49,280.4,275.28,279.27Z"/><path class="cls-1" d="M184.11,174.15c.09,4.72-5.59,10.74-10.32,10.94a7.78,7.78,0,0,1-8.23-7.43c-.22-4.59,6.09-11.31,10.69-11.4A7.91,7.91,0,0,1,184.11,174.15Zm-7.17-4.34c-3.39-.1-7.94,4.44-8,7.72,0,2.88,1.61,4.27,4.19,4.49s7.92-5.05,7.93-7.82S179.32,170.15,176.94,169.81Z"/><path class="cls-1" d="M151.06,141.26c-.08,2.74-7.66,12.41-10.21,12.9a2.42,2.42,0,0,1-1.76-.47c-.83-.7-.35-1.6.2-2.18,1.94-2,3.92-4.07,6-6,2.34-2.23,3.36-5,1.15-7.45-2.38-2.63-5.14-1.3-7.37.9-1.9,1.86-3.77,3.75-5.68,5.6-.8.78-1.63,2-2.83.6a1.81,1.81,0,0,1,.26-2.66q5.25-5.34,10.59-10.59a2.55,2.55,0,0,1,1.76-.69C145.39,131.45,151.12,138.83,151.06,141.26Z"/><path class="cls-1" d="M189.59,179.24c3.58.86,6.45,2.5,8,6.06.61,1.42.78,2.73-.72,3.36-1.69.72-1.64-1.11-2.11-2-1.48-2.75-3.6-4.9-6.71-3.24s-6,3.73-5.94,7.85c.07,2.53,2.11,3.58,4,4.55,1,.52,2.51.62,1.73,2.27-.64,1.34-1.87,1-3,.66a8.31,8.31,0,0,1-4.23-13.1C182.91,182.62,185.6,179.94,189.59,179.24Z"/><path class="cls-1" d="M207.86,222.19c-.36-.25-1.06-.49-1.35-1-.68-1.11.27-1.83.94-2.51,4-4,8-8,12-12,2.23-2.23,4.45-4.47,6.7-6.68.74-.73,1.61-1.31,2.54-.32a1.64,1.64,0,0,1,.1,2.28q-9.8,9.92-19.7,19.73C208.85,222,208.46,222,207.86,222.19Z"/><path class="cls-1" d="M276.21,264.19c1.17.4,2.48,1.25,1.42,2.4-3.82,4.15-7.88,8.08-11.89,12a1.4,1.4,0,0,1-2.18-.22,1.54,1.54,0,0,1,.08-2.23q5.79-5.82,11.65-11.59A2.9,2.9,0,0,1,276.21,264.19Z"/><path class="cls-2" d="M203,190.92c-.07.39,0,.82-.19,1-4,4-7.94,8-12,11.94-.55.53-1.6.24-2.17-.55a1.28,1.28,0,0,1,.2-1.78c3.86-3.88,7.7-7.79,11.65-11.59C201.72,188.77,202.47,189.84,203,190.92Z"/><path class="cls-1" d="M112.06,225.23c-6.51-.08-11.36-7.34-8.72-12.26.62-1.16,1.4-2.57,3-1.82,1.41.66.85,1.84.3,3-1.53,3.13-.28,5.37,2.36,7.19s4.77.22,6.6-1.46c3.06-2.81,5.84-5.9,8.89-8.72,2.45-2.26,4.81-4.23.66-7.12-1.34-.93-1.31-2.88.55-2.74,2.79.22,4.11,3.11,5.9,5,1.43,1.49-.15,2.69-1.2,3.74-4,4-7.92,8.06-12,11.94C116.5,223.68,114.52,225.65,112.06,225.23Z"/><path class="cls-1" d="M223,298.34c-.54,1.1-1.31,1.91-2.55.83-1.62-1.42-3-3.08-4.69-4.45-1.43-1.19-2.55-4.1-4.38-3.16a16.86,16.86,0,0,0-5.95,5.89c-1.13,1.76,1.56,2.48,2.38,3.77.55.88,2.08,1.55.64,2.83-1,.91-2,.17-2.5-.6-3.56-5.3-5.47-.85-8.07,1.13-1.87,1.43-3.38,6-5.79,3.61-2.64-2.58,1.93-4.08,3.44-5.76,4.22-4.69,8.94-8.91,13.27-13.51,2-2.15,3.52-2.55,5.62-.14s4.67,4.72,7,7.09C222.06,296.55,223,297.08,223,298.34Z"/><path class="cls-1" d="M183.12,275.53c-.07,4.66-6.06,10.57-10.71,10.57a7.8,7.8,0,0,1-7.87-7.81c0-4.66,6.66-11.27,11.09-11A7.93,7.93,0,0,1,183.12,275.53Zm-15.16,3c-.08,2.88,1.62,4.27,4.2,4.47s7.92-5.08,7.91-7.84-1.74-4.17-4.35-4.35C172.53,270.62,168,275.28,168,278.55Z"/><path class="cls-1" d="M237.06,328.6c.1,2.9-7.46,12.78-10.25,13.4a1.53,1.53,0,0,1-1.74-.53c-.87-1.1-.12-1.83.55-2.52,2-2,4-3.95,5.95-6,2.11-2.3,3-4.92.49-7.45s-4.83-.91-6.86,1-3.79,3.73-5.65,5.63c-.85.87-1.8,1.81-3,.81s-.46-2.09.42-3c3.39-3.42,6.78-6.85,10.23-10.22a2.65,2.65,0,0,1,1.72-.8C231,319,237,326.23,237.06,328.6Z"/><path class="cls-1" d="M204.12,318.18c-.09-2.83,7.57-12.77,10.22-13.38a1.37,1.37,0,0,1,1.66.68,2.15,2.15,0,0,1-.65,2.66c-1.89,1.86-3.76,3.76-5.63,5.64-2.15,2.16-3.78,4.68-1.11,7.26s5.43,1.5,7.8-.91c1.75-1.78,3.5-3.56,5.32-5.26.75-.7,1.44-2.16,2.82-1,1.15,1,.73,2.13-.19,3-2.62,2.52-5,5.39-8,7.39A7.77,7.77,0,0,1,204.12,318.18Z"/><path class="cls-1" d="M125.9,236.2c3.47-.4,4.87-3.65,7.35-5.41,1.66-1.19,3-5.1,5.18-2.81s-1.79,3.53-3,5.19a21,21,0,0,1-4.58,4.55c-3.47,2.49-7.31,2.51-10.41-.38a7.18,7.18,0,0,1-.86-10.29,92.37,92.37,0,0,1,7.53-7.94c.74-.76,1.62-1.3,2.53-.26a1.76,1.76,0,0,1-.22,2.63c-2.33,2.37-4.73,4.67-7,7.13a4.3,4.3,0,0,0-.72,5.47A3.94,3.94,0,0,0,125.9,236.2Z"/><path class="cls-1" d="M176.05,251.33a32.2,32.2,0,0,1,4.06,1.54c1.13.6,2.58,1.47,1.79,3.06-1,2.12-2.15.28-3.11-.27a5.53,5.53,0,0,0-3.35-.64,6.05,6.05,0,0,0-4.36,3c-1.26,1.78.94,2.34,1.67,3.37s2.19,2.05.66,3.28c-1.26,1-2.17-.43-2.77-1.26-2-2.75-3.51-1.9-5.36.17-2.32,2.59-4.88,5-7.34,7.43-.71.71-1.48,1.5-2.54.7a1.55,1.55,0,0,1-.26-2.54c5.64-5.59,10.81-11.66,17.12-16.55C173.23,251.87,174.71,251.76,176.05,251.33Z"/><path class="cls-1" d="M143.07,246.12c-.16,2.9-1.56,4.84-3.82,5.69-3.09,1.16-5.41-.71-7.36-2.87-1.5-1.66-2.72-3.7-1.67-5.87,1-2,1.78-.37,2.29.64,1.21,2.42,2.22,6.36,5.47,4.85,3.72-1.72.4-4.77-.42-7.21s-1-4.53,1.1-6.36a5.35,5.35,0,0,1,6.38-.69c2.51,1.28,3.86,3.56,4.73,6.14.1.3-.35.93-.7,1.2a1.12,1.12,0,0,1-1.73-.15c-.29-.4-.51-.84-.78-1.26-1.28-1.94-2.69-4.64-5.33-3-3,1.84.14,4,.67,6A26,26,0,0,0,143.07,246.12Z"/><path class="cls-1" d="M159.36,237.05c1.83,0,2.25,1,1.62,2.27a10.07,10.07,0,0,1-2.28,2.57c-1.73,1.62-3.69,3.08-.55,5.26,1,.66,1.71,1.95.49,2.92-.85.68-1.95,0-2.55-.86-1.76-2.49-3.25-1.94-4.9.16a30,30,0,0,1-3.51,3.53c-2.18,2-3.75,3.89-.81,6.51.55.49,1.1,1.33.28,2.15s-1.82.5-2.56-.25c-2.25-2.29-4-5.14-1.6-7.89,4.8-5.48,10.09-10.54,15.2-15.74A4.34,4.34,0,0,1,159.36,237.05Z"/><path class="cls-1" d="M196.08,285.83c-.37,1.53-1.48,1.66-2.53.76-4.44-3.82-7.51-1.11-10.55,2.05-1.26,1.31-2.56,2.59-3.86,3.87-.77.75-1.7,1.2-2.6.37a1.72,1.72,0,0,1,.17-2.62c3.47-3.56,7-7.05,10.52-10.56a2.53,2.53,0,0,1,.8-.58C189.25,278.64,196.2,284.35,196.08,285.83Z"/><path class="cls-1" d="M103.67,476c-3.4.16-7.67-3.69-7.45-6.62.27-3.42,2.51-5.83,5.77-5.77a6.81,6.81,0,0,1,6.66,6.37C109,473.38,106.48,475.31,103.67,476Z"/><path class="cls-1" d="M93.23,465.34c-3.27-.6-5.35-2.17-5.26-5.28a5,5,0,0,1,9.93,0C98.05,463.12,95.68,464.55,93.23,465.34Z"/><path class="cls-1" d="M72.28,506.56a5.78,5.78,0,0,1-2.8,5,4.32,4.32,0,0,1-5.54.12,64.18,64.18,0,0,1-11.87-12c-1.55-2.08-.72-4.13.87-5.86s3.47-3.13,5.67-1.81c5.46,3.29,9.61,8,13.37,13.11C72.25,505.47,72.19,506.07,72.28,506.56Z"/><path class="cls-6" d="M191.31,73.32l-5.75,11.56-5.29-6.95,10.34-5.51Z"/><path class="cls-6" d="M190.61,72.42c.42,0,1.06-.26,1.21-.08.37.46,0,.79-.51,1Z"/><path class="cls-3" d="M270.34,161.5c-.3,1.36-.22,3.85-2,3.17a9.6,9.6,0,0,1-5.61-5.78c-.39-1.28,1.82-1.86,3.35-1.81C269,157.19,270.13,158.88,270.34,161.5Z"/><path class="cls-3" d="M257.36,148.32c-.29,1.52-.25,4-2,3.35a9.59,9.59,0,0,1-5.65-5.75c-.41-1.26,1.78-1.88,3.31-1.84C255.93,144.15,257.07,145.89,257.36,148.32Z"/><path class="cls-5" d="M322.6,213.88c2.58.14,4.36,1.24,4.52,4.07.08,1.48-.19,3.71-1.73,3.39-2.76-.57-4.79-3.05-5.89-5.44C318.76,214.32,321.18,214.11,322.6,213.88Z"/><path class="cls-5" d="M278,180.83a6.56,6.56,0,0,1,5.43,3.83c.49,1.31-1.53,2.57-3.43,2.45-2.38-.16-4.22-1.32-4.7-3.57C275,181.91,276.4,181,278,180.83Z"/><path class="cls-6" d="M210,117.23c-2.41-.15-4.23-1.19-4.28-3.73a2.3,2.3,0,0,1,3-2.41c2.25.54,4.62,1.82,5,4C214,117,211.68,117.21,210,117.23Z"/><path class="cls-5" d="M125.77,134.4c-2.57-.1-3.82-1.58-5-3.25-1.34-1.9-.56-3.66.67-5,3.51-3.73,7.17-7.34,10.9-10.85,1.82-1.71,3.86-1.5,5.8.15s3.19,3.93,1.77,6.08c-3.2,4.85-7.62,8.67-12.08,12.35C127.27,134.37,126.26,134.3,125.77,134.4Z"/><path class="cls-5" d="M263,255.89c2.41-.06,3.7,1.79,3.91,4.28s-5.59,8-7.94,7.88c-2.73-.18-4.17-1.89-4.31-4.49C254.5,260.36,259.25,255.84,263,255.89Z"/><path class="cls-5" d="M251.54,250.28c-1.9-1.82-4.61-3.28-5.33-6-.29-1.1,2.16-2.25,3.52-1.92,2.49.61,4.61,2,4.33,5.16A2.63,2.63,0,0,1,251.54,250.28Z"/><path class="cls-5" d="M206,208.64c-.73,1.41-1.71,2.46-3.4,2.45-2.36,0-4.29-.88-4.76-3.4a2.17,2.17,0,0,1,2.53-2.78C202.92,205.08,204.47,206.87,206,208.64Z"/><path class="cls-5" d="M275.28,279.27c2.21,1.13,4.75,2.1,5.39,4.58.22.83-1.94,2.36-3.47,2.12-2.28-.36-4.71-1.25-4.93-4C272.15,280.53,273.75,279.64,275.28,279.27Z"/><path class="cls-5" d="M176.94,169.81c2.38.34,4.13,1.53,4.13,4.39s-5.21,8.05-7.93,7.82-4.24-1.61-4.19-4.49C169,174.25,173.55,169.71,176.94,169.81Z"/><path class="cls-5" d="M168,278.55c0-3.27,4.57-7.93,7.76-7.72,2.61.18,4.33,1.5,4.35,4.35s-5.19,8.06-7.91,7.84S167.88,281.43,168,278.55Z"/></g></g></g></svg>