<?xml version="1.0" encoding="iso-8859-1"?>
<!-- Generator: Adobe Illustrator 19.0.0, SVG Export Plug-In . SVG Version: 6.00 Build 0)  -->
<svg version="1.1" id="Layer_1" xmlns="http://www.w3.org/2000/svg" xmlns:xlink="http://www.w3.org/1999/xlink" x="0px" y="0px"
	 viewBox="0 0 481.882 481.882" style="enable-background:new 0 0 481.882 481.882;" xml:space="preserve">
<circle style="fill:#1565C0;" cx="240.941" cy="240.941" r="240.941"/>
<path style="fill:#1E88E5;" d="M0,240.941c0,133.067,107.874,240.941,240.941,240.941V0C107.874,0,0,107.881,0,240.941z"/>
<path style="fill:#FFFFFF;" d="M239.33,323.411c-10.511,0-18.296-7.778-19.659-18.304l-4.57-39.341
	c-1.837-12.363,5.489-21.489,17.83-22.874c43-4.119,66.786-20.57,66.786-49.4c0-29.606-23.002-44.371-52.593-44.371
	c-24.245,0-43.912,8.681-62.208,25.148c-18.891,15.112-42.541,1.129-42.541-18.756c0-6.859,2.741-14.178,9.148-19.667
	c24.245-22.874,54.897-37.963,96.979-37.963c61.267,0,107.497,32.994,107.497,93.779c0,57.645-41.623,83.72-92.393,92.408
	l-1.837,21.037c-1.822,10.059-9.148,18.304-19.659,18.304L239.33,323.411L239.33,323.411z M239.33,356.796
	c18.763,0,32.482,13.726,32.482,31.563v4.57c0,17.837-13.719,31.556-32.482,31.556c-18.748,0-32.474-13.719-32.474-31.556v-4.57
	C206.863,370.522,220.582,356.796,239.33,356.796z"/>
<g>
</g>
<g>
</g>
<g>
</g>
<g>
</g>
<g>
</g>
<g>
</g>
<g>
</g>
<g>
</g>
<g>
</g>
<g>
</g>
<g>
</g>
<g>
</g>
<g>
</g>
<g>
</g>
<g>
</g>
</svg>
