<?xml version="1.0" standalone="no"?>
<!DOCTYPE svg PUBLIC "-//W3C//DTD SVG 20010904//EN"
 "http://www.w3.org/TR/2001/REC-SVG-20010904/DTD/svg10.dtd">
<svg version="1.0" xmlns="http://www.w3.org/2000/svg"
 width="488.000000pt" height="488.000000pt" viewBox="0 0 488.000000 488.000000"
 preserveAspectRatio="xMidYMid meet">
<metadata>
Created by potrace 1.11, written by Peter Selinger 2001-2013
</metadata>
<g transform="translate(0.000000,488.000000) scale(0.100000,-0.100000)"
fill="#000000" stroke="none">
<path d="M2307 4874 c-1 -1 -42 -4 -90 -8 -80 -6 -110 -10 -227 -32 -19 -3
-44 -8 -55 -9 -119 -17 -407 -116 -565 -194 -129 -64 -354 -203 -416 -257 -12
-11 -44 -37 -72 -59 -86 -67 -302 -294 -384 -402 -277 -366 -450 -815 -485
-1260 -12 -150 -6 -423 11 -523 3 -14 7 -42 11 -64 46 -314 194 -695 372 -961
310 -465 749 -803 1266 -977 130 -44 187 -58 322 -83 92 -16 131 -22 212 -31
64 -8 2423 -13 2437 -6 4 3 4 7 -1 11 -5 3 -125 156 -267 339 l-258 334 39 41
c88 93 109 116 179 204 204 255 368 574 454 888 25 88 48 191 55 244 2 18 7
52 11 74 26 176 25 433 -2 627 -87 618 -400 1169 -886 1561 -90 72 -240 179
-252 179 -3 0 -22 12 -43 26 -38 25 -232 124 -308 156 -41 18 -274 97 -303
103 -273 61 -390 76 -610 79 -78 1 -143 1 -145 0z"/>
</g>
</svg>
