<?xml version="1.0" encoding="utf-8"?>
<!-- Generator: Adobe Illustrator 23.0.3, SVG Export Plug-In . SVG Version: 6.00 Build 0)  -->
<svg version="1.1" id="Layer_1" xmlns="http://www.w3.org/2000/svg" xmlns:xlink="http://www.w3.org/1999/xlink" x="0px" y="0px"
	 viewBox="0 0 270.3 232.3" style="enable-background:new 0 0 270.3 232.3;" xml:space="preserve">
<style type="text/css">
	.st0{fill:#902214;}
</style>
<title>sidewave</title>
<g>
	<g>
		<g id="Layer_1-2">
			<path class="st0" d="M18.5,175.3c-32.2-60.8-9-136.1,51.7-168.4C73,5.3,75.8,4,78.6,2.8L77.4,0c-2.9,1.3-5.8,2.7-8.6,4.2
				c-62.2,32.9-86,110.1-53,172.3c12.9,24.4,33.5,44,58.5,55.8l1.3-2.7C51.1,218.1,31.1,199.1,18.5,175.3z"/>
			<path class="st0" d="M100.7,64.3c1.2-0.6,2.4-1.2,3.6-1.7l-1.2-2.8c-1.3,0.6-2.6,1.2-3.8,1.8c-30.5,16.2-42.1,54-26,84.4
				c6.3,12,16.4,21.6,28.7,27.3l1.3-2.7c-29.7-13.9-42.5-49.4-28.6-79.1C80.2,79.9,89.3,70.4,100.7,64.3L100.7,64.3z"/>
			<path class="st0" d="M48.6,159.3c-23.4-44.2-6.6-98.9,37.5-122.3c1.9-1,3.9-2,5.9-2.8l-1.2-2.8c-2,0.9-4.1,1.9-6.1,3
				c-45.6,24.2-63,80.7-38.9,126.3c9.5,17.9,24.5,32.2,42.9,40.9l1.3-2.7C72.3,190.5,57.8,176.6,48.6,159.3z"/>
		</g>
	</g>
	<g>
		<g id="Layer_1-2_1_">
			<path class="st0" d="M251.7,58c32.2,60.8,9,136.1-51.7,168.4c-2.8,1.5-5.6,2.8-8.4,4.1l1.2,2.8c2.9-1.3,5.8-2.7,8.6-4.2
				c62.2-32.9,86-110.1,53-172.3C241.5,32.3,221,12.8,195.9,1l-1.3,2.7C219.1,15.1,239.1,34.2,251.7,58z"/>
			<path class="st0" d="M169.5,168.9c-1.2,0.6-2.4,1.2-3.6,1.7l1.2,2.8c1.3-0.6,2.6-1.2,3.8-1.8c30.5-16.2,42.1-54,26-84.4
				c-6.3-12-16.4-21.6-28.7-27.3l-1.3,2.7c29.7,13.9,42.5,49.4,28.6,79.1C190,153.3,180.9,162.9,169.5,168.9L169.5,168.9z"/>
			<path class="st0" d="M221.6,74c23.4,44.2,6.6,98.9-37.5,122.3c-1.9,1-3.9,2-5.9,2.9l1.2,2.8c2-0.9,4.1-1.9,6.1-3
				c45.6-24.2,63-80.7,38.9-126.3c-9.5-17.9-24.5-32.2-42.9-40.9l-1.3,2.7C197.9,42.8,212.4,56.7,221.6,74z"/>
		</g>
	</g>
</g>
</svg>
