<?xml version="1.0" encoding="utf-8"?>
<!-- Generator: Adobe Illustrator 23.0.3, SVG Export Plug-In . SVG Version: 6.00 Build 0)  -->
<svg version="1.1" id="Capa_1" xmlns="http://www.w3.org/2000/svg" xmlns:xlink="http://www.w3.org/1999/xlink" x="0px" y="0px"
	 viewBox="0 0 59 59" style="enable-background:new 0 0 59 59;" xml:space="preserve">
<style type="text/css">
	.st0{fill:#545E73;}
	.st1{fill:#8697CB;}
	.st2{fill:#323A45;}
	.st3{fill:#ED7161;}
</style>
<g>
	<g>
		<path class="st0" d="M43.1,58H17.9c-1.9,0-3.4-1.5-3.4-3.4V3.4C14.5,1.5,16,0,17.9,0h25.2c1.9,0,3.4,1.5,3.4,3.4v51.2
			C46.5,56.5,45,58,43.1,58z"/>
		<rect x="14.5" y="6" class="st1" width="32" height="40"/>
		<circle class="st2" cx="30.5" cy="52" r="3"/>
		<path class="st2" d="M30.5,4h-4c-0.6,0-1-0.4-1-1s0.4-1,1-1h4c0.6,0,1,0.4,1,1S31,4,30.5,4z"/>
		<path class="st2" d="M34.5,4h-1c-0.6,0-1-0.4-1-1s0.4-1,1-1h1c0.6,0,1,0.4,1,1S35,4,34.5,4z"/>
	</g>
	<g>
		<path class="st3" d="M46.5,42.2c1-2.2,3.1-4.2,5.7-4.2c3.5,0,6,2.8,6.3,6.2c0,0,0.2,0.8-0.2,2.3c-0.5,2-1.7,3.9-3.3,5.3L46.5,59
			L38,51.8c-1.6-1.4-2.8-3.2-3.3-5.3c-0.4-1.5-0.2-2.3-0.2-2.3c0.3-3.4,2.8-6.2,6.3-6.2C43.4,38,45.5,40,46.5,42.2z"/>
	</g>
</g>
</svg>
