<svg xmlns="http://www.w3.org/2000/svg" viewBox="0 0 486.93 486.93"><defs><style>.cls-1{fill:#db4e28;}.cls-2{fill:#fff;}</style></defs><title>talk</title><g id="Layer_2" data-name="Layer 2"><g id="Layer_1-2" data-name="Layer 1"><path class="cls-1" d="M486.93,242.73C486.93,109,376.46,0,242.73,0S0,109,0,242.73s109,244.2,242.73,244.2H464.28l-53.4-68.84C458.54,372.19,486.93,308.49,486.93,242.73Z"/><path class="cls-2" d="M286.17,160.18c-16.94,0-32.11,7.06-43.76,20.12-11.65-13.06-26.82-20.12-43.76-20.12-34.58,0-61.4,28.59-61.4,65.29,0,46.58,45.17,75.52,105.16,127.4,65.64-57.17,105.17-82.23,105.17-127.4C347.58,188.77,320.76,160.18,286.17,160.18Z"/></g></g></svg>