<svg height="504pt" viewBox="-12 0 504 504.336" width="504pt" xmlns="http://www.w3.org/2000/svg"><path d="m10.046875 504.335938 28.480469-134.175782c-59.511719-92.195312-48.914063-213.015625 25.746094-293.441406 74.660156-80.425781 194.355468-99.96875 290.71875-47.46875 96.363281 52.503906 144.839843 163.675781 117.742187 270.015625-27.097656 106.335937-122.867187 180.753906-232.605469 180.734375-33.800781.019531-67.210937-7.1875-98-21.136719zm0 0" fill="#f2dfdd"/><path d="m240.128906 384.65625-117.34375-117.34375c-33.503906-33.496094-35.699218-87.09375-5.050781-123.214844 30.652344-36.125 83.890625-42.6875 122.394531-15.089844 38.503906-27.597656 91.742188-21.035156 122.394532 15.089844 30.648437 36.121094 28.453124 89.71875-5.050782 123.214844zm0 0" fill="#e76e54"/></svg>