<svg xmlns="http://www.w3.org/2000/svg" viewBox="0 0 255.17 208.66"><defs><style>.cls-1{fill:#902214;}</style></defs><title>waves_1</title><g id="Layer_2" data-name="Layer 2"><g id="Layer_1-2" data-name="Layer 1"><path class="cls-1" d="M27.93,202.27a124.59,124.59,0,1,1,195.78,4.48l2.31,1.91a127.58,127.58,0,1,0-200.49-4.59Z"/><path class="cls-1" d="M68.08,127.58a59.5,59.5,0,1,1,105.44,37.78l2.31,1.91a62.51,62.51,0,1,0-98.21-2.19l2.4-1.79A59.21,59.21,0,0,1,68.08,127.58Z"/><path class="cls-1" d="M37.08,127.58a90.5,90.5,0,1,1,160.35,57.5l2.31,1.9a93.51,93.51,0,1,0-146.93-3.33l2.4-1.79A90,90,0,0,1,37.08,127.58Z"/></g></g></svg>