<svg xmlns="http://www.w3.org/2000/svg" viewBox="0 0 252.66 224.42"><defs><style>.cls-1{fill:#902214;}</style></defs><title>waves</title><g id="Layer_2" data-name="Layer 2"><g id="Layer_1-2" data-name="Layer 1"><path class="cls-1" d="M85,7C21.21,29-14.14,98.2,5.36,162.8a125.57,125.57,0,0,0,40.19,60.63,2.5,2.5,0,0,0,3.54-.37l0,0a2.43,2.43,0,0,0-.36-3.41,120.77,120.77,0,0,1-38.61-58.23c-18.42-61,14-126.46,73.72-148.7a121.33,121.33,0,0,1,119.94,207,2.79,2.79,0,0,0-.39,3.86h0a2.21,2.21,0,0,0,3.14.35A126.33,126.33,0,0,0,85,7Z"/><path class="cls-1" d="M40.43,154.62a90.44,90.44,0,1,1,144,40.95,2.39,2.39,0,0,0-.36,3.31h0a2.62,2.62,0,0,0,3.76.37,95.48,95.48,0,1,0-122.9.14,2.39,2.39,0,0,0,3.43-.32l.1-.13a2.46,2.46,0,0,0-.36-3.41A89.89,89.89,0,0,1,40.43,154.62Z"/><path class="cls-1" d="M74.65,143.35a54.4,54.4,0,1,1,87.26,24.11,2,2,0,0,0-.24,2.71l.44.56a2.28,2.28,0,0,0,3.31.3,59.42,59.42,0,1,0-78.31-.1,2.87,2.87,0,0,0,4.11-.38l0,0a2,2,0,0,0-.25-2.83A54.07,54.07,0,0,1,74.65,143.35Z"/></g></g></svg>